<svg width="96" height="60" viewBox="0 0 96 60" fill="none" xmlns="http://www.w3.org/2000/svg">
<path d="M89.2527 0.881363H22.8258C22.0475 0.881363 21.4165 1.51214 21.4165 2.29062C21.4165 3.06909 22.0475 3.69987 22.8258 3.69987H89.2527C91.4192 3.69987 93.1817 5.46237 93.1817 7.62887V37.6349C93.1817 39.8014 91.4192 41.5639 89.2527 41.5639H85.8782V32.3817C85.8782 32.008 85.7297 31.6495 85.4654 31.3852C85.2011 31.121 84.8427 30.9725 84.4689 30.9725H11.5311C11.1573 30.9725 10.7989 31.121 10.5346 31.3852C10.2703 31.6495 10.1218 32.008 10.1218 32.3817V41.5639H6.7475C4.58101 41.5639 2.81851 39.8014 2.81851 37.6349V7.62887C2.81851 5.46237 4.58101 3.69987 6.7475 3.69987H17.1888C17.967 3.69987 18.598 3.06909 18.598 2.29062C18.598 1.51214 17.967 0.881363 17.1888 0.881363H6.7475C3.02689 0.881363 0 3.90825 0 7.62887V37.6349C0 41.3555 3.02689 44.3824 6.7475 44.3824H21.4171C21.7908 44.3824 22.1493 44.2339 22.4136 43.9696C22.6779 43.7053 22.8263 43.3469 22.8263 42.9731C22.8263 42.5994 22.6779 42.2409 22.4136 41.9766C22.1493 41.7123 21.7908 41.5639 21.4171 41.5639H12.9403V39.0866H68.9461C69.3199 39.0866 69.6783 38.9381 69.9426 38.6738C70.2069 38.4095 70.3553 38.0511 70.3553 37.6773C70.3553 37.3036 70.2069 36.9451 69.9426 36.6808C69.6783 36.4166 69.3199 36.2681 68.9461 36.2681H12.9403V33.7908H83.0597V36.2681H74.5831C74.2094 36.2681 73.8509 36.4166 73.5866 36.6808C73.3223 36.9451 73.1739 37.3036 73.1739 37.6773C73.1739 38.0511 73.3223 38.4095 73.5866 38.6738C73.8509 38.9381 74.2094 39.0866 74.5831 39.0866H83.0597V41.5639H27.0539C26.6801 41.5639 26.3217 41.7123 26.0574 41.9766C25.7931 42.2409 25.6446 42.5994 25.6446 42.9731C25.6446 43.3469 25.7931 43.7053 26.0574 43.9696C26.3217 44.2339 26.6801 44.3824 27.0539 44.3824H89.2527C92.9733 44.3824 96.0002 41.3555 96.0002 37.6349V7.62887C96 3.90844 92.9731 0.881363 89.2527 0.881363Z" fill="#594DA0"/>
<path d="M84.469 12.3397C84.8427 12.3397 85.2012 12.1912 85.4655 11.927C85.7298 11.6627 85.8782 11.3042 85.8782 10.9305C85.8782 10.5567 85.7298 10.1983 85.4655 9.93397C85.2012 9.66968 84.8427 9.52121 84.469 9.52121H80.3012C79.9274 9.52121 79.5689 9.66968 79.3047 9.93397C79.0404 10.1983 78.8919 10.5567 78.8919 10.9305C78.8919 11.3042 79.0404 11.6627 79.3047 11.927C79.5689 12.1912 79.9274 12.3397 80.3012 12.3397H84.469ZM73.871 12.3397C74.2448 12.3397 74.6032 12.1912 74.8675 11.927C75.1318 11.6627 75.2803 11.3042 75.2803 10.9305C75.2803 10.5567 75.1318 10.1983 74.8675 9.93397C74.6032 9.66968 74.2448 9.52121 73.871 9.52121H47.1974C46.8237 9.52121 46.4652 9.66968 46.2009 9.93397C45.9366 10.1983 45.7882 10.5567 45.7882 10.9305C45.7882 11.3042 45.9366 11.6627 46.2009 11.927C46.4652 12.1912 46.8237 12.3397 47.1974 12.3397H73.871ZM26.5094 48.153C26.1356 48.153 25.7772 48.3014 25.5129 48.5657C25.2486 48.83 25.1002 49.1885 25.1002 49.5622C25.1002 49.6041 25.0549 53.7819 21.1454 56.5606C20.9017 56.7337 20.7193 56.98 20.6247 57.2636C20.5301 57.5473 20.5282 57.8537 20.6193 58.1385C20.7103 58.4233 20.8896 58.6718 21.1312 58.848C21.3728 59.0242 21.6641 59.119 21.9632 59.1186C22.2555 59.1188 22.5405 59.0276 22.7785 58.8578C27.8604 55.2456 27.9188 49.7924 27.9188 49.562C27.9188 49.377 27.8823 49.1937 27.8115 49.0227C27.7407 48.8518 27.6368 48.6964 27.506 48.5656C27.3751 48.4347 27.2197 48.331 27.0487 48.2602C26.8777 48.1894 26.6945 48.1529 26.5094 48.153ZM36.5998 48.153C36.2261 48.153 35.8676 48.3014 35.6034 48.5657C35.3391 48.83 35.1906 49.1885 35.1906 49.5622V57.7092C35.1906 58.083 35.3391 58.4414 35.6034 58.7057C35.8676 58.97 36.2261 59.1185 36.5998 59.1185C36.9736 59.1185 37.3321 58.97 37.5963 58.7057C37.8606 58.4414 38.0091 58.083 38.0091 57.7092V49.5622C38.0091 49.1885 37.8606 48.83 37.5963 48.5657C37.3321 48.3014 36.9736 48.153 36.5998 48.153ZM48.3964 48.153C48.0227 48.153 47.6642 48.3014 47.3999 48.5657C47.1356 48.83 46.9872 49.1885 46.9872 49.5622V57.7092C46.9872 58.083 47.1356 58.4414 47.3999 58.7057C47.6642 58.97 48.0227 59.1185 48.3964 59.1185C48.7702 59.1185 49.1286 58.97 49.3929 58.7057C49.6572 58.4414 49.8057 58.083 49.8057 57.7092V49.5622C49.8057 49.1885 49.6572 48.83 49.3929 48.5657C49.1286 48.3014 48.7702 48.153 48.3964 48.153ZM74.8549 56.5606C70.998 53.8193 70.9022 49.7434 70.9001 49.5558C70.8984 49.1832 70.7492 48.8264 70.4851 48.5635C70.221 48.3006 69.8635 48.153 69.4909 48.153C69.1171 48.153 68.7587 48.3014 68.4944 48.5657C68.2301 48.83 68.0816 49.1885 68.0816 49.5622C68.0816 49.7926 68.14 55.2458 73.222 58.858C73.3728 58.9653 73.5433 59.0418 73.7237 59.0832C73.9042 59.1246 74.091 59.13 74.2735 59.0991C74.456 59.0683 74.6306 59.0018 74.7874 58.9034C74.9442 58.805 75.0801 58.6767 75.1873 58.5258C75.4037 58.2211 75.4903 57.8429 75.428 57.4744C75.3656 57.1058 75.1595 56.7771 74.8549 56.5606ZM59.4002 48.153C59.0265 48.153 58.668 48.3014 58.4037 48.5657C58.1395 48.83 57.991 49.1885 57.991 49.5622V57.7092C57.991 58.083 58.1395 58.4414 58.4037 58.7057C58.668 58.97 59.0265 59.1185 59.4002 59.1185C59.774 59.1185 60.1324 58.97 60.3967 58.7057C60.661 58.4414 60.8095 58.083 60.8095 57.7092V49.5622C60.8095 49.1885 60.661 48.83 60.3967 48.5657C60.1324 48.3014 59.774 48.153 59.4002 48.153Z" fill="#594DA0"/>
</svg>
