<svg width="20" height="20" viewBox="0 0 20 20" fill="none" xmlns="http://www.w3.org/2000/svg">
<g id="Frame">
<g id="Group">
<path id="Vector" d="M5.62539 1.61877L3.49414 3.75002H5.62539V1.61877Z" fill="white"/>
<path id="Vector_2" d="M5 14.375V13.125H6.31875C6.39445 12.4718 6.58488 11.837 6.88125 11.25H5V10H7.74375C8.48099 9.17904 9.44525 8.59531 10.5145 8.32272C11.5837 8.05014 12.7097 8.10096 13.75 8.46875V1.25C13.75 1.08424 13.6842 0.925268 13.5669 0.808058C13.4497 0.690848 13.2908 0.625 13.125 0.625H6.875V4.375C6.875 4.54076 6.80915 4.69973 6.69194 4.81694C6.57473 4.93415 6.41576 5 6.25 5H2.5V16.25C2.5 16.4158 2.56585 16.5747 2.68306 16.6919C2.80027 16.8092 2.95924 16.875 3.125 16.875H7.2125C6.71341 16.1269 6.4025 15.2692 6.30625 14.375H5ZM5 6.875H9.375V8.125H5V6.875Z" fill="white"/>
<path id="Vector_3" d="M15.3992 16.3938C16.062 15.5081 16.3647 14.4042 16.2464 13.3043C16.128 12.2044 15.5974 11.1902 14.7613 10.4658C13.9252 9.74138 12.8457 9.36062 11.7402 9.40013C10.6347 9.43965 9.58513 9.89651 8.80289 10.6787C8.02066 11.461 7.5638 12.5105 7.52428 13.6161C7.48476 14.7216 7.86552 15.8011 8.58991 16.6372C9.3143 17.4733 10.3285 18.0039 11.4284 18.1222C12.5283 18.2406 13.6322 17.9379 14.5179 17.275L16.6179 19.375L17.4992 18.4938L15.3992 16.3938ZM11.9429 15C11.8265 15.1155 11.6694 15.1806 11.5054 15.1813C11.4232 15.1817 11.3416 15.166 11.2655 15.1349C11.1893 15.1038 11.1201 15.0579 11.0617 15L9.84916 13.7875L10.7367 12.9063L11.5054 13.675L13.0679 12.1125L13.9492 12.9938L11.9429 15Z" fill="white"/>
</g>
</g>
</svg>
