<svg width="96" height="96" viewBox="0 0 96 96" fill="none" xmlns="http://www.w3.org/2000/svg">
<path d="M3.08421 66.0493V66.8944C3.08421 70.9782 5.08837 74.5942 8.15589 76.839V83.5818C8.15589 84.7827 9.13125 85.7594 10.33 85.7594H21.1968C22.3956 85.7594 23.3709 84.7824 23.3709 83.5818V76.8387C26.4381 74.5936 28.4423 70.9779 28.4423 66.8941V66.1526C30.0401 66.1504 31.3392 64.8502 31.3392 63.2461C31.3392 61.6701 30.0743 60.3898 28.5072 60.352L30.5386 42.5005C30.5844 42.4058 30.6144 42.3024 30.6144 42.1901C30.6144 42.1341 30.5946 42.0845 30.5824 42.032C30.7386 40.2368 30.154 38.4493 28.9527 37.1037C28.3429 36.4205 27.5958 35.8736 26.7603 35.499C25.9247 35.1243 25.0195 34.9301 24.1037 34.9293H8.14693C7.23124 34.9301 6.32603 35.1241 5.49046 35.4987C4.65489 35.8732 3.90778 36.4199 3.29797 37.103C2.09701 38.4483 1.51237 40.2349 1.66757 42.0298C1.65509 42.0829 1.63525 42.1334 1.63525 42.1901C1.63525 42.3027 1.66597 42.4064 1.71205 42.5014L3.74373 60.352C2.17605 60.3894 0.910767 61.6701 0.910767 63.2512C0.910767 64.5987 1.83749 65.7238 3.08421 66.0493ZM21.92 83.5818C21.9203 83.774 21.8443 83.9586 21.7086 84.0949C21.573 84.2312 21.3888 84.3081 21.1965 84.3088H10.3296C10.1374 84.308 9.95326 84.2311 9.81764 84.0948C9.68202 83.9585 9.60596 83.774 9.60613 83.5818V77.7648C11.3917 78.7244 13.3874 79.2259 15.4144 79.2243H16.1111C18.1382 79.2259 20.1341 78.7244 21.9197 77.7648L21.92 83.5818ZM26.9911 66.8944C26.9911 72.8934 22.1104 77.7738 16.1111 77.7738H15.4144C9.41509 77.7738 4.53445 72.8934 4.53445 66.8944V66.1536H26.9911V66.8944ZM5.20293 60.3456L3.21925 42.9158H29.0314L27.048 60.3456H5.20293ZM4.38021 38.0698C4.85386 37.539 5.4342 37.1142 6.08328 36.8231C6.73236 36.532 7.43556 36.3812 8.14693 36.3805H24.1034C25.5389 36.3805 26.912 36.9965 27.8701 38.0701C28.7026 39.005 29.1621 40.2134 29.1613 41.4653H3.08869C3.08789 40.2133 3.54758 39.0047 4.38021 38.0698ZM3.81253 61.7962H28.4381C28.6289 61.7965 28.8178 61.8344 28.994 61.9078C29.1701 61.9811 29.3301 62.0884 29.4648 62.2236C29.5994 62.3588 29.7062 62.5192 29.7789 62.6956C29.8515 62.872 29.8887 63.061 29.8884 63.2518C29.8884 64.0518 29.2378 64.7027 28.4381 64.7027H3.81253C3.42699 64.702 3.05754 64.5481 2.78541 64.275C2.51327 64.0019 2.36073 63.6319 2.36133 63.2464C2.36192 62.8618 2.51503 62.4931 2.78709 62.2212C3.05914 61.9494 3.42791 61.7965 3.81253 61.7962ZM66.8343 14.6413C63.5793 15.007 61.0394 17.7738 61.0394 21.1251V23.3098C61.0394 23.5022 61.1158 23.6867 61.2519 23.8227C61.3879 23.9588 61.5725 24.0352 61.7649 24.0352H77.7021C77.8945 24.0352 78.079 23.9588 78.2151 23.8227C78.3511 23.6867 78.4276 23.5022 78.4276 23.3098V21.1251C78.4276 17.7738 75.8877 15.0067 72.6321 14.641V12.4176C72.6321 9.21408 75.2317 6.60736 78.4269 6.60736C81.6221 6.60736 84.2215 9.21376 84.2215 12.4176V53.0835H69.0103V53.0826C69.0103 51.081 67.385 49.4528 65.3876 49.4528H45.8273C43.8298 49.4528 42.2045 51.0813 42.2045 53.0826V53.0838H35.3232C33.1258 53.0838 31.3376 54.8752 31.3376 57.0768C31.3376 58.9005 32.5658 60.4387 34.2356 60.9146V64.7011C34.2356 71.5955 38.8253 77.433 45.1021 79.3126V82.4922C45.1021 84.2934 46.5648 85.7594 48.3633 85.7594C50.1613 85.7594 51.6237 84.2938 51.6237 82.4922V79.9504H74.8039V82.4922C74.8039 84.2934 76.2666 85.7594 78.065 85.7594C79.8631 85.7594 81.3255 84.2938 81.3255 82.4922V79.3126C87.6023 77.4326 92.1921 71.5955 92.1921 64.7011V60.9142C93.8618 60.4384 95.0893 58.9002 95.0893 57.0765C95.0893 54.8746 93.3018 53.0832 91.1044 53.0832H90.0186V12.4179C90.0186 6.01184 84.8186 0.799995 78.4266 0.799995C72.0346 0.799995 66.8346 6.01184 66.8346 12.4179V14.6413H66.8343ZM76.9767 21.1254V22.585H62.49V21.1254C62.49 18.3258 64.7674 16.048 67.5668 16.048H71.8993C74.6989 16.048 76.9767 18.3258 76.9767 21.1254ZM65.3873 50.9034C66.585 50.9034 67.5594 51.881 67.5594 53.0826V53.0835H63.2145V53.0826C63.2145 51.881 64.1892 50.9034 65.3873 50.9034ZM43.6548 68.3315H61.7639V69.785C61.7639 70.9872 60.7892 71.9648 59.5908 71.9648H45.8266C44.6288 71.9648 43.6544 70.9869 43.6544 69.785V68.3315H43.6548ZM43.6548 53.0829C43.6548 51.881 44.6292 50.9037 45.8269 50.9037H62.4916C62.0186 51.5316 61.7632 52.2967 61.7642 53.0829V53.8077L61.7639 53.8093L61.7642 53.8109V66.881H43.6551L43.6548 53.0829ZM32.7879 57.0771C32.7879 55.6752 33.9249 54.5347 35.3229 54.5347H42.2042V59.6192H35.3229C33.9249 59.6192 32.7879 58.4787 32.7879 57.0771ZM50.1729 82.4925C50.1729 83.4941 49.361 84.3091 48.3629 84.3091C47.3645 84.3091 46.5524 83.4944 46.5524 82.4925V79.6701C47.4909 79.8522 48.4586 79.9507 49.449 79.9507H50.1729V82.4925ZM79.8746 82.4925C79.8746 83.4941 79.0628 84.3091 78.0647 84.3091C77.0663 84.3091 76.2541 83.4944 76.2541 82.4925V79.9507H76.9773C77.9499 79.9501 78.9201 79.8561 79.8746 79.6701V82.4925ZM90.7412 64.7014C90.7412 72.3098 84.5668 78.5002 76.9773 78.5002H49.449C41.8599 78.5002 35.6858 72.3101 35.6858 64.7014V61.0698H42.2039V69.785C42.2039 71.7869 43.8292 73.4154 45.8266 73.4154H59.5908C61.5889 73.4154 63.2145 71.7866 63.2145 69.785V61.0698H90.7412V64.7014ZM93.6385 57.0771C93.6385 58.4787 92.5018 59.6192 91.1041 59.6192H63.2141V54.5344H91.1041C92.5018 54.5344 93.6385 55.6749 93.6385 57.0771ZM78.4263 2.25056C84.018 2.25056 88.5677 6.81152 88.5677 12.4179V53.0838H85.6717V12.4179C85.6717 8.41408 82.4215 5.15712 78.4266 5.15712C74.4314 5.15712 71.1812 8.41408 71.1812 12.4179V14.5974H68.2849V12.4179C68.2849 6.81152 72.8343 2.25056 78.4263 2.25056Z" fill="#594DA0"/>
<path d="M64.9438 37.8102C65.2386 37.8401 65.5357 37.8401 65.8305 37.8102C67.1495 37.6758 68.267 36.9078 68.8964 35.703C69.5575 34.4378 69.5422 32.9427 68.8551 31.703L66.0215 26.5898C65.9587 26.4765 65.8668 26.3822 65.7552 26.3165C65.6436 26.2508 65.5165 26.2161 65.3871 26.2161C65.2576 26.216 65.1305 26.2506 65.0189 26.3163C64.9073 26.3819 64.8153 26.4762 64.7524 26.5894L61.9182 31.703C61.2308 32.9421 61.2151 34.4374 61.8759 35.7027C62.5057 36.9078 63.6238 37.6758 64.9438 37.8102ZM63.1873 32.4067L65.3873 28.4374L67.5863 32.4064C68.0366 33.2182 68.0455 34.1997 67.611 35.0314C67.2113 35.7962 66.5089 36.2832 65.6842 36.3674C65.4868 36.3869 65.2878 36.3869 65.0903 36.3674C64.2647 36.2832 63.5623 35.7962 63.1623 35.031C62.7275 34.1994 62.7371 33.2179 63.1873 32.4067ZM74.3963 45.072C74.6911 45.1018 74.9882 45.1018 75.283 45.072C76.602 44.9376 77.7195 44.1696 78.3489 42.9648C79.01 41.6995 78.9947 40.2045 78.3076 38.9648L75.4734 33.8512C75.4106 33.738 75.3186 33.6436 75.207 33.5779C75.0955 33.5122 74.9684 33.4775 74.8389 33.4775C74.7094 33.4775 74.5823 33.5121 74.4707 33.5777C74.3591 33.6434 74.2671 33.7377 74.2043 33.8509L71.3697 38.9645C70.6826 40.2038 70.6673 41.6992 71.3284 42.9645C71.9585 44.1696 73.0763 44.9376 74.3963 45.072ZM72.6391 39.6682L74.8391 35.6989L77.0388 39.6678C77.4891 40.4797 77.498 41.4611 77.0635 42.2928C76.6638 43.0576 75.9614 43.5446 75.1367 43.6288C74.9392 43.6483 74.7403 43.6483 74.5428 43.6288C73.7172 43.5446 73.0148 43.0576 72.6148 42.2928C72.1799 41.4611 72.1889 40.48 72.6391 39.6682ZM35.6855 28.3955V13.8685C35.6855 12.6685 34.7095 11.6925 33.5095 11.6925H3.08681C2.50997 11.6932 1.95695 11.9226 1.54912 12.3306C1.14129 12.7385 0.911961 13.2916 0.911453 13.8685V28.3955C0.911453 29.5955 1.88713 30.5715 3.08681 30.5715H18.2971L18.2987 30.5718L18.3003 30.5715H33.5099C34.0867 30.5708 34.6397 30.3412 35.0476 29.9333C35.4554 29.5254 35.6849 28.9724 35.6855 28.3955ZM34.235 13.8685V28.3955C34.2347 28.5878 34.1582 28.7722 34.0222 28.9082C33.8862 29.0442 33.7019 29.1207 33.5095 29.121H19.0238V13.1434H33.5099C33.7021 13.1435 33.8865 13.22 34.0224 13.3559C34.1584 13.4919 34.2348 13.6762 34.235 13.8685ZM2.36201 28.3955V13.8685C2.36218 13.6762 2.43858 13.4919 2.57445 13.3559C2.71032 13.2199 2.89458 13.1434 3.08681 13.143H17.5735V29.1206H3.08681C2.89461 29.1204 2.71035 29.0439 2.57447 28.908C2.43859 28.772 2.36218 28.5877 2.36201 28.3955ZM49.2363 17.5021H46.0401C45.3783 17.5021 44.3774 18.0637 44.3774 18.9107V24.128C42.8827 25.1654 41.4795 27.1382 41.4795 29.4829V45.096H37.1339C36.9415 45.096 36.7569 45.1724 36.6209 45.3085C36.4848 45.4445 36.4084 45.629 36.4084 45.8214C36.4084 46.0138 36.4848 46.1984 36.6209 46.3344C36.7569 46.4704 36.9415 46.5469 37.1339 46.5469H62.4891C62.6814 46.5469 62.866 46.4704 63.002 46.3344C63.1381 46.1984 63.2145 46.0138 63.2145 45.8214C63.2145 45.629 63.1381 45.4445 63.002 45.3085C62.866 45.1724 62.6814 45.096 62.4891 45.096H57.419V36.3725C57.419 34.223 55.8494 32.4378 53.7969 32.0909V29.4829C53.7969 27.1382 52.394 25.1658 50.8996 24.128V18.9104C50.8993 18.0637 49.8983 17.5021 49.2363 17.5021ZM55.9681 36.3725V45.096H50.1742V36.3725C50.1742 34.7757 51.474 33.4762 53.0715 33.4762C54.6686 33.4758 55.9681 34.7754 55.9681 36.3725ZM52.346 29.4829V32.0909C50.2932 32.4378 48.7236 34.223 48.7236 36.3722V45.0957H42.9297V29.4829C42.9297 27.5347 44.2471 25.8707 45.4708 25.1485C45.5795 25.0844 45.6696 24.9931 45.7321 24.8835C45.7947 24.774 45.8276 24.65 45.8276 24.5238V19.048C45.8916 19.0035 45.9905 18.9574 46.0398 18.9526L49.2283 18.9523C49.283 18.9578 49.3838 19.0035 49.4484 19.0483V24.5235C49.4484 24.7802 49.5841 25.0176 49.8049 25.1482C51.0292 25.8707 52.346 27.535 52.346 29.4829ZM92.9134 87.2144H3.08745C2.51049 87.215 1.95733 87.4444 1.54933 87.8524C1.14133 88.2603 0.91181 88.8134 0.911133 89.3904V93.024C0.911133 94.224 1.88745 95.2 3.08745 95.2H92.9137C94.1137 95.2 95.0897 94.224 95.0897 93.024V89.3901C95.0889 88.8132 94.8594 88.2601 94.4514 87.8522C94.0434 87.4444 93.4903 87.215 92.9134 87.2144ZM93.6388 93.024C93.6386 93.2163 93.5621 93.4007 93.4261 93.5367C93.2901 93.6727 93.1057 93.7492 92.9134 93.7494H3.08745C2.89508 93.7493 2.71062 93.6728 2.57456 93.5368C2.4385 93.4008 2.36195 93.2164 2.36169 93.024V89.3901C2.36195 89.1977 2.4385 89.0133 2.57456 88.8773C2.71062 88.7413 2.89508 88.6648 3.08745 88.6646H92.9137C93.106 88.6649 93.2904 88.7414 93.4264 88.8774C93.5624 89.0134 93.6389 89.1978 93.6391 89.3901V93.024H93.6388ZM3.08585 8.78624H64.6023C64.7947 8.78624 64.9792 8.70981 65.1153 8.57376C65.2513 8.43771 65.3278 8.25319 65.3278 8.0608C65.3278 7.8684 65.2513 7.68388 65.1153 7.54783C64.9792 7.41179 64.7947 7.33536 64.6023 7.33536H3.08585C2.89348 7.33476 2.70919 7.25788 2.57343 7.12158C2.43767 6.98528 2.36152 6.80069 2.36169 6.60831V2.9776C2.36152 2.78522 2.43767 2.60063 2.57343 2.46433C2.70919 2.32803 2.89348 2.25115 3.08585 2.25056H69.009C69.1988 2.24657 69.3794 2.16841 69.5121 2.03282C69.6449 1.89724 69.7193 1.71504 69.7193 1.52528C69.7193 1.33552 69.6449 1.15331 69.5121 1.01773C69.3794 0.882145 69.1988 0.803981 69.009 0.799995H3.08585C1.88681 0.799995 0.911133 1.77696 0.911133 2.9776V6.60831C0.911133 7.80928 1.88681 8.78624 3.08585 8.78624Z" fill="#594DA0"/>
</svg>
