<svg width="96" height="95" viewBox="0 0 96 95" fill="none" xmlns="http://www.w3.org/2000/svg">
<path d="M5.50818 55.082H45.8596C46.021 55.0754 46.1803 55.0435 46.3318 54.9875C47.8267 57.8405 49.5871 60.5462 51.5897 63.0689L48.2848 66.3738C47.7259 66.1745 47.1219 66.1374 46.5427 66.2666C45.9636 66.3958 45.4327 66.6861 45.0114 67.104L29.1163 82.9991C27.9362 84.1796 27.2732 85.7805 27.2732 87.4497C27.2732 89.1189 27.9362 90.7198 29.1163 91.9003L30.0716 92.8556C31.2521 94.0357 32.853 94.6987 34.5222 94.6987C36.1914 94.6987 37.7923 94.0357 38.9728 92.8556L54.8679 76.9605C55.2861 76.5394 55.5767 76.0086 55.7062 75.4294C55.8357 74.8502 55.7988 74.2462 55.5997 73.6871L58.9046 70.3822C63.7492 74.1877 69.2122 77.1316 75.0547 79.0851C75.6995 79.2985 76.3806 79.3806 77.0577 79.3266C77.7347 79.2725 78.3941 79.0834 78.997 78.7704C79.6076 78.4596 80.1501 78.0301 80.5925 77.5069C81.0349 76.9837 81.3683 76.3774 81.5732 75.7235L94.9817 33.4914C95.2623 32.5871 95.2903 31.6234 95.0628 30.7043C94.8353 29.7853 94.3608 28.9459 93.6908 28.277C93.0207 27.6081 92.1805 27.1351 91.2611 26.9091C90.3417 26.6831 89.378 26.7128 88.4742 26.9949L69.8754 32.8918C69.2607 26.4416 66.6869 20.3341 62.4996 15.3895C58.3123 10.4449 52.7122 6.90006 46.4514 5.23121V4.72131C46.4514 3.46914 45.954 2.26826 45.0685 1.38284C44.1831 0.497422 42.9822 0 41.7301 0L35.4256 0C34.1734 0 32.9725 0.497422 32.0871 1.38284C31.2017 2.26826 30.7042 3.46914 30.7042 4.72131V5.22492C23.8894 7.03644 17.8703 11.0623 13.594 16.6692C9.31763 22.276 7.02681 29.1455 7.08195 36.1967V37.7705H5.50818C4.25601 37.7705 3.05512 38.2679 2.16971 39.1533C1.28429 40.0387 0.786865 41.2396 0.786865 42.4918L0.786865 50.3607C0.786865 51.6128 1.28429 52.8137 2.16971 53.6991C3.05512 54.5845 4.25601 55.082 5.50818 55.082ZM36.7365 90.6366C36.1371 91.2092 35.3401 91.5287 34.5112 91.5287C33.6823 91.5287 32.8853 91.2092 32.2859 90.6366L31.3306 89.6813C30.7405 89.0911 30.409 88.2906 30.409 87.456C30.409 86.6214 30.7405 85.8209 31.3306 85.2307L47.2257 69.3356L52.63 74.7399L36.7365 90.6366ZM53.5884 71.2414L50.7257 68.3788L65.1934 53.9127C65.4885 53.6176 65.8888 53.4519 66.3061 53.4519C66.7234 53.4519 67.1236 53.6176 67.4187 53.9127L68.0482 54.5422C68.3433 54.8373 68.509 55.2375 68.509 55.6548C68.509 56.0721 68.3433 56.4723 68.0482 56.7675L53.5884 71.2414ZM89.4122 29.9992C89.7668 29.8903 90.1443 29.8799 90.5044 29.969C90.8644 30.0581 91.1935 30.2435 91.4563 30.5052C91.7192 30.7669 91.906 31.0952 91.9966 31.4548C92.0873 31.8145 92.0785 32.1921 91.9711 32.5471L78.5658 74.7746C78.4866 75.0279 78.3581 75.2631 78.1878 75.4667C78.0174 75.6703 77.8085 75.8382 77.573 75.9607C77.3376 76.0833 77.0802 76.1581 76.8157 76.1808C76.5513 76.2036 76.2849 76.1739 76.032 76.0934C70.6568 74.2973 65.6218 71.6102 61.1378 68.1443L70.2798 59.0022C71.165 58.1169 71.6622 56.9162 71.6622 55.6643C71.6622 54.4123 71.165 53.2117 70.2798 52.3263L69.6503 51.6968C68.765 50.8117 67.5643 50.3144 66.3124 50.3144C65.0604 50.3144 63.8598 50.8117 62.9744 51.6968L53.8229 60.8294C50.3559 56.3456 47.6677 51.3106 45.8707 45.9352C45.79 45.682 45.7602 45.4153 45.7831 45.1505C45.8059 44.8857 45.8809 44.628 46.0038 44.3923C46.1267 44.1567 46.295 43.9476 46.4991 43.7773C46.7031 43.607 46.9388 43.4787 47.1926 43.3999L89.4122 29.9992ZM10.2295 36.1495C10.2169 31.762 11.2021 27.4291 13.1107 23.4784C15.0192 19.5278 17.8011 16.0628 21.2459 13.3456V25.2433C21.2459 25.6607 21.4117 26.061 21.7068 26.3561C22.002 26.6512 22.4023 26.817 22.8197 26.817C23.237 26.817 23.6373 26.6512 23.9325 26.3561C24.2276 26.061 24.3934 25.6607 24.3934 25.2433V11.2178C26.3736 10.0431 28.4939 9.12256 30.7042 8.4779V15.4938C30.7042 15.9112 30.87 16.3115 31.1652 16.6066C31.4603 16.9017 31.8606 17.0675 32.278 17.0675C32.6954 17.0675 33.0957 16.9017 33.3908 16.6066C33.686 16.3115 33.8518 15.9112 33.8518 15.4938V4.72131C33.8518 4.30392 34.0176 3.90363 34.3127 3.60849C34.6079 3.31335 35.0082 3.14754 35.4256 3.14754H41.7301C42.1475 3.14754 42.5478 3.31335 42.8429 3.60849C43.138 3.90363 43.3038 4.30392 43.3038 4.72131V15.4938C43.3038 15.9112 43.4697 16.3115 43.7648 16.6066C44.0599 16.9017 44.4602 17.0675 44.8776 17.0675C45.295 17.0675 45.6953 16.9017 45.9904 16.6066C46.2856 16.3115 46.4514 15.9112 46.4514 15.4938V8.48577C48.6475 9.13024 50.754 10.0481 52.7213 11.2178V25.2433C52.7213 25.6607 52.8871 26.061 53.1822 26.3561C53.4774 26.6512 53.8777 26.817 54.2951 26.817C54.7124 26.817 55.1127 26.6512 55.4079 26.3561C55.703 26.061 55.8688 25.6607 55.8688 25.2433V13.3471C59.0105 15.8273 61.6035 18.9322 63.484 22.4657C65.3645 25.9991 66.4915 29.8842 66.7939 33.8754L54.5248 37.7705H10.2295V36.1495ZM3.93441 42.4918C3.93441 42.0744 4.10021 41.6741 4.39535 41.379C4.69049 41.0838 5.09079 40.918 5.50818 40.918H45.1326C44.131 41.5133 43.3624 42.4322 42.9535 43.5232C42.5446 44.6142 42.52 45.8119 42.8837 46.9188C43.4502 48.6232 44.1049 50.2961 44.8414 51.9344H5.50818C5.09079 51.9344 4.69049 51.7686 4.39535 51.4735C4.10021 51.1783 3.93441 50.778 3.93441 50.3607V42.4918Z" fill="#594DA0"/>
</svg>
