<svg width="18" height="16" viewBox="0 0 18 16" fill="none" xmlns="http://www.w3.org/2000/svg">
<path d="M4.83335 6.95834H1.50002C1.11338 6.9579 0.742705 6.80411 0.46931 6.53071C0.195915 6.25732 0.0421281 5.88664 0.041687 5.5V2.16667C0.0421281 1.78003 0.195915 1.40935 0.46931 1.13596C0.742705 0.862564 1.11338 0.708777 1.50002 0.708336H4.83335C5.21999 0.708777 5.59067 0.862564 5.86406 1.13596C6.13746 1.40935 6.29125 1.78003 6.29169 2.16667V5.5C6.29125 5.88664 6.13746 6.25732 5.86406 6.53071C5.59067 6.80411 5.21999 6.9579 4.83335 6.95834ZM1.50002 1.95834C1.44477 1.95834 1.39178 1.98029 1.35271 2.01936C1.31364 2.05843 1.29169 2.11142 1.29169 2.16667V5.5C1.29169 5.55526 1.31364 5.60825 1.35271 5.64732C1.39178 5.68639 1.44477 5.70834 1.50002 5.70834H4.83335C4.88861 5.70834 4.9416 5.68639 4.98067 5.64732C5.01974 5.60825 5.04169 5.55526 5.04169 5.5V2.16667C5.04169 2.11142 5.01974 2.05843 4.98067 2.01936C4.9416 1.98029 4.88861 1.95834 4.83335 1.95834H1.50002ZM4.83335 15.2917H1.50002C1.11338 15.2912 0.742705 15.1374 0.46931 14.864C0.195915 14.5907 0.0421281 14.22 0.041687 13.8333V10.5C0.0421281 10.1134 0.195915 9.74269 0.46931 9.46929C0.742705 9.1959 1.11338 9.04211 1.50002 9.04167H4.83335C5.21999 9.04211 5.59067 9.1959 5.86406 9.46929C6.13746 9.74269 6.29125 10.1134 6.29169 10.5V13.8333C6.29125 14.22 6.13746 14.5907 5.86406 14.864C5.59067 15.1374 5.21999 15.2912 4.83335 15.2917ZM1.50002 10.2917C1.44477 10.2917 1.39178 10.3136 1.35271 10.3527C1.31364 10.3918 1.29169 10.4447 1.29169 10.5V13.8333C1.29169 13.8886 1.31364 13.9416 1.35271 13.9807C1.39178 14.0197 1.44477 14.0417 1.50002 14.0417H4.83335C4.88861 14.0417 4.9416 14.0197 4.98067 13.9807C5.01974 13.9416 5.04169 13.8886 5.04169 13.8333V10.5C5.04169 10.4447 5.01974 10.3918 4.98067 10.3527C4.9416 10.3136 4.88861 10.2917 4.83335 10.2917H1.50002ZM17.3334 2.79167H9.00002C8.83426 2.79167 8.67529 2.72582 8.55808 2.60861C8.44087 2.4914 8.37502 2.33243 8.37502 2.16667C8.37502 2.00091 8.44087 1.84194 8.55808 1.72473C8.67529 1.60752 8.83426 1.54167 9.00002 1.54167H17.3334C17.4991 1.54167 17.6581 1.60752 17.7753 1.72473C17.8925 1.84194 17.9584 2.00091 17.9584 2.16667C17.9584 2.33243 17.8925 2.4914 17.7753 2.60861C17.6581 2.72582 17.4991 2.79167 17.3334 2.79167ZM14 6.125H9.00002C8.83426 6.125 8.67529 6.05915 8.55808 5.94194C8.44087 5.82473 8.37502 5.66576 8.37502 5.5C8.37502 5.33424 8.44087 5.17527 8.55808 5.05806C8.67529 4.94085 8.83426 4.875 9.00002 4.875H14C14.1658 4.875 14.3248 4.94085 14.442 5.05806C14.5592 5.17527 14.625 5.33424 14.625 5.5C14.625 5.66576 14.5592 5.82473 14.442 5.94194C14.3248 6.05915 14.1658 6.125 14 6.125ZM17.3334 11.125H9.00002C8.83426 11.125 8.67529 11.0592 8.55808 10.9419C8.44087 10.8247 8.37502 10.6658 8.37502 10.5C8.37502 10.3342 8.44087 10.1753 8.55808 10.0581C8.67529 9.94085 8.83426 9.875 9.00002 9.875H17.3334C17.4991 9.875 17.6581 9.94085 17.7753 10.0581C17.8925 10.1753 17.9584 10.3342 17.9584 10.5C17.9584 10.6658 17.8925 10.8247 17.7753 10.9419C17.6581 11.0592 17.4991 11.125 17.3334 11.125ZM14 14.4583H9.00002C8.83426 14.4583 8.67529 14.3925 8.55808 14.2753C8.44087 14.1581 8.37502 13.9991 8.37502 13.8333C8.37502 13.6676 8.44087 13.5086 8.55808 13.3914C8.67529 13.2742 8.83426 13.2083 9.00002 13.2083H14C14.1658 13.2083 14.3248 13.2742 14.442 13.3914C14.5592 13.5086 14.625 13.6676 14.625 13.8333C14.625 13.9991 14.5592 14.1581 14.442 14.2753C14.3248 14.3925 14.1658 14.4583 14 14.4583Z" fill="white"/>
</svg>
