<svg width="96" height="76" viewBox="0 0 96 76" fill="none" xmlns="http://www.w3.org/2000/svg">
<path d="M95.5013 0.331937C95.2163 0.0912841 94.8475 -0.0263318 94.4759 0.00496313C94.1042 0.0362581 93.7602 0.2139 93.5196 0.498811L76.4681 20.6864L74.3764 18.9196C73.152 17.8853 71.3141 18.0402 70.2795 19.2644L67.416 22.6547C66.5332 22.4877 65.6366 22.4039 64.7381 22.4042C63.4336 22.4033 62.1351 22.5807 60.8786 22.9315L52.7558 19.3304C52.587 19.2554 52.405 19.2145 52.2204 19.2099C52.0358 19.2053 51.852 19.2371 51.6797 19.3036C51.5074 19.37 51.3499 19.4698 51.2161 19.5971C51.0824 19.7245 50.975 19.877 50.9003 20.0459C50.7491 20.3868 50.7396 20.7738 50.8737 21.1218C51.0079 21.4698 51.2748 21.7502 51.6158 21.9014L57.3621 24.4487C55.9827 25.2794 54.7517 26.3346 53.7199 27.5708L42.9482 22.7954C42.7687 22.7159 42.5745 22.6749 42.3782 22.6749C42.1819 22.6749 41.9877 22.7159 41.8082 22.7954L12.3878 35.8384L10.6328 31.8797L41.5007 18.1952C41.7771 18.073 42.076 18.0099 42.3782 18.0099C42.6804 18.0099 42.9793 18.073 43.2557 18.1952L46.6166 19.6851C46.7858 19.7623 46.9686 19.8052 47.1545 19.8113C47.3403 19.8174 47.5256 19.7866 47.6994 19.7206C47.8733 19.6547 48.0324 19.5549 48.1674 19.427C48.3024 19.2992 48.4108 19.1458 48.4861 18.9758C48.5615 18.8058 48.6024 18.6225 48.6065 18.4366C48.6105 18.2507 48.5777 18.0658 48.5098 17.8927C48.442 17.7195 48.3404 17.5616 48.2111 17.4279C48.0818 17.2943 47.9273 17.1876 47.7564 17.1141L44.3955 15.6242C43.7601 15.3432 43.0729 15.198 42.3781 15.198C41.6833 15.198 40.9961 15.3432 40.3607 15.6242L29.7375 20.3337V17.0914C29.7375 16.0469 28.8878 15.1969 27.843 15.1969H21.9664C20.9218 15.1969 20.0719 16.0469 20.0719 17.0914V24.6186L8.99137 29.5309C8.71913 29.6508 8.47336 29.8234 8.26828 30.0388C8.0632 30.2543 7.90289 30.5082 7.79663 30.7861C7.6888 31.0633 7.63705 31.3591 7.64439 31.6565C7.65173 31.9539 7.718 32.2468 7.83938 32.5184L10.0388 37.4792C10.1585 37.7516 10.3311 37.9975 10.5465 38.2027C10.762 38.4078 11.016 38.5682 11.2939 38.6746C11.5584 38.7766 11.8341 38.8274 12.1093 38.8274C12.4213 38.8274 12.7326 38.7619 13.0264 38.6318L15.0632 37.7288V45.4186C15.0632 46.1954 15.6926 46.8248 16.4694 46.8248C17.2463 46.8248 17.8757 46.1954 17.8757 45.4186V36.4819L42.3784 25.6191L52.1147 29.9356C51.9337 30.2694 51.7661 30.6104 51.6122 30.9576L48.2079 31.0943L46.2098 29.0329C46.082 28.897 45.9286 28.7878 45.7582 28.7117C45.5879 28.6356 45.4042 28.5942 45.2177 28.5898C45.0312 28.5854 44.8457 28.6182 44.672 28.6862C44.4983 28.7542 44.3399 28.8561 44.206 28.986C44.072 29.1158 43.9652 29.271 43.8919 29.4425C43.8185 29.614 43.78 29.7983 43.7785 29.9849C43.7771 30.1714 43.8128 30.3564 43.8835 30.529C43.9543 30.7016 44.0586 30.8584 44.1906 30.9902L46.6264 33.5031C46.7641 33.6452 46.9302 33.7567 47.1139 33.8302C47.2976 33.9036 47.4948 33.9375 47.6925 33.9295L50.6933 33.8091C50.4867 34.7972 50.3851 35.8044 50.3899 36.8138L44.5284 37.9128C44.1821 37.9776 43.8727 38.1702 43.6616 38.4523C43.4505 38.7345 43.353 39.0856 43.3884 39.4362L43.6742 42.2669L41.1941 42.7906C41.0134 42.8287 40.842 42.902 40.6896 43.0064C40.5373 43.1107 40.407 43.2441 40.3062 43.3988C40.2054 43.5536 40.1361 43.7267 40.1022 43.9082C40.0683 44.0897 40.0705 44.2762 40.1087 44.4569C40.1752 44.7722 40.3481 45.0551 40.5982 45.2583C40.8484 45.4615 41.1608 45.5726 41.4831 45.5731C41.5794 45.5731 41.6771 45.5629 41.775 45.5423L45.4905 44.7578C45.8299 44.6862 46.1308 44.4916 46.3355 44.2116C46.5401 43.9315 46.6341 43.5857 46.5992 43.2406L46.3163 40.4389L50.6775 39.6211C50.7921 40.1836 50.9396 40.7341 51.1181 41.2707C49.6352 41.9933 48.6171 43.5203 48.6171 45.2566V53.1816C48.6171 54.4307 49.6333 55.447 50.8824 55.447H58.9931C60.2423 55.447 61.2585 54.4307 61.2585 53.1816V50.6747C61.8518 50.823 62.4541 50.9329 63.0615 51.004L62.8279 54.7296L59.3378 57.3711C59.0403 57.5961 58.8445 57.9301 58.7933 58.2995C58.7421 58.6689 58.8397 59.0436 59.0648 59.341L60.7573 61.5784C60.8884 61.752 61.0581 61.8927 61.2529 61.9895C61.4477 62.0863 61.6623 62.1366 61.8799 62.1362C62.1415 62.136 62.3978 62.0629 62.6201 61.925C62.8424 61.7871 63.0218 61.5899 63.1382 61.3557C63.2546 61.1214 63.3034 60.8594 63.279 60.5989C63.2547 60.3385 63.1582 60.09 63.0004 59.8814L62.1561 58.7656L65.0394 56.5834C65.2009 56.4613 65.334 56.3057 65.4298 56.1273C65.5256 55.9489 65.5818 55.752 65.5944 55.5499L65.8761 51.0573C66.2123 51.0309 66.5475 50.9928 66.8811 50.9429V72.5924H49.9369V62.5096C49.9369 60.7529 48.5078 59.3237 46.7513 59.3237H38.0059C36.2492 59.3237 34.8201 60.7529 34.8201 62.5096V72.5924H23.7163C24.8728 71.1994 25.5216 69.4281 25.5216 67.6026C25.5229 65.6819 24.8144 63.8284 23.5322 62.3982C23.4868 62.3474 23.466 62.2795 23.4808 62.2296C23.6732 61.5792 23.754 60.9009 23.7199 60.2236C23.5712 57.211 21.0977 54.7092 18.0889 54.5281C18.018 54.5239 17.947 54.521 17.8761 54.5192V50.8564C17.8761 50.0796 17.2466 49.4502 16.4698 49.4502C15.693 49.4502 15.0636 50.0796 15.0636 50.8564V55.1318C14.0587 55.6302 13.2127 56.3988 12.6205 57.3515C12.0284 58.3041 11.7137 59.403 11.7116 60.5247C11.7116 61.0831 11.7887 61.6367 11.9411 62.1715C11.9533 62.2144 11.9739 62.323 11.9016 62.404C10.4906 63.9818 9.79238 66.019 9.93525 68.1404C10.0487 69.8247 10.7036 71.3669 11.7264 72.5926H1.40625C0.629438 72.5926 0 73.222 0 73.9988C0 74.7756 0.629438 75.4051 1.40625 75.4051H83.3503C84.1271 75.4051 84.7566 74.7756 84.7566 73.9988C84.7566 73.222 84.1271 72.5926 83.3503 72.5926H69.6934V50.2257C73.008 49.0101 75.8076 46.5884 77.4919 43.3259C77.5766 43.1618 77.6282 42.9826 77.6436 42.7986C77.6591 42.6146 77.6382 42.4293 77.582 42.2534C77.5259 42.0775 77.4357 41.9143 77.3165 41.7733C77.1973 41.6323 77.0515 41.5161 76.8874 41.4314C76.7233 41.3466 76.5441 41.2951 76.3601 41.2796C76.1761 41.2641 75.9908 41.285 75.8149 41.3411C75.639 41.3973 75.4758 41.4875 75.3348 41.6067C75.1937 41.7259 75.0776 41.8718 74.9929 42.0359C73.0013 45.8933 69.072 48.2897 64.7383 48.2897C58.377 48.2897 53.202 43.1146 53.202 36.7534C53.202 30.3923 58.3772 25.2171 64.7383 25.2171C71.2888 25.2171 76.5951 30.7077 76.2591 37.3549C76.2401 37.7274 76.3698 38.0921 76.6198 38.3689C76.8697 38.6457 77.2194 38.8119 77.5918 38.8309C77.7763 38.8407 77.9609 38.8139 78.1351 38.7522C78.3092 38.6904 78.4694 38.5949 78.6066 38.471C78.7437 38.3472 78.855 38.1975 78.9342 38.0306C79.0133 37.8637 79.0587 37.6827 79.0678 37.4982C79.1685 35.5306 78.8709 33.5845 78.1896 31.7562L81.0533 28.3656C82.0901 27.1386 81.9366 25.3058 80.7086 24.2686L78.6167 22.5016L95.6679 2.31419C95.9087 2.0292 96.0263 1.66027 95.995 1.28855C95.9638 0.916819 95.7862 0.572726 95.5013 0.331937ZM22.8844 18.0092H26.925V21.5804L22.8844 23.3717V18.0092ZM13.9976 64.2784C14.6949 63.4986 14.937 62.4226 14.6453 61.4003C14.5644 61.1153 14.5235 60.8205 14.5238 60.5243C14.5238 59.6344 14.8808 58.8081 15.5291 58.1976C17.52 56.3224 20.7782 57.6848 20.9102 60.3616C20.9286 60.7225 20.8858 61.0839 20.7834 61.4305V61.4311C20.4934 62.4113 20.7437 63.5007 21.4369 64.2745C22.2565 65.1891 22.7093 66.3743 22.7085 67.6024C22.7085 69.0006 22.1453 70.2962 21.1226 71.251C18.0563 74.1139 13.0215 72.1199 12.7408 67.951C12.6493 66.5914 13.0958 65.2872 13.9976 64.2784ZM37.6324 72.5924V62.5096C37.6324 62.3037 37.8 62.1362 38.0057 62.1362H46.7511C46.9569 62.1362 47.1242 62.3039 47.1242 62.5096V72.5924H37.6324ZM58.4458 49.6471V52.6349H51.4294V45.2569C51.4294 44.653 51.7663 44.1186 52.2656 43.8413C53.6986 46.3512 55.8514 48.3735 58.4458 49.6471ZM78.9049 26.5499L76.8197 29.0187C75.2681 26.6035 73.0127 24.6816 70.3455 23.545L72.4283 21.0792C72.4362 21.0697 72.446 21.0618 72.4571 21.0561C72.4681 21.0504 72.4802 21.0469 72.4926 21.0458C72.505 21.0448 72.5174 21.0462 72.5293 21.05C72.5411 21.0538 72.5521 21.0599 72.5616 21.0679L78.8938 26.4164C78.9034 26.4244 78.9113 26.4342 78.917 26.4452C78.9227 26.4563 78.9262 26.4684 78.9272 26.4808C78.9283 26.4932 78.9268 26.5057 78.923 26.5176C78.9192 26.5294 78.913 26.5404 78.9049 26.5499Z" fill="#594DA0"/>
</svg>
