<svg width="18" height="20" viewBox="0 0 18 20" fill="none" xmlns="http://www.w3.org/2000/svg">
<path fill-rule="evenodd" clip-rule="evenodd" d="M2.98831 13.7454L4.69198 16.7556L4.89776 16.6368C4.96903 16.5958 5.05368 16.5847 5.13311 16.606L9.67757 17.8227C10.3453 18.0017 10.7257 17.8842 11.3158 17.5835L17.5588 13.7393C17.8735 13.5455 17.9138 13.0152 17.7273 12.7148C17.3146 12.05 16.1673 12.607 15.6932 12.8831L12.2409 14.8939C11.4621 15.3474 10.8803 15.2623 10.09 15.1338L7.75272 14.5188C7.67328 14.497 7.60569 14.4446 7.5647 14.3732C7.5237 14.3017 7.51264 14.2169 7.5339 14.1373C7.55517 14.0577 7.60705 13.9898 7.67823 13.9483C7.74941 13.9068 7.83411 13.8951 7.91386 13.9158C8.66018 14.1158 9.39999 14.3561 10.1566 14.5126C10.538 14.5593 10.8524 14.4398 10.9583 14.0446C11.0542 13.6866 10.8284 13.3493 10.4904 13.2321C9.45327 13.0423 8.44702 12.6785 7.65569 12.3923C6.51065 11.9782 6.20577 11.8824 5.07679 12.536L2.98831 13.7454ZM11.4191 3.70965C10.8952 3.70964 10.3832 3.86506 9.94769 4.15624C9.51222 4.44743 9.17294 4.86127 8.97281 5.34538C8.77267 5.82949 8.72068 6.36211 8.82341 6.87579C8.92614 7.38946 9.17898 7.86111 9.54991 8.23102C9.61619 7.78265 9.84143 7.37305 10.1846 7.07692C10.5277 6.78079 10.9658 6.61787 11.4191 6.61787C11.8723 6.61787 12.3104 6.78079 12.6535 7.07692C12.9967 7.37305 13.2219 7.78265 13.2882 8.23102C13.6591 7.86112 13.912 7.38948 14.0147 6.8758C14.1174 6.36213 14.0654 5.82953 13.8653 5.34542C13.6652 4.86131 13.3259 4.44746 12.8905 4.15628C12.455 3.86509 11.9429 3.70965 11.4191 3.70965ZM11.4191 6.22699C11.2301 6.22699 11.0454 6.17096 10.8883 6.06599C10.7312 5.96102 10.6088 5.81182 10.5365 5.63725C10.4642 5.46269 10.4453 5.27061 10.4821 5.08529C10.519 4.89998 10.61 4.72976 10.7436 4.59616C10.8772 4.46256 11.0474 4.37158 11.2327 4.33472C11.4181 4.29786 11.6101 4.31679 11.7847 4.3891C11.9593 4.46141 12.1085 4.58386 12.2134 4.74096C12.3184 4.89807 12.3744 5.08277 12.3744 5.27172C12.3744 5.39717 12.3497 5.52139 12.3017 5.6373C12.2537 5.7532 12.1833 5.85851 12.0946 5.94721C12.0059 6.03592 11.9006 6.10628 11.7847 6.15429C11.6688 6.20229 11.5445 6.227 11.4191 6.22699ZM4.74522 18.1184L2.00632 13.2789C1.94218 13.1664 1.83611 13.0838 1.71127 13.0492C1.58644 13.0146 1.45299 13.0308 1.34007 13.0943L0.408465 13.6216C0.295912 13.6858 0.213312 13.7918 0.178708 13.9167C0.144103 14.0415 0.160306 14.175 0.223778 14.2879L2.96268 19.1274C3.02682 19.2399 3.13288 19.3225 3.25772 19.3571C3.38255 19.3917 3.51601 19.3755 3.62893 19.3121L4.56058 18.7847C4.67314 18.7206 4.75575 18.6145 4.79034 18.4897C4.82494 18.3648 4.80872 18.2314 4.74522 18.1184ZM1.47448 14.6626C1.40939 14.6721 1.34293 14.6621 1.28352 14.6339C1.22412 14.6056 1.17442 14.5604 1.14072 14.5039C1.10702 14.4474 1.09083 14.3822 1.0942 14.3165C1.09756 14.2508 1.12034 14.1875 1.15964 14.1348C1.19894 14.082 1.253 14.0421 1.31499 14.0201C1.37697 13.9981 1.4441 13.9949 1.50788 14.011C1.57166 14.0271 1.62923 14.0618 1.6733 14.1106C1.71738 14.1595 1.74598 14.2203 1.7555 14.2854C1.76181 14.3286 1.75956 14.3727 1.74885 14.415C1.73815 14.4574 1.71921 14.4972 1.69312 14.5322C1.66702 14.5672 1.63428 14.5968 1.59677 14.6192C1.55926 14.6415 1.5177 14.6563 1.47448 14.6626ZM16.201 5.21551C16.0805 4.70937 15.88 4.2257 15.6071 3.78273L16.0204 2.85227L14.9235 1.75527L13.9927 2.16867C13.5499 1.89587 13.0664 1.69544 12.5604 1.57492L12.1948 0.625H10.6434L10.2778 1.57484C9.77178 1.69535 9.28827 1.89579 8.84542 2.16859L7.9146 1.75527L6.81761 2.8523L7.23097 3.78297C6.95814 4.22586 6.7577 4.70943 6.63722 5.21547L5.68753 5.58105V7.13242L6.63714 7.49793C6.7576 8.00406 6.95803 8.48773 7.23089 8.9307L6.81761 9.86117L7.91464 10.9582L8.84542 10.5448C9.28827 10.8176 9.77181 11.018 10.2778 11.1385L10.6434 12.0884H12.1948L12.5603 11.1388C13.0664 11.0183 13.5501 10.8179 13.993 10.545L14.9235 10.9583L16.0205 9.86129L15.6071 8.93047C15.8799 8.48762 16.0804 8.0041 16.2009 7.49813L17.1507 7.13254V5.58102L16.201 5.21551ZM11.4191 9.62891C10.7719 9.62891 10.1393 9.437 9.60123 9.07746C9.06314 8.71792 8.64375 8.2069 8.39609 7.609C8.14844 7.01111 8.08364 6.35321 8.20989 5.71849C8.33615 5.08377 8.64778 4.50074 9.10539 4.04313C9.56299 3.58553 10.146 3.27389 10.7807 3.14764C11.4155 3.02138 12.0734 3.08618 12.6713 3.33384C13.2691 3.58149 13.7802 4.00088 14.1397 4.53897C14.4993 5.07706 14.6912 5.70968 14.6912 6.35684C14.6911 7.22462 14.3463 8.05683 13.7327 8.67045C13.1191 9.28406 12.2869 9.62882 11.4191 9.62891Z" fill="white"/>
</svg>
