<svg width="18" height="20" viewBox="0 0 18 20" fill="none" xmlns="http://www.w3.org/2000/svg">
<path fill-rule="evenodd" clip-rule="evenodd" d="M2.98807 13.7454L4.69174 16.7556L4.89752 16.6368C4.96878 16.5958 5.05344 16.5847 5.13287 16.606L9.67732 17.8227C10.345 18.0017 10.7255 17.8842 11.3156 17.5835L17.5585 13.7393C17.8732 13.5455 17.9136 13.0152 17.7271 12.7148C17.3144 12.05 16.167 12.607 15.6929 12.8831L12.2406 14.8939C11.4619 15.3474 10.8801 15.2623 10.0897 15.1338L7.75248 14.5188C7.67303 14.497 7.60544 14.4446 7.56445 14.3732C7.52346 14.3017 7.51239 14.2169 7.53366 14.1373C7.55493 14.0577 7.60681 13.9898 7.67799 13.9483C7.74916 13.9068 7.83386 13.8951 7.91361 13.9158C8.65994 14.1158 9.39974 14.3561 10.1564 14.5126C10.5377 14.5593 10.8522 14.4398 10.9581 14.0446C11.054 13.6866 10.8281 13.3493 10.4901 13.2321C9.45303 13.0423 8.44678 12.6785 7.65545 12.3923C6.51041 11.9782 6.20553 11.8824 5.07654 12.536L2.98807 13.7454ZM11.4188 3.70965C10.895 3.70964 10.3829 3.86506 9.94745 4.15624C9.51198 4.44743 9.1727 4.86127 8.97256 5.34538C8.77242 5.82949 8.72043 6.36211 8.82316 6.87579C8.92589 7.38946 9.17873 7.86111 9.54967 8.23102C9.61595 7.78265 9.84119 7.37305 10.1843 7.07692C10.5274 6.78079 10.9656 6.61787 11.4188 6.61787C11.872 6.61787 12.3102 6.78079 12.6533 7.07692C12.9964 7.37305 13.2217 7.78265 13.2879 8.23102C13.6589 7.86112 13.9117 7.38948 14.0144 6.8758C14.1172 6.36213 14.0652 5.82953 13.8651 5.34542C13.6649 4.86131 13.3257 4.44746 12.8902 4.15628C12.4548 3.86509 11.9427 3.70965 11.4188 3.70965ZM11.4188 6.22699C11.2299 6.22699 11.0452 6.17096 10.8881 6.06599C10.731 5.96102 10.6086 5.81182 10.5362 5.63725C10.4639 5.46269 10.445 5.27061 10.4819 5.08529C10.5188 4.89998 10.6097 4.72976 10.7434 4.59616C10.877 4.46256 11.0472 4.37158 11.2325 4.33472C11.4178 4.29786 11.6099 4.31679 11.7845 4.3891C11.959 4.46141 12.1082 4.58386 12.2132 4.74096C12.3181 4.89807 12.3742 5.08277 12.3742 5.27172C12.3742 5.39717 12.3494 5.52139 12.3014 5.6373C12.2534 5.7532 12.1831 5.85851 12.0944 5.94721C12.0056 6.03592 11.9003 6.10628 11.7844 6.15429C11.6685 6.20229 11.5443 6.227 11.4188 6.22699ZM4.74498 18.1184L2.00607 13.2789C1.94193 13.1664 1.83586 13.0838 1.71103 13.0492C1.5862 13.0146 1.45274 13.0308 1.33982 13.0943L0.408221 13.6216C0.295668 13.6858 0.213068 13.7918 0.178463 13.9167C0.143859 14.0415 0.160062 14.175 0.223534 14.2879L2.96244 19.1274C3.02657 19.2399 3.13264 19.3225 3.25747 19.3571C3.38231 19.3917 3.51576 19.3755 3.62869 19.3121L4.56033 18.7847C4.6729 18.7206 4.7555 18.6145 4.7901 18.4897C4.8247 18.3648 4.80848 18.2314 4.74498 18.1184ZM1.47424 14.6626C1.40914 14.6721 1.34269 14.6621 1.28328 14.6339C1.22387 14.6056 1.17417 14.5604 1.14047 14.5039C1.10677 14.4474 1.09058 14.3822 1.09395 14.3165C1.09732 14.2508 1.12009 14.1875 1.15939 14.1348C1.19869 14.082 1.25276 14.0421 1.31474 14.0201C1.37673 13.9981 1.44386 13.9949 1.50764 14.011C1.57142 14.0271 1.62898 14.0618 1.67306 14.1106C1.71713 14.1595 1.74574 14.2203 1.75525 14.2854C1.76157 14.3286 1.75931 14.3727 1.74861 14.415C1.73791 14.4574 1.71897 14.4972 1.69287 14.5322C1.66678 14.5672 1.63404 14.5968 1.59652 14.6192C1.55901 14.6415 1.51746 14.6563 1.47424 14.6626ZM16.2008 5.21551C16.0803 4.70937 15.8798 4.2257 15.6069 3.78273L16.0201 2.85227L14.9233 1.75527L13.9925 2.16867C13.5496 1.89587 13.0661 1.69544 12.5601 1.57492L12.1945 0.625H10.6431L10.2775 1.57484C9.77154 1.69535 9.28802 1.89579 8.84517 2.16859L7.91435 1.75527L6.81736 2.8523L7.23072 3.78297C6.95789 4.22586 6.75746 4.70943 6.63697 5.21547L5.68728 5.58105V7.13242L6.63689 7.49793C6.75735 8.00406 6.95779 8.48773 7.23064 8.9307L6.81736 9.86117L7.91439 10.9582L8.84517 10.5448C9.28803 10.8176 9.77156 11.018 10.2776 11.1385L10.6431 12.0884H12.1945L12.5601 11.1388C13.0662 11.0183 13.5498 10.8179 13.9928 10.545L14.9233 10.9583L16.0203 9.86129L15.6069 8.93047C15.8797 8.48762 16.0801 8.0041 16.2006 7.49813L17.1504 7.13254V5.58102L16.2008 5.21551ZM11.4188 9.62891C10.7717 9.62891 10.1391 9.437 9.60098 9.07746C9.06289 8.71792 8.6435 8.2069 8.39585 7.609C8.14819 7.01111 8.08339 6.35321 8.20965 5.71849C8.3359 5.08377 8.64754 4.50074 9.10514 4.04313C9.56275 3.58553 10.1458 3.27389 10.7805 3.14764C11.4152 3.02138 12.0731 3.08618 12.671 3.33384C13.2689 3.58149 13.7799 4.00088 14.1395 4.53897C14.499 5.07706 14.6909 5.70968 14.6909 6.35684C14.6908 7.22462 14.3461 8.05683 13.7325 8.67045C13.1188 9.28406 12.2866 9.62882 11.4188 9.62891Z" fill="#594DA0"/>
</svg>
