<svg width="58" height="96" viewBox="0 0 58 96" fill="none" xmlns="http://www.w3.org/2000/svg">
<path d="M29 26.8125C27.965 26.8125 27.125 27.6525 27.125 28.6875C27.125 29.7225 27.965 30.5625 29 30.5625C30.035 30.5625 30.875 29.7225 30.875 28.6875C30.875 27.6525 30.035 26.8125 29 26.8125Z" fill="#594DA0"/>
<path d="M45.875 15.6986V3.75H47.75C48.7856 3.75 49.625 2.91056 49.625 1.875C49.625 0.839438 48.7856 0 47.75 0H10.25C9.21444 0 8.375 0.839438 8.375 1.875C8.375 2.91056 9.21444 3.75 10.25 3.75H12.125V15.6986C5.77306 16.6114 0.875 22.0871 0.875 28.6875V74.8125C0.875 79.911 3.83956 84.5192 8.375 86.6724V90.375C8.375 93.4766 10.8984 96 14 96H44C47.1016 96 49.625 93.4766 49.625 90.375V86.6724C54.1603 84.5196 57.125 79.9112 57.125 74.8125V28.6875C57.125 22.0871 52.2269 16.6114 45.875 15.6986ZM15.875 3.75H42.125V15.5625H34.625V9.375C34.625 8.33944 33.7856 7.5 32.75 7.5H25.25C24.2144 7.5 23.375 8.33944 23.375 9.375V15.5625H15.875V3.75ZM30.875 11.25V15.5625H27.125V11.25H30.875ZM45.875 90.375C45.875 91.4089 45.0339 92.25 44 92.25H14C12.9661 92.25 12.125 91.4089 12.125 90.375V87.8019C12.746 87.8916 13.3726 87.9369 14 87.9375H44C44.6311 87.9375 45.2568 87.8903 45.875 87.8019V90.375ZM53.375 74.8125C53.375 79.9264 49.238 84.1875 44 84.1875H14C8.76181 84.1875 4.625 79.926 4.625 74.8125V30.5625H21.5C22.5356 30.5625 23.375 29.7231 23.375 28.6875C23.375 27.6519 22.5356 26.8125 21.5 26.8125H4.81362C5.68475 22.5384 9.47244 19.3125 14 19.3125H44C48.5274 19.3125 52.3152 22.5384 53.1864 26.8125H36.5C35.4644 26.8125 34.625 27.6519 34.625 28.6875C34.625 29.7231 35.4644 30.5625 36.5 30.5625H53.375V74.8125Z" fill="#594DA0"/>
<path d="M25.25 38.625C24.2144 38.625 23.375 39.4644 23.375 40.5C23.375 41.5539 22.9685 42.0049 22.0492 42.9242C21.0262 43.9472 19.625 45.3484 19.625 48C19.625 49.0356 20.4644 49.875 21.5 49.875C22.5356 49.875 23.375 49.0356 23.375 48C23.375 46.9461 23.7815 46.4951 24.7008 45.5758C25.7238 44.5528 27.125 43.1516 27.125 40.5C27.125 39.4644 26.2856 38.625 25.25 38.625Z" fill="#594DA0"/>
<path d="M40.9144 51.5179C38.7097 48.441 36.2111 44.9537 34.5289 39.9071C34.3881 39.4847 34.1016 39.1262 33.7207 38.8957C33.3397 38.6652 32.8892 38.5778 32.4497 38.6491C32.0103 38.7205 31.6105 38.9458 31.322 39.2849C31.0335 39.624 30.875 40.0548 30.8751 40.5C30.8751 42.3701 30.3 47.7984 27.6742 50.4242C25.6378 52.4606 24.1346 55.1165 23.1337 57.2859C22.2821 53.7219 19.4492 50.7975 19.0759 50.4242C18.862 50.2104 18.5996 50.0515 18.3111 49.961C18.0225 49.8706 17.7164 49.8512 17.4188 49.9046C17.1211 49.9581 16.8409 50.0827 16.6018 50.2679C16.3627 50.453 16.172 50.6933 16.0459 50.9681C15.5516 52.0453 11.2577 61.6532 12.6514 67.2523C14.1744 73.3616 19.2326 78.2186 25.3971 79.5C36.0975 81.7252 45.8751 73.6805 45.8751 63C45.8751 58.4411 43.5761 55.2328 40.9144 51.5179ZM26.1606 75.8285C21.4254 74.8442 17.4589 71.033 16.2902 66.3457C15.6169 63.6405 17.0085 58.8298 18.2634 55.4469C18.9907 56.6079 19.6251 57.9945 19.6251 59.25C19.6251 60.0596 19.6251 62.5237 21.4232 63.4961C22.5319 64.0957 23.7386 63.7762 24.4354 63.3202C24.808 63.0765 25.0817 62.708 25.2075 62.2809C25.2246 62.223 26.9527 56.4489 30.3259 53.0758C31.9665 51.4352 32.9811 49.2375 33.6084 47.1382C35.0151 49.7229 36.537 51.8469 37.866 53.7019C40.2456 57.0229 42.1251 59.646 42.1251 63C42.1251 71.2989 34.5392 77.5712 26.1606 75.8285Z" fill="#594DA0"/>
</svg>
