<svg width="96" height="78" viewBox="0 0 96 78" fill="none" xmlns="http://www.w3.org/2000/svg">
<path d="M32.2557 21.9115C31.8034 21.9115 31.4368 22.2781 31.4368 22.7304V43.4751C31.4368 43.9274 31.8034 44.294 32.2557 44.294H53.0005C53.4528 44.294 53.8194 43.9274 53.8194 43.4751V22.7304C53.8194 22.2781 53.4528 21.9115 53.0005 21.9115H32.2557ZM41.8092 42.6563H33.0746V33.9217H41.8092V42.6563ZM41.8092 32.2838H33.0746V23.5493H41.8092V32.2838ZM52.1816 42.6563H43.447V33.9217H52.1816V42.6563ZM52.1816 32.2838H43.447V23.5493H52.1816V32.2838Z" fill="#594DA0"/>
<path d="M68.1516 76.1834H56.5407V69.769C56.5407 69.3167 56.1741 68.9501 55.7218 68.9501H43.4386C42.9863 68.9501 42.6197 69.3167 42.6197 69.769V76.1834H11.172V58.1949H16.4165V64.6094C16.4165 65.0617 16.7831 65.4283 17.2354 65.4283H22.5581V71.8427C22.5581 72.295 22.9247 72.6616 23.377 72.6616H35.66C36.1123 72.6616 36.4789 72.295 36.4789 71.8427V64.6094C36.4789 64.1571 36.1123 63.7905 35.66 63.7905H30.3375V58.1949H53.1337C53.586 58.1949 53.9526 57.8283 53.9526 57.376C53.9526 56.9237 53.586 56.5571 53.1337 56.5571H11.172V20.1831L43.0742 1.76444L74.9764 20.1831V24.1744C74.9764 24.6267 75.343 24.9933 75.7953 24.9933C76.2476 24.9933 76.6142 24.6267 76.6142 24.1744V21.1287L84.9201 25.9241C85.0442 25.9961 85.1852 26.034 85.3287 26.0339C85.6117 26.0339 85.8869 25.8871 86.0386 25.6244C86.2647 25.2327 86.1304 24.7319 85.7388 24.5058L43.4836 0.109739C43.3591 0.0378482 43.218 0 43.0742 0C42.9305 0 42.7893 0.0378482 42.6649 0.109739L0.409608 24.5058C0.0179652 24.7319 -0.116304 25.2327 0.109836 25.6244C0.335977 26.0161 0.837047 26.15 1.22833 25.9241L9.53419 21.1287V76.1834H0.818984C0.366678 76.1834 7.89257e-05 76.5501 7.89257e-05 77.0023C7.89257e-05 77.4545 0.366704 77.8212 0.818984 77.8212H68.1516C68.6039 77.8212 68.9705 77.4545 68.9705 77.0023C68.9705 76.5501 68.6039 76.1834 68.1516 76.1834ZM34.841 65.4283V71.0238H24.1959V65.4283H34.841ZM18.0543 58.1949H28.6997V63.7904H18.0543V58.1949ZM54.9029 76.1834H44.2576V70.5879H54.9029V76.1834Z" fill="#594DA0"/>
<path d="M95.537 36.0673L76.1512 26.7127C76.0402 26.6592 75.9186 26.6314 75.7954 26.6314C75.6721 26.6314 75.5505 26.6592 75.4395 26.7127L56.0538 36.0673C55.915 36.1343 55.798 36.239 55.7161 36.3694C55.6342 36.4999 55.5907 36.6508 55.5907 36.8048V61.9583C55.5907 62.022 55.5982 62.0854 55.6128 62.1473C55.7041 62.5321 58.0487 71.6414 75.5241 77.775C75.612 77.8058 75.7037 77.8212 75.7954 77.8212C75.8871 77.8212 75.9787 77.8058 76.0666 77.775C93.5418 71.6414 95.8866 62.5321 95.9779 62.1473C95.9925 62.0854 96 62.022 96 61.9583V36.8048C96 36.6508 95.9566 36.4999 95.8747 36.3694C95.7928 36.239 95.6757 36.1343 95.537 36.0673ZM60.3405 66.7722C58.0414 64.2394 57.3526 62.2544 57.2285 61.8464V37.3189L75.7954 28.3595L93.7867 37.0412L81.157 49.6709C78.9413 46.6366 76.572 44.1495 76.3865 43.9561C76.3101 43.8764 76.2183 43.8129 76.1167 43.7696C76.0151 43.7262 75.9058 43.7039 75.7954 43.7039C75.6849 43.7039 75.5756 43.7262 75.4741 43.7696C75.3725 43.8129 75.2807 43.8764 75.2043 43.9561C74.8501 44.3255 66.5285 53.0608 66.5285 57.9988C66.5285 59.7955 67.0442 61.4732 67.9328 62.895L62.2162 68.6116C61.4746 67.9581 60.8548 67.3387 60.3405 66.7722ZM80.9318 52.2123C82.3457 54.3485 83.4243 56.4838 83.4243 57.9988C83.4243 62.2054 80.0019 65.6277 75.7954 65.6277C73.527 65.6277 71.4878 64.6315 70.0892 63.0549L80.9318 52.2123ZM69.1276 61.7002C68.5162 60.6032 68.1663 59.3413 68.1663 57.9988C68.1663 54.7188 73.2183 48.5317 75.7954 45.7211C76.9268 46.9551 78.5352 48.8401 79.9838 50.844L69.1276 61.7002ZM94.3622 61.8457C94.2356 62.2618 93.5449 64.2441 91.2501 66.7722C88.8819 69.381 84.2832 73.1104 75.7954 76.1338C70.1135 74.1099 66.1764 71.7701 63.4826 69.6614L68.929 64.215C70.6258 66.0875 73.0755 67.2656 75.7954 67.2656C80.9051 67.2656 85.0621 63.1084 85.0621 57.9988C85.0621 56.0244 83.7314 53.4431 82.112 51.0321L94.3623 38.7819V61.8457H94.3622Z" fill="#594DA0"/>
<path d="M71.3471 42.2616C71.3471 40.1142 68.2507 36.7762 67.63 36.1289C67.5535 36.0492 67.4617 35.9857 67.3601 35.9424C67.2586 35.8991 67.1493 35.8767 67.0388 35.8767C66.9284 35.8767 66.8191 35.8991 66.7175 35.9424C66.6159 35.9857 66.5242 36.0492 66.4477 36.1289C65.827 36.7763 62.7307 40.1142 62.7307 42.2616C62.7307 44.6371 64.6634 46.5698 67.0388 46.5698C69.4145 46.5698 71.3471 44.6371 71.3471 42.2616ZM64.3686 42.2616C64.3686 41.3148 65.7819 39.3411 67.039 37.9082C68.2963 39.3399 69.7093 41.313 69.7093 42.2616C69.7093 43.7341 68.5113 44.932 67.0388 44.932C65.5663 44.932 64.3686 43.7341 64.3686 42.2616Z" fill="#594DA0"/>
</svg>
