<svg width="24" height="18" viewBox="0 0 24 18" fill="none" xmlns="http://www.w3.org/2000/svg">
<path d="M5.70838 12.2362C6.86638 12.2362 7.80838 11.2942 7.80838 10.1362C7.80838 8.97816 6.86638 8.03616 5.70838 8.03616C4.55062 8.03616 3.60862 8.97816 3.60862 10.1362C3.60862 11.2944 4.55062 12.2362 5.70838 12.2362ZM16.1916 10.1362C16.1916 11.2942 17.1336 12.2362 18.2913 12.2362C19.4493 12.2362 20.3913 11.2942 20.3913 10.1362C20.3913 8.97816 19.4493 8.03616 18.2913 8.03616C17.1336 8.03616 16.1916 8.9784 16.1916 10.1362ZM23.394 16.2492H21.7881C21.5527 14.5279 20.0765 13.1962 18.2916 13.1962C16.5067 13.1962 15.0305 14.5279 14.7953 16.2492H9.20494C8.9695 14.5279 7.49326 13.1962 5.70838 13.1962C3.9235 13.1962 2.4475 14.5279 2.21206 16.2492H0.605977C0.478673 16.2492 0.356583 16.2998 0.266565 16.3898C0.176548 16.4798 0.125977 16.6019 0.125977 16.7292C0.125977 16.8565 0.176548 16.9786 0.266565 17.0686C0.356583 17.1586 0.478673 17.2092 0.605977 17.2092H23.3937C23.521 17.2092 23.6431 17.1587 23.7332 17.0687C23.8232 16.9787 23.8738 16.8566 23.8739 16.7293C23.8739 16.602 23.8233 16.4799 23.7334 16.3899C23.6434 16.2998 23.5213 16.2492 23.394 16.2492ZM9.35446 6.7908H10.7633L11.5845 8.21112C11.6267 8.28397 11.6873 8.34445 11.7602 8.3865C11.8331 8.42855 11.9158 8.45069 12 8.45069C12.0841 8.45069 12.1668 8.42855 12.2398 8.3865C12.3127 8.34445 12.3733 8.28397 12.4154 8.21112L13.2367 6.7908H14.6455C16.2998 6.7908 17.6455 5.44512 17.6455 3.7908C17.6455 2.13648 16.2998 0.790802 14.6455 0.790802H9.35446C7.70014 0.790802 6.35446 2.13648 6.35446 3.7908C6.35446 5.44512 7.70014 6.7908 9.35446 6.7908ZM13.4551 5.10096H10.5451C10.4178 5.10096 10.2957 5.05039 10.2057 4.96037C10.1157 4.87036 10.0651 4.74827 10.0651 4.62096C10.0651 4.49366 10.1157 4.37157 10.2057 4.28155C10.2957 4.19153 10.4178 4.14096 10.5451 4.14096H13.4551C13.5824 4.14096 13.7045 4.19153 13.7945 4.28155C13.8845 4.37157 13.9351 4.49366 13.9351 4.62096C13.9351 4.74827 13.8845 4.87036 13.7945 4.96037C13.7045 5.05039 13.5824 5.10096 13.4551 5.10096ZM9.2551 2.58096H14.7451C14.8724 2.58096 14.9945 2.63153 15.0845 2.72155C15.1745 2.81157 15.2251 2.93366 15.2251 3.06096C15.2251 3.18827 15.1745 3.31036 15.0845 3.40037C14.9945 3.49039 14.8724 3.54096 14.7451 3.54096H9.2551C9.12779 3.54096 9.0057 3.49039 8.91568 3.40037C8.82567 3.31036 8.7751 3.18827 8.7751 3.06096C8.7751 2.93366 8.82567 2.81157 8.91568 2.72155C9.0057 2.63153 9.12779 2.58096 9.2551 2.58096Z" fill="white"/>
</svg>
