<svg width="96" height="96" viewBox="0 0 96 96" fill="none" xmlns="http://www.w3.org/2000/svg">
<path d="M94.3487 87.8106H81.5164V6.53816C81.5164 6.13304 81.3671 5.74213 81.0971 5.44013C80.827 5.13812 80.4552 4.9462 80.0526 4.90103L36.7224 0.0103718C36.4918 -0.0156183 36.2583 0.00737025 36.0372 0.0778342C35.8161 0.148298 35.6124 0.26465 35.4393 0.419276C35.2663 0.573902 35.1279 0.763318 35.0331 0.975133C34.9383 1.18695 34.8893 1.41639 34.8893 1.64844V4.88973H16.1292C15.692 4.88973 15.2727 5.0634 14.9636 5.37255C14.6544 5.68169 14.4808 6.10097 14.4808 6.53816V87.8106H1.64843C1.21124 87.8106 0.791956 87.9843 0.482815 88.2934C0.173674 88.6025 0 89.0218 0 89.459C0 89.8962 0.173674 90.3155 0.482815 90.6246C0.791956 90.9338 1.21124 91.1075 1.64843 91.1075H34.8893V94.3487C34.8893 94.7859 35.063 95.2052 35.3721 95.5144C35.6813 95.8235 36.1006 95.9972 36.5377 95.9972C36.6007 95.9976 36.6636 95.9942 36.7261 95.9868L79.9622 91.1075H94.3516C94.7888 91.1075 95.208 90.9338 95.5172 90.6246C95.8263 90.3155 96 89.8962 96 89.459C96 89.0218 95.8263 88.6025 95.5172 88.2934C95.208 87.9843 94.7888 87.8106 94.3516 87.8106H94.3487ZM17.7776 8.1866H34.8893V12.4254H23.664C23.2268 12.4254 22.8075 12.5991 22.4983 12.9082C22.1892 13.2174 22.0155 13.6367 22.0155 14.0739V87.8106H17.7767L17.7776 8.1866ZM25.3133 87.8106V15.7223H34.8893V87.8106H25.3133ZM38.1862 3.4928L78.2195 8.01422V87.9867L38.1862 92.5082V3.4928Z" fill="#594DA0"/>
</svg>
