<svg width="20" height="18" viewBox="0 0 20 18" fill="none" xmlns="http://www.w3.org/2000/svg">
<path d="M0 0.0483093V8.88554H1.86047V12.8354L5.3166 8.88554H7.39535V3.81577H12.5581V0.0483093H0ZM6.10605 6.32737H5.24094V5.41202H6.10605V6.32737ZM7.17488 3.94136C7.10977 4.08839 6.99348 4.21765 6.82605 4.32925C6.74614 4.38394 6.66218 4.43245 6.57488 4.47436C6.49447 4.51264 6.41535 4.55359 6.33766 4.59714C6.26512 4.63811 6.20555 4.68085 6.15906 4.7255C6.1125 4.77015 6.0893 4.82229 6.0893 4.88179H5.22418C5.22418 4.80366 5.22785 4.72647 5.23535 4.65015C5.24244 4.5751 5.26128 4.50164 5.29117 4.43245C5.32094 4.36366 5.36559 4.29765 5.42512 4.23432C5.48457 4.17112 5.56465 4.11343 5.66512 4.06132C5.70602 4.03897 5.76465 4.00929 5.84094 3.97202C5.92037 3.933 5.99685 3.88824 6.06977 3.83808C6.14602 3.78604 6.21207 3.72741 6.26789 3.66225C6.32371 3.59718 6.3516 3.5255 6.3516 3.44737C6.3516 3.36182 6.31813 3.2939 6.25113 3.24366C6.18414 3.19343 6.10602 3.16831 6.01672 3.16831C5.94973 3.16831 5.89203 3.1814 5.84371 3.20737C5.79707 3.23212 5.75468 3.26415 5.71813 3.30225C5.6845 3.33722 5.65458 3.37556 5.62883 3.41667C5.60461 3.45573 5.58141 3.48839 5.55906 3.51433L4.88371 3.03433C4.98039 2.80741 5.13297 2.63061 5.34137 2.50409C5.54969 2.37761 5.78789 2.31433 6.05578 2.31433C6.19719 2.31433 6.34043 2.33479 6.48555 2.37573C6.63066 2.41671 6.76184 2.48179 6.87902 2.57108C6.99625 2.66038 7.09113 2.77761 7.16367 2.92272C7.23621 3.06784 7.2725 3.24464 7.2725 3.45296C7.27254 3.63159 7.23996 3.7944 7.17488 3.94136Z" fill="#594DA0"/>
<path d="M8.79102 5.21112V14.0018H14.6837L18.1398 17.9517V14.0018H20.0003V5.21112H8.79102ZM14.3315 11.4437H13.271V10.4167H14.3315V11.4437ZM14.3315 9.76925H13.271V7.44178H14.3315V9.76925Z" fill="#594DA0"/>
</svg>
