<svg width="20" height="18" viewBox="0 0 20 18" fill="none" xmlns="http://www.w3.org/2000/svg">
<path d="M0.585891 17.6321H1.75767C2.08124 17.6321 2.34356 17.3698 2.34356 17.0462V10.6014H0.585891C0.262323 10.6014 0 10.8638 0 11.1873V17.0462C0 17.3698 0.262323 17.6321 0.585891 17.6321ZM15.3113 0.0553589C12.7226 0.0553589 10.6241 2.15382 10.6241 4.74248C10.6241 7.33107 12.7226 9.42961 15.3113 9.42961C17.8999 9.42961 19.9984 7.33107 19.9984 4.74248C19.9984 2.15382 17.8999 0.0553589 15.3113 0.0553589ZM16.2931 6.85114C16.1662 6.91458 16.0332 6.96453 15.8971 7.00234V7.16424C15.8971 7.48781 15.6348 7.75013 15.3112 7.75013C14.9876 7.75013 14.7253 7.48781 14.7253 7.16424V7.02066C14.4814 6.95926 14.254 6.85603 14.0613 6.71154C13.8024 6.51742 13.75 6.15018 13.9441 5.8913C14.1383 5.63249 14.5055 5.57996 14.7644 5.77412C14.9987 5.94989 15.4495 5.96293 15.7691 5.8031C15.8976 5.73885 15.9669 5.66151 15.9669 5.6214C15.9669 5.55129 15.9669 5.54047 15.8889 5.49887C15.736 5.41727 15.4658 5.36712 15.2043 5.31865C14.8553 5.25389 14.4945 5.18694 14.1818 5.02004C13.7251 4.77631 13.4837 4.37646 13.4837 3.86373C13.4837 3.35041 13.7916 2.90208 14.3283 2.63375C14.4554 2.57047 14.5884 2.51962 14.7253 2.48192V2.32088C14.7253 1.99731 14.9876 1.73499 15.3112 1.73499C15.6348 1.73499 15.8971 1.99731 15.8971 2.32088V2.46435C16.141 2.52579 16.3684 2.6291 16.5611 2.77358C16.82 2.96774 16.8724 3.33498 16.6783 3.59383C16.4841 3.85267 16.117 3.90517 15.858 3.711C15.6233 3.53496 15.1722 3.52192 14.8523 3.68179C14.7231 3.74639 14.6555 3.82221 14.6555 3.86369C14.6555 3.93384 14.6555 3.94462 14.7335 3.98625C14.8863 4.06785 15.1567 4.118 15.4181 4.16647C15.7671 4.23124 16.1279 4.29818 16.4407 4.46508C16.8973 4.70881 17.1387 5.10867 17.1387 5.6214C17.1387 6.13421 16.8305 6.58245 16.2931 6.85114ZM10.5773 17.9446H10.7062C12.6748 17.9211 14.5613 17.3626 16.2253 16.3548L19.4946 14.0699C20.0453 13.6832 20.1508 12.9567 19.7875 12.4411C19.4125 11.9021 18.686 11.7732 18.1587 12.1482L15.0184 14.3511C14.0106 14.937 12.7803 15.0659 11.6671 14.6909L8.05408 13.4957C7.74942 13.4019 7.58533 13.0621 7.69083 12.7575C7.78453 12.4646 8.0892 12.3005 8.39386 12.3825C8.40558 12.3825 12.4521 13.6949 12.4521 13.6949C13.1336 13.8992 13.739 13.5136 13.9286 12.945C14.1277 12.3239 13.788 11.6677 13.1786 11.4685L7.66735 9.664C6.4619 9.22517 4.83746 9.31583 3.51534 10.0551V16.6141L8.11263 17.6556C8.95479 17.8408 9.78113 17.9446 10.5773 17.9446Z" fill="white"/>
</svg>
