<svg width="20" height="18" viewBox="0 0 20 18" fill="none" xmlns="http://www.w3.org/2000/svg">
<path d="M0.585891 17.6322H1.75767C2.08124 17.6322 2.34356 17.3699 2.34356 17.0463V10.6015H0.585891C0.262323 10.6015 0 10.8638 0 11.1874V17.0463C0 17.3698 0.262323 17.6322 0.585891 17.6322ZM15.3113 0.0554199C12.7226 0.0554199 10.6241 2.15388 10.6241 4.74254C10.6241 7.33113 12.7226 9.42967 15.3113 9.42967C17.8999 9.42967 19.9984 7.33113 19.9984 4.74254C19.9984 2.15388 17.8999 0.0554199 15.3113 0.0554199ZM16.2931 6.8512C16.1662 6.91464 16.0332 6.96459 15.8971 7.0024V7.1643C15.8971 7.48787 15.6348 7.75019 15.3112 7.75019C14.9876 7.75019 14.7253 7.48787 14.7253 7.1643V7.02072C14.4814 6.95932 14.254 6.85609 14.0613 6.71161C13.8024 6.51748 13.75 6.15024 13.9441 5.89136C14.1383 5.63255 14.5055 5.58002 14.7644 5.77418C14.9987 5.94995 15.4495 5.96299 15.7691 5.80316C15.8976 5.73891 15.9669 5.66157 15.9669 5.62146C15.9669 5.55135 15.9669 5.54053 15.8889 5.49893C15.736 5.41733 15.4658 5.36718 15.2043 5.31871C14.8553 5.25395 14.4945 5.187 14.1818 5.0201C13.7251 4.77637 13.4837 4.37652 13.4837 3.86379C13.4837 3.35047 13.7916 2.90214 14.3283 2.63381C14.4554 2.57053 14.5884 2.51968 14.7253 2.48198V2.32094C14.7253 1.99737 14.9876 1.73505 15.3112 1.73505C15.6348 1.73505 15.8971 1.99737 15.8971 2.32094V2.46441C16.141 2.52585 16.3684 2.62916 16.5611 2.77364C16.82 2.9678 16.8724 3.33504 16.6783 3.59389C16.4841 3.85273 16.117 3.90523 15.858 3.71106C15.6233 3.53502 15.1722 3.52198 14.8523 3.68185C14.7231 3.74645 14.6555 3.82227 14.6555 3.86375C14.6555 3.9339 14.6555 3.94468 14.7335 3.98632C14.8863 4.06791 15.1567 4.11806 15.4181 4.16654C15.7671 4.2313 16.1279 4.29824 16.4407 4.46515C16.8973 4.70888 17.1387 5.10873 17.1387 5.62146C17.1387 6.13427 16.8305 6.58251 16.2931 6.8512ZM10.5773 17.9447H10.7062C12.6748 17.9212 14.5613 17.3627 16.2253 16.3549L19.4946 14.07C20.0453 13.6832 20.1508 12.9568 19.7875 12.4412C19.4125 11.9021 18.686 11.7733 18.1587 12.1482L15.0184 14.3512C14.0106 14.9371 12.7803 15.066 11.6671 14.691L8.05408 13.4957C7.74942 13.402 7.58533 13.0622 7.69083 12.7576C7.78453 12.4646 8.0892 12.3006 8.39386 12.3826C8.40558 12.3826 12.4521 13.695 12.4521 13.695C13.1336 13.8992 13.739 13.5137 13.9286 12.9451C14.1277 12.324 13.788 11.6678 13.1786 11.4686L7.66735 9.66406C6.4619 9.22523 4.83746 9.31589 3.51534 10.0552V16.6141L8.11263 17.6556C8.95479 17.8409 9.78113 17.9447 10.5773 17.9447Z" fill="#594DA0"/>
</svg>
