<svg width="18" height="14" viewBox="0 0 18 14" fill="none" xmlns="http://www.w3.org/2000/svg">
<path fill-rule="evenodd" clip-rule="evenodd" d="M13.9999 7.00004C14.6233 6.99988 15.2342 6.82491 15.7632 6.49498C16.2921 6.16506 16.7179 5.69341 16.9923 5.13361C17.2666 4.57382 17.3785 3.9483 17.3152 3.32812C17.2519 2.70793 17.0159 2.11793 16.6341 1.62513C16.2522 1.13233 15.7399 0.756481 15.1552 0.54027C14.5704 0.324059 13.9368 0.276152 13.3262 0.401991C12.7157 0.52783 12.1526 0.822371 11.701 1.25216C11.2494 1.68195 10.9274 2.22976 10.7716 2.83337H1.49993C1.27892 2.83337 1.06696 2.92117 0.910675 3.07745C0.754394 3.23373 0.666597 3.44569 0.666597 3.66671C0.666597 3.88772 0.754394 4.09968 0.910675 4.25596C1.06696 4.41224 1.27892 4.50004 1.49993 4.50004H10.7716C11.1416 5.93754 12.4466 7.00004 13.9999 7.00004ZM12.3333 3.66671C12.3333 4.10874 12.5089 4.53266 12.8214 4.84522C13.134 5.15778 13.5579 5.33337 13.9999 5.33337C14.442 5.33337 14.8659 5.15778 15.1784 4.84522C15.491 4.53266 15.6666 4.10874 15.6666 3.66671C15.6666 3.22468 15.491 2.80076 15.1784 2.4882C14.8659 2.17564 14.442 2.00004 13.9999 2.00004C13.5579 2.00004 13.134 2.17564 12.8214 2.4882C12.5089 2.80076 12.3333 3.22468 12.3333 3.66671ZM0.666597 10.3334C0.665795 9.52149 0.961333 8.73722 1.49774 8.12777C2.03415 7.51832 2.77455 7.1256 3.57997 7.02331C4.38539 6.92102 5.20045 7.1162 5.87217 7.57222C6.54389 8.02823 7.02609 8.71373 7.22826 9.50004H16.4999C16.7209 9.50004 16.9329 9.58784 17.0892 9.74412C17.2455 9.9004 17.3333 10.1124 17.3333 10.3334C17.3333 10.5544 17.2455 10.7664 17.0892 10.9226C16.9329 11.0789 16.7209 11.1667 16.4999 11.1667H7.22826C7.02349 11.9504 6.54046 12.6329 5.86937 13.0865C5.19828 13.5402 4.38501 13.7341 3.58141 13.6321C2.77782 13.53 2.03883 13.139 1.50245 12.5319C0.966072 11.9249 0.66896 11.1434 0.666597 10.3334ZM5.6666 10.3334C5.6666 9.89135 5.491 9.46743 5.17844 9.15486C4.86588 8.8423 4.44196 8.66671 3.99993 8.66671C3.5579 8.66671 3.13398 8.8423 2.82142 9.15486C2.50886 9.46743 2.33326 9.89135 2.33326 10.3334C2.33326 10.7754 2.50886 11.1993 2.82142 11.5119C3.13398 11.8244 3.5579 12 3.99993 12C4.44196 12 4.86588 11.8244 5.17844 11.5119C5.491 11.1993 5.6666 10.7754 5.6666 10.3334Z" fill="#594DA0"/>
</svg>
