<svg width="88" height="96" viewBox="0 0 88 96" fill="none" xmlns="http://www.w3.org/2000/svg">
<path d="M42.9983 1.44948L42.9984 1.44945C43.3045 1.25785 43.653 1.16329 43.9998 1.16329C44.3465 1.16329 44.6954 1.25779 45.0014 1.44948C45.0014 1.44951 45.0015 1.44954 45.0015 1.44957L85.657 26.9039C85.8282 27.0111 85.9486 27.1668 85.9989 27.3534C86.0452 27.5252 86.0201 27.6782 85.9915 27.7775L42.9983 1.44948ZM42.9983 1.44948L2.34298 26.9039C2.17171 27.0111 2.05145 27.1668 2.0011 27.3531C1.95462 27.5252 1.97978 27.6783 2.00809 27.7772L2.00819 27.7775M42.9983 1.44948L2.00819 27.7775M2.00819 27.7775C2.03665 27.8767 2.09659 28.0198 2.2273 28.141C2.36884 28.2722 2.55335 28.3404 2.75541 28.3404H85.2443C85.4463 28.3404 85.6309 28.2723 85.7726 28.1408M2.00819 27.7775L85.7726 28.1408M45.0826 6.75905L45.0824 6.75891C44.4266 6.34786 43.5747 6.34763 42.9174 6.75877C42.9174 6.7588 42.9174 6.75882 42.9173 6.75885L18.2142 22.2252C18.0584 22.3228 18.0114 22.528 18.1087 22.6835C18.2064 22.8392 18.4117 22.886 18.5668 22.7888L18.5668 22.7888L43.27 7.32244C43.2701 7.3224 43.2701 7.32236 43.2702 7.32232C43.7152 7.04356 44.2853 7.04428 44.7296 7.32225L44.7297 7.32232L69.433 22.7888L69.4335 22.7891C69.4859 22.822 69.5465 22.8394 69.6084 22.8394H69.6085C69.7208 22.8394 69.8284 22.7835 69.8911 22.6834L45.0826 6.75905ZM45.0826 6.75905L69.7855 22.2252M45.0826 6.75905L69.7855 22.2252M85.7726 28.1408C85.903 28.0199 85.9628 27.8771 85.9912 27.7785L85.7726 28.1408ZM69.7855 22.2252C69.9414 22.3228 69.9884 22.5279 69.8911 22.6834L69.7855 22.2252ZM4.00789 29.5052V29.0052H3.50789H2.75541C2.10339 29.0052 1.54922 28.5878 1.36932 27.9612L1.36929 27.9611C1.18924 27.3345 1.43752 26.6865 1.99027 26.3404C1.99028 26.3404 1.99029 26.3403 1.99031 26.3403L42.6457 0.885921L42.6458 0.885854C43.467 0.371382 44.5327 0.371382 45.354 0.885854L45.3541 0.885922L86.0097 26.3403C86.5624 26.6864 86.8106 27.3344 86.6307 27.9612C86.4505 28.5879 85.8963 29.0052 85.2443 29.0052H84.4921H83.9921V29.5052V95.1676C83.9921 95.3513 83.8434 95.5 83.6597 95.5H4.34029C4.1566 95.5 4.00789 95.3513 4.00789 95.1676V29.5052ZM12.0995 69.9093H11.5995V70.4093V77.2481V77.7481H12.0995H75.9002H76.4002V77.2481V70.4093V69.9093H75.9002H67.2988C67.1151 69.9093 66.9663 69.7606 66.9663 69.5769C66.9663 69.3932 67.1151 69.2445 67.2988 69.2445H75.9002H76.4002V68.7445V61.906V61.406H75.9002H12.0995H11.5995V61.906V68.7445V69.2445H12.0995H62.5759C62.7596 69.2445 62.9083 69.3932 62.9083 69.5769C62.9083 69.7606 62.7596 69.9093 62.5759 69.9093H12.0995ZM75.9002 43.7343H76.4002V43.2343V36.7095C76.4002 36.2803 76.0519 35.9321 75.6227 35.9321H12.377C11.9478 35.9321 11.5995 36.2802 11.5995 36.7095V43.2343V43.7343H12.0995H18.5121C18.6958 43.7343 18.8445 43.883 18.8445 44.0667C18.8445 44.2504 18.6958 44.3991 18.5121 44.3991H12.0995H11.5995V44.8991V51.7379V52.2379H12.0995H59.0339C59.2176 52.2379 59.3663 52.3866 59.3663 52.5703C59.3663 52.754 59.2176 52.9027 59.0339 52.9027H12.0995H11.5995V53.4027V60.2412V60.7412H12.0995H75.9002H76.4002V60.2412V53.4027V52.9027H75.9002H63.7568C63.5731 52.9027 63.4244 52.754 63.4244 52.5703C63.4244 52.3866 63.5731 52.2379 63.7568 52.2379H75.9002H76.4002V51.7379V44.8991V44.3991H75.9002H23.2349C23.0513 44.3991 22.9025 44.2504 22.9025 44.0667C22.9025 43.883 23.0513 43.7343 23.2349 43.7343H75.9002ZM11.5995 94.3352V94.8352H12.0995H75.9002H76.4002V94.3352V87.4162V86.9162H75.9002H23.2349C23.0512 86.9162 22.9025 86.7675 22.9025 86.5838C22.9025 86.4001 23.0513 86.2514 23.2349 86.2514H75.9002H76.4002V85.7514V78.9129V78.4129H75.9002H12.0995H11.5995V78.9129V85.7514V86.2514H12.0995H18.5121C18.6958 86.2514 18.8445 86.4001 18.8445 86.5838C18.8445 86.7675 18.6958 86.9162 18.5121 86.9162H12.0995H11.5995V87.4162V94.3352ZM82.8273 94.8352H83.3273V94.3352V29.5052V29.0052H82.8273H5.17266H4.67266V29.5052V94.3352V94.8352H5.17266H10.4347H10.9347V94.3352V36.7095C10.9347 35.9148 11.5823 35.2673 12.377 35.2673H75.6227C76.4174 35.2673 77.065 35.9148 77.065 36.7095V94.3352V94.8352H77.565H82.8273Z" fill="#594DA0" stroke="#594DA0"/>
</svg>
