<svg width="96" height="96" viewBox="0 0 96 96" fill="none" xmlns="http://www.w3.org/2000/svg">
<path d="M94.4957 49.3759L68.6238 33.1519C68.4377 33.0364 68.2298 32.9604 68.0131 32.9285C67.7964 32.8967 67.5754 32.9096 67.3639 32.9666C67.1524 33.0236 66.9549 33.1235 66.7835 33.2599C66.6122 33.3964 66.4707 33.5666 66.3678 33.76C64.6354 37.0403 62.0623 39.8012 58.9119 41.76C58.529 41.9953 58.1386 42.2181 57.7413 42.4281C47.5854 47.7965 35.0005 43.9159 29.632 33.76C29.5291 33.5666 29.3876 33.3964 29.2163 33.26C29.0449 33.1235 28.8474 33.0237 28.6359 32.9667C28.4244 32.9097 28.2034 32.8968 27.9867 32.9287C27.77 32.9606 27.5621 33.0366 27.376 33.1521L1.50393 49.3759C1.04511 49.6627 0.666491 50.0611 0.40348 50.534C0.14047 51.0069 0.00165083 51.5387 0 52.0798L0 55.9998C0 57.7672 1.43268 59.1999 3.20005 59.1999H4.79998V92.7997C4.79998 94.5671 6.23266 95.9998 8.00003 95.9998H11.2001C12.9674 95.9998 14.4001 94.5671 14.4001 92.7997V54.3999H81.5999V92.7997C81.5999 94.5671 83.0326 95.9998 84.7999 95.9998H88C89.7673 95.9998 91.2 94.5671 91.2 92.7997V59.1999H92.7999C94.5673 59.1999 96 57.7672 96 55.9998V52.0798C95.9982 51.5387 95.8593 51.0069 95.5962 50.534C95.3331 50.0612 94.9545 49.6627 94.4957 49.3759ZM92.7996 55.9998H91.1996C89.4323 55.9998 87.9996 57.4325 87.9996 59.1999V92.7997H84.7995V54.3999C84.7995 52.6325 83.3669 51.1998 81.5995 51.1998H14.3999C12.6326 51.1998 11.1999 52.6325 11.1999 54.3999V92.7997H8.00003V59.1999C8.00003 57.4325 6.56735 55.9998 4.79998 55.9998H3.20005V52.0959L27.68 36.7999C29.6286 39.9069 32.2608 42.5282 35.3759 44.4639C43.104 49.2352 52.8635 49.2352 60.5917 44.4639C63.7185 42.5321 66.3619 39.9105 68.3197 36.7999L92.7996 52.0959V55.9998Z" fill="#594DA0"/>
<path d="M47.9998 0C34.7451 0 23.9999 10.7452 23.9999 23.9999C23.9972 27.9087 24.9648 31.7571 26.8159 35.1998C28.8087 38.9766 31.7681 42.1569 35.392 44.4158C39.1775 46.7642 43.545 48.0058 47.9998 47.9998C52.4609 47.9866 56.8289 46.7228 60.6078 44.3518C64.2233 42.1105 67.1819 38.9531 69.1838 35.1998C71.0348 31.757 72.0024 27.9087 71.9997 23.9999C71.9997 10.7452 61.2545 0 47.9998 0ZM66.3678 33.7598C64.6354 37.0401 62.0623 39.8011 58.9119 41.7598C58.529 41.9951 58.1386 42.2179 57.7413 42.4279C47.5854 47.7964 35.0005 43.9157 29.632 33.7598C28.0207 30.76 27.1847 27.405 27.1999 23.9999C27.1999 12.5124 36.5125 3.20005 47.9998 3.20005C59.4871 3.20005 68.7997 12.5124 68.7997 23.9999C68.8143 27.4049 67.9784 30.7597 66.3678 33.7598ZM83.1996 57.5998H27.1999C26.3163 57.5998 25.6 58.316 25.6 59.1997C25.6 60.0834 26.3163 60.7996 27.1999 60.7996H83.1998C83.4099 60.7996 83.6179 60.7582 83.812 60.6778C84.0062 60.5974 84.1825 60.4795 84.3311 60.331C84.4796 60.1824 84.5975 60.006 84.6779 59.8119C84.7583 59.6178 84.7996 59.4097 84.7996 59.1996C84.7996 58.9895 84.7582 58.7815 84.6778 58.5874C84.5974 58.3932 84.4795 58.2169 84.3309 58.0683C84.1824 57.9198 84.006 57.8019 83.8119 57.7215C83.6178 57.6411 83.4097 57.5998 83.1996 57.5998ZM20.7998 57.5998H12.8C11.9163 57.5998 11.2001 58.316 11.2001 59.1997C11.2001 60.0834 11.9163 60.7996 12.8 60.7996H20.8C21.0101 60.7996 21.2182 60.7582 21.4123 60.6778C21.6064 60.5974 21.7828 60.4795 21.9313 60.331C22.0799 60.1824 22.1977 60.006 22.2781 59.8119C22.3585 59.6178 22.3999 59.4097 22.3999 59.1996C22.3999 58.9895 22.3585 58.7815 22.278 58.5874C22.1976 58.3932 22.0798 58.2169 21.9312 58.0683C21.7826 57.9198 21.6062 57.8019 21.4121 57.7215C21.218 57.6411 21.01 57.5998 20.7998 57.5998ZM83.1996 63.9997H27.1999C26.3163 63.9997 25.6 64.7159 25.6 65.5996C25.6 66.4833 26.3163 67.1995 27.1999 67.1995H83.1998C83.4099 67.1995 83.6179 67.1581 83.812 67.0777C84.0062 66.9973 84.1825 66.8794 84.3311 66.7309C84.4796 66.5823 84.5975 66.4059 84.6779 66.2118C84.7583 66.0177 84.7996 65.8096 84.7996 65.5995C84.7996 65.3894 84.7582 65.1814 84.6778 64.9873C84.5974 64.7932 84.4795 64.6168 84.3309 64.4682C84.1824 64.3197 84.006 64.2018 83.8119 64.1214C83.6178 64.041 83.4097 63.9997 83.1996 63.9997ZM20.7998 63.9997H12.8C11.9163 63.9997 11.2001 64.7159 11.2001 65.5996C11.2001 66.4833 11.9163 67.1995 12.8 67.1995H20.8C21.0101 67.1995 21.2182 67.1581 21.4123 67.0777C21.6064 66.9973 21.7828 66.8794 21.9313 66.7309C22.0799 66.5823 22.1977 66.4059 22.2781 66.2118C22.3585 66.0177 22.3999 65.8096 22.3999 65.5995C22.3999 65.3894 22.3585 65.1814 22.278 64.9873C22.1976 64.7932 22.0798 64.6168 21.9312 64.4682C21.7826 64.3197 21.6062 64.2018 21.4121 64.1214C21.218 64.041 21.01 63.9997 20.7998 63.9997ZM83.1996 70.3998H27.1999C26.3163 70.3998 25.6 71.116 25.6 71.9997C25.6 72.8834 26.3163 73.5996 27.1999 73.5996H83.1998C83.4099 73.5996 83.6179 73.5582 83.812 73.4778C84.0062 73.3974 84.1825 73.2795 84.3311 73.131C84.4796 72.9824 84.5975 72.806 84.6779 72.6119C84.7583 72.4178 84.7996 72.2097 84.7996 71.9996C84.7996 71.7895 84.7582 71.5815 84.6778 71.3874C84.5974 71.1933 84.4795 71.0169 84.3309 70.8683C84.1824 70.7198 84.006 70.6019 83.8119 70.5215C83.6178 70.4411 83.4097 70.3998 83.1996 70.3998ZM20.7998 70.3998H12.8C11.9163 70.3998 11.2001 71.116 11.2001 71.9997C11.2001 72.8834 11.9163 73.5996 12.8 73.5996H20.8C21.0101 73.5996 21.2182 73.5582 21.4123 73.4778C21.6064 73.3974 21.7828 73.2795 21.9313 73.131C22.0799 72.9824 22.1977 72.806 22.2781 72.6119C22.3585 72.4178 22.3999 72.2097 22.3999 71.9996C22.3999 71.7895 22.3585 71.5815 22.278 71.3874C22.1976 71.1933 22.0798 71.0169 21.9312 70.8683C21.7826 70.7198 21.6062 70.6019 21.4121 70.5215C21.218 70.4411 21.01 70.3998 20.7998 70.3998ZM83.1996 76.7997H27.1999C26.3163 76.7997 25.6 77.5159 25.6 78.3996C25.6 79.2833 26.3163 79.9996 27.1999 79.9996H83.1998C83.4099 79.9995 83.6179 79.9582 83.812 79.8777C84.0062 79.7973 84.1825 79.6795 84.3311 79.5309C84.4796 79.3823 84.5975 79.2059 84.6779 79.0118C84.7583 78.8177 84.7996 78.6096 84.7996 78.3995C84.7996 78.1894 84.7582 77.9814 84.6778 77.7873C84.5974 77.5932 84.4795 77.4168 84.3309 77.2682C84.1824 77.1197 84.006 77.0018 83.8119 76.9215C83.6178 76.8411 83.4097 76.7997 83.1996 76.7997ZM20.7998 76.7997H12.8C11.9163 76.7997 11.2001 77.5159 11.2001 78.3996C11.2001 79.2833 11.9163 79.9996 12.8 79.9996H20.8C21.0101 79.9995 21.2182 79.9582 21.4123 79.8777C21.6064 79.7973 21.7828 79.6795 21.9313 79.5309C22.0799 79.3823 22.1977 79.2059 22.2781 79.0118C22.3585 78.8177 22.3999 78.6096 22.3999 78.3995C22.3999 78.1894 22.3585 77.9814 22.278 77.7873C22.1976 77.5932 22.0798 77.4168 21.9312 77.2682C21.7826 77.1197 21.6062 77.0018 21.4121 76.9215C21.218 76.8411 21.01 76.7997 20.7998 76.7997ZM83.1996 83.1996H27.1999C26.7756 83.1996 26.3687 83.3682 26.0686 83.6682C25.7686 83.9683 25.6 84.3752 25.6 84.7995C25.6 85.2239 25.7686 85.6308 26.0686 85.9309C26.3687 86.2309 26.7756 86.3995 27.1999 86.3995H83.1998C83.4099 86.3995 83.6179 86.3581 83.812 86.2776C84.0062 86.1972 84.1825 86.0794 84.3311 85.9308C84.4796 85.7822 84.5975 85.6058 84.6779 85.4117C84.7583 85.2176 84.7996 85.0096 84.7996 84.7995C84.7996 84.5893 84.7582 84.3813 84.6778 84.1872C84.5974 83.9931 84.4795 83.8167 84.3309 83.6682C84.1824 83.5196 84.006 83.4018 83.8119 83.3214C83.6178 83.241 83.4097 83.1996 83.1996 83.1996ZM20.7998 83.1996H12.8C12.3757 83.1996 11.9687 83.3682 11.6687 83.6682C11.3686 83.9683 11.2001 84.3752 11.2001 84.7995C11.2001 85.2239 11.3686 85.6308 11.6687 85.9309C11.9687 86.2309 12.3757 86.3995 12.8 86.3995H20.8C21.0101 86.3995 21.2182 86.3581 21.4123 86.2776C21.6064 86.1972 21.7828 86.0794 21.9313 85.9308C22.0799 85.7822 22.1977 85.6058 22.2781 85.4117C22.3585 85.2176 22.3999 85.0096 22.3999 84.7995C22.3999 84.5893 22.3585 84.3813 22.278 84.1872C22.1976 83.9931 22.0798 83.8167 21.9312 83.6682C21.7826 83.5196 21.6062 83.4018 21.4121 83.3214C21.218 83.241 21.01 83.1996 20.7998 83.1996Z" fill="#594DA0"/>
<path d="M59.8717 18.5439L50.2717 8.9439L50.2693 8.94147C49.0189 7.69253 46.9927 7.69366 45.7438 8.9439L36.1438 18.5439C35.5512 19.1401 35.2169 19.9457 35.2133 20.7864C35.2058 22.5537 36.6325 23.9924 38.3998 23.9997H41.5999V36.7997C41.5999 38.5671 43.0326 39.9998 44.7999 39.9998H51.1998C52.9672 39.9998 54.3999 38.5671 54.3999 36.7997V23.9999H57.5998C58.4461 24.0006 59.2582 23.666 59.8584 23.0693C61.1116 21.8234 61.1176 19.7973 59.8717 18.5439ZM54.3997 20.7999C52.6323 20.7999 51.1997 22.2325 51.1997 23.9999V36.7999H44.7998V23.9999C44.7998 22.2325 43.3671 20.7999 41.5997 20.7999H38.3998L47.9998 11.1999L57.5998 20.7999H54.3997Z" fill="#594DA0"/>
</svg>
