<svg width="96" height="96" viewBox="0 0 96 96" fill="none" xmlns="http://www.w3.org/2000/svg">
<g clip-path="url(#clip0_36_2995)">
<path d="M44.0596 26.9718C49.1 30.348 56.1517 30.172 62.0082 28.5031C62.9773 30.9923 63.6226 33.5957 63.9284 36.2493L63.9828 40.0032H41.6034C41.1483 40.0033 40.6985 40.1004 40.2839 40.2881C39.8693 40.4758 39.4995 40.7497 39.1992 41.0917C38.899 41.4336 38.675 41.8357 38.5424 42.271C38.4099 42.7064 38.3716 43.165 38.4303 43.6163L39.8865 54.8172C39.9856 55.5803 40.3565 56.2821 40.931 56.794C41.5055 57.3059 42.2453 57.5937 43.0147 57.6046L47.6151 93.2218C47.8263 94.8139 49.1832 96.006 50.7897 96.0076H80.4209C81.1983 96.0061 81.9488 95.7223 82.5327 95.209C83.1166 94.6957 83.4943 93.9879 83.5955 93.217L88.1959 57.6046C88.9646 57.5939 89.7038 57.3068 90.2782 56.7958C90.8526 56.2848 91.2239 55.5842 91.3241 54.822C92.9547 42.2786 92.7803 43.7811 92.7803 43.6211C92.8397 43.1694 92.802 42.7103 92.6698 42.2744C92.5375 41.8384 92.3137 41.4358 92.0134 41.0933C91.713 40.7508 91.343 40.4764 90.928 40.2884C90.5131 40.1004 90.0628 40.0032 89.6072 40.0032H67.2054L67.2822 36.2557C67.5735 33.5979 68.2199 30.9913 69.2024 28.5047C75.0557 30.1784 82.1106 30.348 87.1494 26.9718C94.83 21.8305 95.9501 9.99121 95.9997 9.48877C96.0019 9.39172 95.9944 9.2947 95.9773 9.19914C95.9683 8.93903 95.8862 8.68672 95.7405 8.47109V8.45828C95.7245 8.43428 95.6989 8.42308 95.6829 8.40068C95.5483 8.20763 95.365 8.05361 95.1516 7.95424C95.0877 7.91134 95.0203 7.87387 94.95 7.84224C94.4892 7.68222 83.5571 3.84992 75.8445 9.01353C68.9096 13.6539 67.3238 23.7347 67.0438 26.0229C66.3863 26.9241 65.8983 27.9375 65.6037 29.0135C65.3072 27.9338 64.8194 26.916 64.1636 26.0085C63.8836 23.7011 62.2898 13.6491 55.3629 9.01353C47.6583 3.85152 36.7262 7.68062 36.2638 7.84064C36.1937 7.87252 36.1263 7.90998 36.0622 7.95264C35.8492 8.05258 35.666 8.20649 35.5309 8.39908C35.5149 8.42148 35.4893 8.43268 35.4733 8.45668C35.3255 8.67637 35.2418 8.93293 35.2317 9.19754C35.2123 9.2934 35.2027 9.39097 35.2029 9.48877C35.2541 9.99121 36.3806 21.8305 44.0596 26.9718ZM39.0432 12.7706L58.7728 25.9813C47.9047 28.0566 41.677 23.7411 39.0432 12.7706ZM80.4209 92.8074H50.7897L46.2438 57.6046H84.9668L80.4209 92.8074ZM88.1511 54.4043H43.0595L41.6034 43.2034H89.6072L88.1511 54.4043ZM72.449 25.9765L92.177 12.7674C89.54 23.7859 83.2803 28.0342 72.449 25.9765ZM90.5433 10.0104L70.8217 23.2147C73.4459 12.321 79.5904 7.93184 90.5433 10.0104ZM53.5899 11.6809C57.6415 14.4012 59.5392 19.6816 60.3921 23.2243L40.6609 10.0056C44.098 9.34795 49.5256 8.96072 53.5899 11.6809Z" fill="#594DA0"/>
<path d="M49.6039 46.4037H46.4037C45.9793 46.4037 45.5723 46.5723 45.2722 46.8723C44.9721 47.1724 44.8036 47.5794 44.8036 48.0038C44.8036 48.4282 44.9721 48.8352 45.2722 49.1353C45.5723 49.4354 45.9793 49.6039 46.4037 49.6039H49.6039C50.0283 49.6039 50.4353 49.4354 50.7354 49.1353C51.0355 48.8352 51.2041 48.4282 51.2041 48.0038C51.2041 47.5794 51.0355 47.1724 50.7354 46.8723C50.4353 46.5723 50.0283 46.4037 49.6039 46.4037ZM56.0044 46.4037C55.5801 46.4037 55.1731 46.5723 54.873 46.8723C54.5729 47.1724 54.4043 47.5794 54.4043 48.0038C54.4043 48.4282 54.5729 48.8352 54.873 49.1353C55.1731 49.4354 55.5801 49.6039 56.0044 49.6039H67.2053C67.6297 49.6039 68.0367 49.4354 68.3368 49.1353C68.6369 48.8352 68.8055 48.4282 68.8055 48.0038C68.8055 47.5794 68.6369 47.1724 68.3368 46.8723C68.0367 46.5723 67.6297 46.4037 67.2053 46.4037H56.0044ZM17.6014 96.0076C27.0549 96.0076 35.2028 71.1704 35.2028 58.9759C35.2028 47.7062 28.8183 44.3891 22.4018 43.5043V36.7613C23.3919 36.0223 24.1965 35.063 24.752 33.9594C25.3074 32.8557 25.5984 31.6379 25.602 30.4024V8.00064C25.602 5.87873 24.7591 3.84374 23.2587 2.34333C21.7583 0.842922 19.7233 0 17.6014 0C15.4795 0 13.4445 0.842922 11.9441 2.34333C10.4437 3.84374 9.60076 5.87873 9.60076 8.00064V30.4024C9.60436 31.6379 9.89539 32.8557 10.4508 33.9594C11.0063 35.063 11.8109 36.0223 12.801 36.7613V43.5043C6.38451 44.3891 0 47.7062 0 58.9759C0 71.1704 8.14785 96.0076 17.6014 96.0076ZM20.4928 46.5269C19.6528 54.2987 18.4015 58.1294 17.6014 59.0687C16.8013 58.1294 15.55 54.2987 14.71 46.5269C16.6341 46.3621 18.5687 46.3621 20.4928 46.5269ZM12.801 8.00064C12.801 6.72749 13.3068 5.5065 14.207 4.60625C15.1073 3.70601 16.3283 3.20025 17.6014 3.20025C18.8745 3.20025 20.0955 3.70601 20.9958 4.60625C21.896 5.5065 22.4018 6.72749 22.4018 8.00064V30.4024C22.4018 31.6756 21.896 32.8965 20.9958 33.7968C20.0955 34.697 18.8745 35.2028 17.6014 35.2028C16.3283 35.2028 15.1073 34.697 14.207 33.7968C13.3068 32.8965 12.801 31.6756 12.801 30.4024V8.00064ZM16.0013 38.243C17.0574 38.4591 18.1454 38.4591 19.2015 38.243V43.2354C18.1352 43.1946 17.0676 43.1946 16.0013 43.2354V38.243ZM11.5417 47.0021C13.2058 62.405 16.2685 62.405 17.6014 62.405C18.9343 62.405 21.9969 62.405 23.6611 47.0021C29.5015 48.351 32.0025 52.0825 32.0025 58.9759C32.0025 71.2249 23.6819 92.8074 17.6014 92.8074C11.5209 92.8074 3.20025 71.2249 3.20025 58.9759C3.20025 52.0825 5.70125 48.351 11.5417 47.0021Z" fill="#594DA0"/>
<path d="M17.6013 9.60077C18.4851 9.60077 19.2015 8.88437 19.2015 8.00064C19.2015 7.11691 18.4851 6.40051 17.6013 6.40051C16.7176 6.40051 16.0012 7.11691 16.0012 8.00064C16.0012 8.88437 16.7176 9.60077 17.6013 9.60077Z" fill="#594DA0"/>
</g>
<defs>
<clipPath id="clip0_36_2995">
<rect width="96" height="96" fill="white"/>
</clipPath>
</defs>
</svg>
