<svg width="84" height="94" viewBox="0 0 84 94" fill="none" xmlns="http://www.w3.org/2000/svg">
<path d="M82.5435 53.3975C82.2893 53.3281 82.0213 53.3273 81.7667 53.3953C81.5122 53.4633 81.2802 53.5976 81.0945 53.7845L76.0395 58.8395L71.7375 57.764L70.6605 53.4605L75.7155 48.407C75.9017 48.2208 76.0356 47.989 76.1037 47.7347C76.1719 47.4804 76.1719 47.2126 76.1038 46.9583C76.0357 46.704 75.9019 46.472 75.7158 46.2858C75.5296 46.0996 75.2978 45.9657 75.0435 45.8975C74.0508 45.6321 73.0275 45.4985 72 45.5C69.2598 45.5041 66.6033 46.4445 64.471 48.1655C62.3386 49.8864 60.8585 52.2844 60.276 54.962C59.6526 54.5403 59.0055 54.1547 58.338 53.807L58.449 53.387C58.5003 53.1948 58.5129 52.9943 58.486 52.7972C58.4591 52.6001 58.3933 52.4104 58.2924 52.2389C58.1915 52.0675 58.0575 51.9179 57.8982 51.7988C57.7389 51.6796 57.5575 51.5934 57.3645 51.545L51.3645 50.045C51.0437 49.9675 50.7063 49.9992 50.4055 50.135C50.1048 50.2709 49.8579 50.5031 49.704 50.795L43.5 48.893V45.812C45.9076 44.2352 47.8644 42.0602 49.179 39.5H51C52.2686 39.5026 53.5053 39.1022 54.5315 38.3564C55.5578 37.6106 56.3206 36.5582 56.71 35.3508C57.0993 34.1434 57.095 32.8435 56.6977 31.6387C56.3004 30.4339 55.5307 29.3865 54.4995 28.6475C55.0407 26.3948 55.3632 24.0951 55.4625 21.7805C55.499 21.6135 55.5056 21.4413 55.482 21.272L54.3075 13.622C53.7588 9.96029 51.9097 6.6187 49.0986 4.20896C46.2875 1.79921 42.7025 0.482543 39 0.499988H30C26.2973 0.484355 22.7129 1.803 19.9031 4.21445C17.0934 6.62591 15.2462 9.9688 14.7 13.631L13.5255 21.272C13.4886 21.5178 13.5139 21.769 13.599 22.0025C13.5485 22.4007 13.5179 22.8012 13.5075 23.2025C13.508 24.184 13.6284 25.1617 13.866 26.114L14.5005 28.649C13.469 29.3876 12.6989 30.435 12.3014 31.6398C11.9039 32.8446 11.8995 34.1446 12.2889 35.352C12.6784 36.5595 13.4414 37.612 14.4679 38.3575C15.4944 39.1031 16.7313 39.5032 18 39.5H19.821C21.1356 42.0602 23.0924 44.2352 25.5 45.812V48.893L19.296 50.801C19.1423 50.5089 18.8954 50.2765 18.5946 50.1407C18.2938 50.0048 17.9563 49.9732 17.6355 50.051L11.6355 51.551C11.4425 51.5994 11.2611 51.6856 11.1018 51.8048C10.9425 51.9239 10.8085 52.0735 10.7076 52.2449C10.6067 52.4164 10.5409 52.6061 10.514 52.8032C10.4871 53.0003 10.4997 53.2008 10.551 53.393L10.6635 53.8145C7.44912 55.4809 4.75449 57.9986 2.87392 61.0926C0.99336 64.1866 -0.000810652 67.7378 4.95967e-07 71.3585V80C4.95967e-07 80.3978 0.158036 80.7794 0.439341 81.0607C0.720645 81.342 1.10218 81.5 1.5 81.5V93.5H4.5V81.5H13.98L12.021 93.254L14.979 93.746L17.7705 77H44.379L37.6845 83.6945C37.1513 84.2277 36.7283 84.8608 36.4397 85.5575C36.1511 86.2542 36.0026 87.0009 36.0026 87.755C36.0026 88.5091 36.1511 89.2558 36.4397 89.9525C36.7283 90.6492 37.1513 91.2823 37.6845 91.8155C38.2177 92.3487 38.8508 92.7717 39.5475 93.0603C40.2442 93.3489 40.9909 93.4974 41.745 93.4974C42.4991 93.4974 43.2458 93.3489 43.9425 93.0603C44.6392 92.7717 45.2723 92.3487 45.8055 91.8155L52.572 85.049L54.021 93.749L56.979 93.257L55.179 82.4465L56.121 81.5H64.5V93.5H67.5V81.5C67.8978 81.5 68.2794 81.342 68.5607 81.0607C68.842 80.7794 69 80.3978 69 80V71.36C68.995 70.5907 68.9449 69.8224 68.85 69.059C69.875 69.3487 70.9348 69.4971 72 69.5C75.1815 69.4964 78.2317 68.231 80.4813 65.9813C82.731 63.7317 83.9964 60.6815 84 57.5C84.0012 56.4731 83.868 55.4504 83.604 54.458C83.5358 54.2037 83.402 53.9718 83.2158 53.7857C83.0297 53.5995 82.7978 53.4657 82.5435 53.3975ZM60.078 58.574C60.1382 59.3562 60.2779 60.1302 60.495 60.884L54.9795 66.398L57.5415 56.798C58.4402 57.3102 59.2893 57.9047 60.078 58.574ZM52.092 53.324L55.158 54.0905L50.745 70.6325L47.379 74H46.929L52.092 53.324ZM36 61.7765L39.3285 65.9375C39.4691 66.1131 39.6474 66.2548 39.8502 66.3522C40.053 66.4496 40.275 66.5001 40.5 66.5C40.5435 66.5022 40.587 66.5022 40.6305 66.5C40.8769 66.4786 41.1141 66.3965 41.3211 66.2612C41.5281 66.1259 41.6985 65.9416 41.817 65.7245L48.45 53.555L48.9 53.6945L43.8285 74H36V61.7765ZM33 74H25.1715L20.1 53.6945L20.55 53.555L27.1845 65.7185C27.303 65.9355 27.4734 66.1199 27.6804 66.2552C27.8874 66.3905 28.1246 66.4726 28.371 66.494C28.4139 66.4982 28.4569 66.5002 28.5 66.5C28.725 66.5001 28.947 66.4496 29.1498 66.3522C29.3526 66.2548 29.5309 66.1131 29.6715 65.9375L33 61.7765V74ZM45.525 52.655L40.263 62.3L36.663 57.8C38.9266 56.0886 40.9208 54.0474 42.579 51.7445L45.525 52.655ZM18.849 23.2265L17.7255 22.103C21.8668 20.7086 26.2077 19.9983 30.5775 20H38.4225C42.7921 19.9973 47.133 20.7066 51.2745 22.1L50.151 23.2235C49.6451 23.7291 49.0224 24.1021 48.3379 24.3096C47.6535 24.5171 46.9285 24.5526 46.227 24.413L43.7025 23.9075C37.6255 22.6935 31.3685 22.6935 25.2915 23.9075L22.776 24.413C22.0743 24.5535 21.3489 24.5187 20.6638 24.3117C19.9788 24.1048 19.3555 23.732 18.849 23.2265ZM39 17.0135C38.8065 17.0135 38.616 17 38.4225 17H30.5775C30.384 17 30.1935 17.0105 30 17.0135V12.5H39V17.0135ZM51 36.5H50.361C50.7812 35.0368 50.9963 33.5223 51 32C51 31.5005 50.9835 30.9995 50.9565 30.5H51C51.7957 30.5 52.5587 30.8161 53.1213 31.3787C53.6839 31.9413 54 32.7043 54 33.5C54 34.2956 53.6839 35.0587 53.1213 35.6213C52.5587 36.1839 51.7957 36.5 51 36.5ZM51 27.5H50.6415C50.5965 27.207 50.5465 26.9145 50.4915 26.6225C51.0631 26.3259 51.5927 25.9546 52.0665 25.5185C51.9555 26.2055 51.8225 26.8885 51.6675 27.5675C51.4465 27.5321 51.2236 27.5096 51 27.5ZM30 3.49999H39C41.9861 3.48641 44.8771 4.54912 47.1435 6.49345C49.4098 8.43779 50.8998 11.1336 51.3405 14.087L52.131 19.229C48.8495 18.1326 45.4481 17.4346 42 17.15V11C42 10.6022 41.842 10.2206 41.5607 9.93933C41.2794 9.65802 40.8978 9.49999 40.5 9.49999H28.5C28.1022 9.49999 27.7206 9.65802 27.4393 9.93933C27.158 10.2206 27 10.6022 27 11V17.15C23.5516 17.4326 20.1498 18.1286 16.8675 19.223L17.658 14.0825C18.0994 11.1295 19.5899 8.4344 21.8566 6.49089C24.1232 4.54738 27.0142 3.48557 30 3.49999ZM16.77 25.391C17.2836 25.893 17.8684 26.3165 18.5055 26.648C18.4525 26.933 18.4025 27.219 18.3555 27.506H18C17.7704 27.516 17.5415 27.539 17.3145 27.575L16.77 25.391ZM18 36.5C17.2044 36.5 16.4413 36.1839 15.8787 35.6213C15.3161 35.0587 15 34.2956 15 33.5C15 32.7043 15.3161 31.9413 15.8787 31.3787C16.4413 30.8161 17.2044 30.5 18 30.5H18.0435C18.0165 30.9995 18 31.5005 18 32C18.0037 33.5223 18.2188 35.0368 18.639 36.5H18ZM21 32C21.0005 30.4824 21.133 28.9677 21.396 27.473C22.0537 27.5226 22.7151 27.4838 23.3625 27.3575L25.881 26.852C31.5698 25.721 37.4257 25.721 43.1145 26.852L45.642 27.359C46.1152 27.453 46.5965 27.5002 47.079 27.5C47.256 27.5 47.424 27.461 47.5995 27.449C47.8647 28.9515 47.9987 30.4742 48 32C48 35.5804 46.5777 39.0142 44.0459 41.5459C41.5142 44.0777 38.0804 45.5 34.5 45.5C30.9196 45.5 27.4858 44.0777 24.9541 41.5459C22.4223 39.0142 21 35.5804 21 32ZM34.5 48.5C36.5541 48.4973 38.5895 48.1086 40.5 47.354V49.508C38.862 51.8764 36.8331 53.949 34.5 55.637C32.1669 53.949 30.138 51.8764 28.5 49.508V47.354C30.4105 48.1086 32.4459 48.4973 34.5 48.5ZM26.4195 51.749C28.078 54.0503 30.0722 56.09 32.3355 57.8L28.7355 62.3L23.475 52.655L26.4195 51.749ZM16.908 53.3195L22.0785 74H19.152L13.842 54.086L16.908 53.3195ZM3 78.5V71.3585C2.99761 68.3999 3.77907 65.4936 5.26484 62.9352C6.75062 60.3768 8.88767 58.2577 11.4585 56.7935L16.068 74.078C15.8002 74.1557 15.5597 74.3072 15.3741 74.5152C15.1884 74.7231 15.065 74.9792 15.018 75.254L14.4795 78.5H3ZM66 71.621V78.5H59.121L66 71.621ZM72 66.5C70.8958 66.502 69.8013 66.2938 68.775 65.8865C68.5028 65.7779 68.2047 65.7514 67.9176 65.8103C67.6305 65.8692 67.3669 66.011 67.1595 66.218L43.6845 89.6945C43.4318 89.9583 43.1291 90.1689 42.7939 90.3141C42.4588 90.4593 42.098 90.5361 41.7328 90.54C41.3676 90.5439 41.0053 90.4749 40.6671 90.3369C40.3289 90.199 40.0217 89.9949 39.7634 89.7366C39.5051 89.4783 39.301 89.1711 39.1631 88.8329C39.0251 88.4947 38.9561 88.1324 38.96 87.7672C38.9639 87.402 39.0407 87.0412 39.1859 86.7061C39.3311 86.3709 39.5417 86.0682 39.8055 85.8155L63.2805 62.3405C63.4881 62.1331 63.6303 61.8693 63.6895 61.5819C63.7487 61.2945 63.7222 60.996 63.6135 60.7235C63.206 59.6977 62.9978 58.6037 63 57.5C63.0024 55.2252 63.8652 53.0356 65.4152 51.3706C66.9652 49.7057 69.0877 48.6887 71.3565 48.524L67.9395 51.9395C67.7565 52.1226 67.624 52.3499 67.5549 52.5993C67.4857 52.8488 67.4823 53.1118 67.545 53.363L69.045 59.363C69.1108 59.6267 69.247 59.8677 69.439 60.06C69.6311 60.2523 69.8718 60.3889 70.1355 60.455L76.1355 61.955C76.3868 62.0188 76.6504 62.016 76.9003 61.9468C77.1503 61.8776 77.3778 61.7445 77.5605 61.5605L80.9775 58.145C80.8117 60.4135 79.7942 62.5354 78.1291 64.0851C76.464 65.6347 74.2746 66.4973 72 66.5Z" fill="#594DA0"/>
</svg>
