<svg width="94" height="94" viewBox="0 0 94 94" fill="none" xmlns="http://www.w3.org/2000/svg">
<path d="M28.4543 32.8182V37.1818C28.4543 37.4711 28.5693 37.7486 28.7739 37.9532C28.9784 38.1578 29.2559 38.2727 29.5453 38.2727H64.4543C64.7437 38.2727 65.0212 38.1578 65.2257 37.9532C65.4303 37.7486 65.5453 37.4711 65.5453 37.1818V32.8182C65.5318 32.5096 65.4006 32.218 65.1787 32.0032L55.7271 23.6V1.18179C55.7271 0.892463 55.6121 0.614986 55.4076 0.410401C55.203 0.205816 54.9255 0.0908813 54.6362 0.0908813H39.3634C39.0741 0.0908813 38.7966 0.205816 38.592 0.410401C38.3875 0.614986 38.2725 0.892463 38.2725 1.18179V23.6L28.8209 32.0032C28.707 32.1065 28.6157 32.2322 28.5526 32.3725C28.4895 32.5127 28.4561 32.6644 28.4543 32.8182ZM40.0878 24.9058C40.203 24.8036 40.2953 24.6781 40.3584 24.5376C40.4216 24.3972 40.4543 24.2449 40.4543 24.0909V2.2727H53.5453V24.0909C53.5453 24.2449 53.578 24.3972 53.6412 24.5376C53.7044 24.6781 53.7966 24.8036 53.9118 24.9058L61.5853 31.7272H44.818C44.5287 31.7272 44.2512 31.8422 44.0466 32.0468C43.842 32.2514 43.7271 32.5288 43.7271 32.8182C43.7271 33.1075 43.842 33.385 44.0466 33.5895C44.2512 33.7941 44.5287 33.9091 44.818 33.9091H63.3634V36.0909H30.6362V33.9091H39.3634C39.6528 33.9091 39.9302 33.7941 40.1348 33.5895C40.3394 33.385 40.4543 33.1075 40.4543 32.8182C40.4543 32.5288 40.3394 32.2514 40.1348 32.0468C39.9302 31.8422 39.6528 31.7272 39.3634 31.7272H32.4143L40.0878 24.9058Z" fill="#594DA0"/>
<path d="M92.818 0.0908813H62.2725C61.9832 0.0908813 61.7057 0.205816 61.5012 0.410401C61.2966 0.614986 61.1816 0.892463 61.1816 1.18179V25.1818C61.1816 25.4711 61.2966 25.7486 61.5012 25.9532C61.7057 26.1578 61.9832 26.2727 62.2725 26.2727H92.818C93.1073 26.2727 93.3848 26.1578 93.5894 25.9532C93.794 25.7486 93.9089 25.4711 93.9089 25.1818V1.18179C93.9089 0.892463 93.794 0.614986 93.5894 0.410401C93.3848 0.205816 93.1073 0.0908813 92.818 0.0908813ZM63.3635 2.2727H76.4544V24.0909H63.3635V2.2727ZM91.7271 24.0909H78.6362V2.2727H91.7271V24.0909Z" fill="#594DA0"/>
<path d="M74.2726 11C73.9833 11 73.7058 11.1149 73.5013 11.3195C73.2967 11.5241 73.1817 11.8016 73.1817 12.0909V14.2727C73.1817 14.562 73.2967 14.8395 73.5013 15.0441C73.7058 15.2487 73.9833 15.3636 74.2726 15.3636C74.562 15.3636 74.8394 15.2487 75.044 15.0441C75.2486 14.8395 75.3635 14.562 75.3635 14.2727V12.0909C75.3635 11.8016 75.2486 11.5241 75.044 11.3195C74.8394 11.1149 74.562 11 74.2726 11ZM80.8181 15.3636C81.1074 15.3636 81.3849 15.2487 81.5895 15.0441C81.7941 14.8395 81.909 14.562 81.909 14.2727V12.0909C81.909 11.8016 81.7941 11.5241 81.5895 11.3195C81.3849 11.1149 81.1074 11 80.8181 11C80.5288 11 80.2513 11.1149 80.0467 11.3195C79.8421 11.5241 79.7272 11.8016 79.7272 12.0909V14.2727C79.7272 14.562 79.8421 14.8395 80.0467 15.0441C80.2513 15.2487 80.5288 15.3636 80.8181 15.3636ZM1.18173 26.2727H31.7272C32.0165 26.2727 32.294 26.1578 32.4986 25.9532C32.7032 25.7486 32.8181 25.4711 32.8181 25.1818V1.18179C32.8181 0.892463 32.7032 0.614986 32.4986 0.410401C32.294 0.205816 32.0165 0.0908813 31.7272 0.0908813H1.18173C0.892402 0.0908813 0.614925 0.205816 0.41034 0.410401C0.205755 0.614986 0.0908203 0.892463 0.0908203 1.18179V25.1818C0.0908203 25.4711 0.205755 25.7486 0.41034 25.9532C0.614925 26.1578 0.892402 26.2727 1.18173 26.2727ZM30.6363 24.0909H17.5454V2.2727H30.6363V24.0909ZM2.27264 2.2727H15.3635V24.0909H2.27264V2.2727Z" fill="#594DA0"/>
<path d="M13.1817 11C12.8924 11 12.6149 11.1149 12.4103 11.3195C12.2058 11.5241 12.0908 11.8016 12.0908 12.0909V14.2727C12.0908 14.5621 12.2058 14.8395 12.4103 15.0441C12.6149 15.2487 12.8924 15.3636 13.1817 15.3636C13.4711 15.3636 13.7485 15.2487 13.9531 15.0441C14.1577 14.8395 14.2726 14.5621 14.2726 14.2727V12.0909C14.2726 11.8016 14.1577 11.5241 13.9531 11.3195C13.7485 11.1149 13.4711 11 13.1817 11ZM19.7272 15.3636C20.0165 15.3636 20.294 15.2487 20.4986 15.0441C20.7032 14.8395 20.8181 14.5621 20.8181 14.2727V12.0909C20.8181 11.8016 20.7032 11.5241 20.4986 11.3195C20.294 11.1149 20.0165 11 19.7272 11C19.4379 11 19.1604 11.1149 18.9558 11.3195C18.7512 11.5241 18.6363 11.8016 18.6363 12.0909V14.2727C18.6363 14.5621 18.7512 14.8395 18.9558 15.0441C19.1604 15.2487 19.4379 15.3636 19.7272 15.3636ZM92.8181 56.8182H90.6363V47C90.6363 46.132 90.2915 45.2996 89.6777 44.6858C89.064 44.0721 88.2315 43.7273 87.3635 43.7273C86.4956 43.7273 85.6631 44.0721 85.0494 44.6858C84.4356 45.2996 84.0908 46.132 84.0908 47V49.1818C84.0908 49.4711 84.2058 49.7486 84.4103 49.9532C84.6149 50.1578 84.8924 50.2727 85.1817 50.2727C85.4711 50.2727 85.7485 50.1578 85.9531 49.9532C86.1577 49.7486 86.2726 49.4711 86.2726 49.1818V47C86.2726 46.7107 86.3876 46.4332 86.5922 46.2286C86.7967 46.024 87.0742 45.9091 87.3635 45.9091C87.6529 45.9091 87.9304 46.024 88.1349 46.2286C88.3395 46.4332 88.4545 46.7107 88.4545 47V56.8182H63.1628C63.2921 56.4688 63.36 56.0998 63.3635 55.7273V53.5455H66.6363C66.9256 53.5455 67.2031 53.4305 67.4077 53.2259C67.6123 53.0213 67.7272 52.7439 67.7272 52.4545C67.7272 52.1652 67.6123 51.8877 67.4077 51.6832C67.2031 51.4786 66.9256 51.3636 66.6363 51.3636H51.3635C51.0742 51.3636 50.7967 51.4786 50.5922 51.6832C50.3876 51.8877 50.2726 52.1652 50.2726 52.4545V55.7273C50.2763 56.0998 50.3442 56.4688 50.4734 56.8182H43.1206C43.5135 56.1579 43.7229 55.4047 43.7272 54.6364V52.4545H44.8181C45.1074 52.4545 45.3849 52.3396 45.5895 52.135C45.7941 51.9304 45.909 51.653 45.909 51.3636C45.909 51.0743 45.7941 50.7968 45.5895 50.5922C45.3849 50.3877 45.1074 50.2727 44.8181 50.2727H43.7272V49.1818C43.7272 48.8925 43.6123 48.615 43.4077 48.4104C43.2031 48.2058 42.9256 48.0909 42.6363 48.0909H31.7272C31.4379 48.0909 31.1604 48.2058 30.9558 48.4104C30.7512 48.615 30.6363 48.8925 30.6363 49.1818V50.2727H29.5454C29.256 50.2727 28.9786 50.3877 28.774 50.5922C28.5694 50.7968 28.4545 51.0743 28.4545 51.3636C28.4545 51.653 28.5694 51.9304 28.774 52.135C28.9786 52.3396 29.256 52.4545 29.5454 52.4545H30.6363V54.6364C30.6405 55.4047 30.8499 56.1579 31.2428 56.8182H18.0472C19.1281 55.6218 19.7267 54.0669 19.7272 52.4545V49.1818C19.7272 48.8925 19.6123 48.615 19.4077 48.4104C19.2031 48.2058 18.9256 48.0909 18.6363 48.0909H14.7243L16.1348 46.6804C16.3335 46.4746 16.4435 46.199 16.441 45.913C16.4385 45.627 16.3238 45.3534 16.1215 45.1511C15.9193 44.9488 15.6457 44.8341 15.3596 44.8316C15.0736 44.8291 14.798 44.9391 14.5923 45.1378L11.6392 48.0909H7.72718C7.43786 48.0909 7.16038 48.2058 6.9558 48.4104C6.75121 48.615 6.63628 48.8925 6.63628 49.1818V52.4545C6.63671 54.0669 7.23534 55.6218 8.31627 56.8182H1.18173C0.892402 56.8182 0.614925 56.9331 0.41034 57.1377C0.205755 57.3423 0.0908203 57.6198 0.0908203 57.9091V92.8182C0.0908203 93.1075 0.205755 93.385 0.41034 93.5896C0.614925 93.7942 0.892402 93.9091 1.18173 93.9091H18.6363C18.9256 93.9091 19.2031 93.7942 19.4077 93.5896C19.6123 93.385 19.7272 93.1075 19.7272 92.8182C19.7272 92.5288 19.6123 92.2514 19.4077 92.0468C19.2031 91.8422 18.9256 91.7273 18.6363 91.7273H2.27264V89.5454H91.7272V91.7273H25.1817C24.8924 91.7273 24.6149 91.8422 24.4103 92.0468C24.2058 92.2514 24.0908 92.5288 24.0908 92.8182C24.0908 93.1075 24.2058 93.385 24.4103 93.5896C24.6149 93.7942 24.8924 93.9091 25.1817 93.9091H92.8181C93.1074 93.9091 93.3849 93.7942 93.5895 93.5896C93.7941 93.385 93.909 93.1075 93.909 92.8182V85.1818C93.909 84.8925 93.7941 84.615 93.5895 84.4104C93.3849 84.2058 93.1074 84.0909 92.8181 84.0909C92.5288 84.0909 92.2513 84.2058 92.0467 84.4104C91.8421 84.615 91.7272 84.8925 91.7272 85.1818V87.3636H80.8181V69.9091H91.7272V80.8182C91.7272 81.1075 91.8421 81.385 92.0467 81.5896C92.2513 81.7942 92.5288 81.9091 92.8181 81.9091C93.1074 81.9091 93.3849 81.7942 93.5895 81.5896C93.7941 81.385 93.909 81.1075 93.909 80.8182V57.9091C93.909 57.6198 93.7941 57.3423 93.5895 57.1377C93.3849 56.9331 93.1074 56.8182 92.8181 56.8182ZM52.4545 55.7273V53.5455H61.1817V55.7273C61.1817 56.0166 61.0668 56.2941 60.8622 56.4987C60.6576 56.7032 60.3801 56.8182 60.0908 56.8182H53.5454C53.256 56.8182 52.9786 56.7032 52.774 56.4987C52.5694 56.2941 52.4545 56.0166 52.4545 55.7273ZM32.8181 54.6364V50.2727H41.5454V54.6364C41.5445 55.2147 41.3144 55.7692 40.9054 56.1782C40.4964 56.5872 39.9419 56.8173 39.3635 56.8182H34.9999C34.4215 56.8173 33.8671 56.5872 33.4581 56.1782C33.0491 55.7692 32.819 55.2147 32.8181 54.6364ZM8.81809 52.4545V50.2727H17.5454V52.4545C17.5454 53.6119 17.0856 54.7218 16.2673 55.5401C15.4489 56.3584 14.339 56.8182 13.1817 56.8182C12.0244 56.8182 10.9145 56.3584 10.0962 55.5401C9.27783 54.7218 8.81809 53.6119 8.81809 52.4545ZM2.27264 59H26.2726V72.0909H2.27264V59ZM2.27264 74.2727H26.2726V87.3636H2.27264V74.2727ZM28.4545 59H65.5454V87.3636H61.1817V80.8182C61.1817 80.5288 61.0668 80.2514 60.8622 80.0468C60.6576 79.8422 60.3801 79.7273 60.0908 79.7273C59.8015 79.7273 59.524 79.8422 59.3194 80.0468C59.1148 80.2514 58.9999 80.5288 58.9999 80.8182V83H34.9999V69.9091H58.9999V76.4545C58.9999 76.7439 59.1148 77.0213 59.3194 77.2259C59.524 77.4305 59.8015 77.5454 60.0908 77.5454C60.3801 77.5454 60.6576 77.4305 60.8622 77.2259C61.0668 77.0213 61.1817 76.7439 61.1817 76.4545V68.8182C61.1817 68.5289 61.0668 68.2514 60.8622 68.0468C60.6576 67.8422 60.3801 67.7273 60.0908 67.7273H33.909C33.6197 67.7273 33.3422 67.8422 33.1376 68.0468C32.933 68.2514 32.8181 68.5289 32.8181 68.8182V87.3636H28.4545V59ZM34.9999 87.3636V85.1818H58.9999V87.3636H34.9999ZM78.6363 87.3636H67.7272V69.9091H78.6363V87.3636ZM67.7272 67.7273V59H91.7272V67.7273H67.7272Z" fill="#594DA0"/>
<path d="M16.4545 64.4545H12.0909C11.8016 64.4545 11.5241 64.5695 11.3195 64.774C11.1149 64.9786 11 65.2561 11 65.5454C11 65.8348 11.1149 66.1122 11.3195 66.3168C11.5241 66.5214 11.8016 66.6363 12.0909 66.6363H16.4545C16.7439 66.6363 17.0214 66.5214 17.2259 66.3168C17.4305 66.1122 17.5455 65.8348 17.5455 65.5454C17.5455 65.2561 17.4305 64.9786 17.2259 64.774C17.0214 64.5695 16.7439 64.4545 16.4545 64.4545ZM80.8182 62.2727H78.6364C78.347 62.2727 78.0696 62.3876 77.865 62.5922C77.6604 62.7968 77.5455 63.0743 77.5455 63.3636C77.5455 63.6529 77.6604 63.9304 77.865 64.135C78.0696 64.3396 78.347 64.4545 78.6364 64.4545H80.8182C81.1075 64.4545 81.385 64.3396 81.5896 64.135C81.7942 63.9304 81.9091 63.6529 81.9091 63.3636C81.9091 63.0743 81.7942 62.7968 81.5896 62.5922C81.385 62.3876 81.1075 62.2727 80.8182 62.2727ZM16.4545 79.7272H12.0909C11.8016 79.7272 11.5241 79.8422 11.3195 80.0468C11.1149 80.2514 11 80.5288 11 80.8182C11 81.1075 11.1149 81.385 11.3195 81.5895C11.5241 81.7941 11.8016 81.9091 12.0909 81.9091H16.4545C16.7439 81.9091 17.0214 81.7941 17.2259 81.5895C17.4305 81.385 17.5455 81.1075 17.5455 80.8182C17.5455 80.5288 17.4305 80.2514 17.2259 80.0468C17.0214 79.8422 16.7439 79.7272 16.4545 79.7272ZM81.9091 77.5454V79.7272C81.9091 80.0166 82.024 80.2941 82.2286 80.4986C82.4332 80.7032 82.7107 80.8182 83 80.8182C83.2893 80.8182 83.5668 80.7032 83.7714 80.4986C83.976 80.2941 84.0909 80.0166 84.0909 79.7272V77.5454C84.0909 77.2561 83.976 76.9786 83.7714 76.774C83.5668 76.5695 83.2893 76.4545 83 76.4545C82.7107 76.4545 82.4332 76.5695 82.2286 76.774C82.024 76.9786 81.9091 77.2561 81.9091 77.5454ZM76.4545 80.8182C76.7439 80.8182 77.0214 80.7032 77.2259 80.4986C77.4305 80.2941 77.5455 80.0166 77.5455 79.7272V77.5454C77.5455 77.2561 77.4305 76.9786 77.2259 76.774C77.0214 76.5695 76.7439 76.4545 76.4545 76.4545C76.1652 76.4545 75.8877 76.5695 75.6832 76.774C75.4786 76.9786 75.3636 77.2561 75.3636 77.5454V79.7272C75.3636 80.0166 75.4786 80.2941 75.6832 80.4986C75.8877 80.7032 76.1652 80.8182 76.4545 80.8182ZM55.7273 66.6363C56.3746 66.6363 57.0073 66.4444 57.5455 66.0848C58.0837 65.7252 58.5032 65.214 58.7509 64.616C58.9986 64.018 59.0634 63.36 58.9371 62.7251C58.8108 62.0903 58.4991 61.5071 58.0414 61.0494C57.5837 60.5917 57.0006 60.28 56.3657 60.1538C55.7309 60.0275 55.0729 60.0923 54.4749 60.34C53.8768 60.5877 53.3657 61.0072 53.0061 61.5454C52.6465 62.0836 52.4545 62.7163 52.4545 63.3636C52.4554 64.2313 52.8005 65.0633 53.4141 65.6768C54.0276 66.2904 54.8596 66.6355 55.7273 66.6363ZM55.7273 62.2727C55.943 62.2727 56.1539 62.3367 56.3333 62.4566C56.5127 62.5764 56.6526 62.7468 56.7351 62.9461C56.8177 63.1455 56.8393 63.3648 56.7972 63.5764C56.7551 63.7881 56.6512 63.9824 56.4987 64.135C56.3461 64.2876 56.1517 64.3915 55.9401 64.4336C55.7285 64.4757 55.5091 64.454 55.3098 64.3715C55.1105 64.2889 54.9401 64.1491 54.8202 63.9697C54.7003 63.7903 54.6364 63.5794 54.6364 63.3636C54.6364 63.0743 54.7513 62.7968 54.9559 62.5922C55.1605 62.3876 55.4379 62.2727 55.7273 62.2727ZM47 66.6363C47.6473 66.6363 48.28 66.4444 48.8182 66.0848C49.3564 65.7252 49.7759 65.214 50.0236 64.616C50.2713 64.018 50.3361 63.36 50.2098 62.7251C50.0836 62.0903 49.7719 61.5071 49.3142 61.0494C48.8565 60.5917 48.2733 60.28 47.6385 60.1538C47.0036 60.0275 46.3456 60.0923 45.7476 60.34C45.1496 60.5877 44.6384 61.0072 44.2788 61.5454C43.9192 62.0836 43.7273 62.7163 43.7273 63.3636C43.7281 64.2313 44.0732 65.0633 44.6868 65.6768C45.3004 66.2904 46.1323 66.6355 47 66.6363ZM47 62.2727C47.2158 62.2727 47.4267 62.3367 47.6061 62.4566C47.7855 62.5764 47.9253 62.7468 48.0079 62.9461C48.0904 63.1455 48.112 63.3648 48.07 63.5764C48.0279 63.7881 47.924 63.9824 47.7714 64.135C47.6188 64.2876 47.4244 64.3915 47.2128 64.4336C47.0012 64.4757 46.7819 64.454 46.5825 64.3715C46.3832 64.2889 46.2128 64.1491 46.0929 63.9697C45.9731 63.7903 45.9091 63.5794 45.9091 63.3636C45.9091 63.0743 46.024 62.7968 46.2286 62.5922C46.4332 62.3876 46.7107 62.2727 47 62.2727ZM38.2727 66.6363C38.92 66.6363 39.5528 66.4444 40.091 66.0848C40.6292 65.7252 41.0486 65.214 41.2963 64.616C41.544 64.018 41.6089 63.36 41.4826 62.7251C41.3563 62.0903 41.0446 61.5071 40.5869 61.0494C40.1292 60.5917 39.5461 60.28 38.9112 60.1538C38.2764 60.0275 37.6183 60.0923 37.0203 60.34C36.4223 60.5877 35.9112 61.0072 35.5516 61.5454C35.1919 62.0836 35 62.7163 35 63.3636C35.0009 64.2313 35.346 65.0633 35.9595 65.6768C36.5731 66.2904 37.405 66.6355 38.2727 66.6363ZM38.2727 62.2727C38.4885 62.2727 38.6994 62.3367 38.8788 62.4566C39.0582 62.5764 39.198 62.7468 39.2806 62.9461C39.3632 63.1455 39.3848 63.3648 39.3427 63.5764C39.3006 63.7881 39.1967 63.9824 39.0441 64.135C38.8916 64.2876 38.6972 64.3915 38.4856 64.4336C38.2739 64.4757 38.0546 64.454 37.8553 64.3715C37.6559 64.2889 37.4855 64.1491 37.3657 63.9697C37.2458 63.7903 37.1818 63.5794 37.1818 63.3636C37.1818 63.0743 37.2968 62.7968 37.5013 62.5922C37.7059 62.3876 37.9834 62.2727 38.2727 62.2727ZM53.5455 72.0909H40.4545C40.1652 72.0909 39.8877 72.2058 39.6832 72.4104C39.4786 72.615 39.3636 72.8925 39.3636 73.1818C39.3636 73.4711 39.4786 73.7486 39.6832 73.9532C39.8877 74.1578 40.1652 74.2727 40.4545 74.2727H53.5455C53.8348 74.2727 54.1123 74.1578 54.3168 73.9532C54.5214 73.7486 54.6364 73.4711 54.6364 73.1818C54.6364 72.8925 54.5214 72.615 54.3168 72.4104C54.1123 72.2058 53.8348 72.0909 53.5455 72.0909Z" fill="#594DA0"/>
</svg>
