<svg width="22" height="22" viewBox="0 0 22 22" fill="none" xmlns="http://www.w3.org/2000/svg">
<path d="M6.75 3.75C7.01522 3.75 7.26957 3.64464 7.45711 3.45711C7.64464 3.26957 7.75 3.01522 7.75 2.75V1.75C7.75 1.48478 7.64464 1.23043 7.45711 1.04289C7.26957 0.855357 7.01522 0.75 6.75 0.75H3.25C2.58696 0.75 1.95107 1.01339 1.48223 1.48223C1.01339 1.95107 0.75 2.58696 0.75 3.25V19.25C0.75 19.913 1.01339 20.5489 1.48223 21.0178C1.95107 21.4866 2.58696 21.75 3.25 21.75H6.75C7.01522 21.75 7.26957 21.6446 7.45711 21.4571C7.64464 21.2696 7.75 21.0152 7.75 20.75V19.75C7.75 19.4848 7.64464 19.2304 7.45711 19.0429C7.26957 18.8554 7.01522 18.75 6.75 18.75H3.75V3.75H6.75Z" fill="white"/>
<path d="M15.25 7.24997C15.25 7.05222 15.3087 6.85892 15.4186 6.69451C15.5285 6.5301 15.6846 6.40196 15.8673 6.32629C16.05 6.25062 16.2511 6.23082 16.445 6.26939C16.639 6.30795 16.8171 6.40316 16.957 6.54297L20.957 10.543C21.1445 10.7305 21.2498 10.9848 21.2498 11.25C21.2498 11.5151 21.1445 11.7694 20.957 11.957L16.957 15.957C16.8171 16.0968 16.639 16.192 16.445 16.2306C16.2511 16.2691 16.05 16.2493 15.8673 16.1736C15.6846 16.098 15.5285 15.9698 15.4186 15.8054C15.3087 15.641 15.25 15.4477 15.25 15.25V12.75H7.25C6.98478 12.75 6.73043 12.6446 6.54289 12.4571C6.35536 12.2695 6.25 12.0152 6.25 11.75V10.75C6.25 10.4848 6.35536 10.2304 6.54289 10.0429C6.73043 9.85533 6.98478 9.74997 7.25 9.74997H15.25V7.24997Z" fill="white"/>
</svg>
