<svg width="20" height="18" viewBox="0 0 20 18" fill="none" xmlns="http://www.w3.org/2000/svg">
<path d="M2 5.00003L0.457421 5.95753L2 6.7621V5.00003ZM18 5.00003V6.76214L19.542 5.95753L18 5.00003ZM10.2315 11.9434C10.16 11.9806 10.0806 12 9.99998 12C9.91939 12 9.83998 11.9806 9.7685 11.9434L0 6.84678V17.5C0 17.7762 0.223828 18 0.499999 18H19.5C19.7761 18 20 17.7762 20 17.5V6.84678L10.2315 11.9434Z" fill="#594DA0"/>
<path d="M17 7.28398V0.500031C17 0.223859 16.7761 3.05176e-05 16.4999 3.05176e-05H3.50008C3.22391 3.05176e-05 3 0.223859 3 0.500031V7.28401L10 10.9365L17 7.28398ZM5.5 1.99999H14.5C14.7762 1.99999 15 2.22382 15 2.50003C15 2.77624 14.7762 3.00003 14.5 3.00003H5.5C5.22383 3.00003 5 2.7762 5 2.50003C5 2.22386 5.22383 1.99999 5.5 1.99999ZM5 4.49999C5 4.22398 5.22383 4.00011 5.5 4.00011H14.5C14.7762 4.00011 15 4.22394 15 4.49999C15 4.77616 14.7762 5.00003 14.5 5.00003H5.5C5.22383 5.00003 5 4.77616 5 4.49999ZM7 6.49999C7 6.22394 7.22383 6.00011 7.5 6.00011H12.5C12.7762 6.00011 13 6.22394 13 6.49995C13 6.77612 12.7762 6.99999 12.5 6.99999H7.5C7.22383 6.99999 7 6.77616 7 6.49999Z" fill="#594DA0"/>
</svg>
