<svg width="20" height="20" viewBox="0 0 20 20" fill="none" xmlns="http://www.w3.org/2000/svg">
<path d="M5 2.8125H9.375C9.5475 2.8125 9.6875 2.67219 9.6875 2.5V1.25C9.6875 1.07781 9.5475 0.9375 9.375 0.9375H5C4.8275 0.9375 4.6875 1.07781 4.6875 1.25V2.5C4.6875 2.67219 4.8275 2.8125 5 2.8125ZM3.4375 8.4375H5.3125V10.3125H3.4375V8.4375ZM12.8125 2.8125V4.55781L13.4375 3.93281V2.5C13.4375 1.98312 13.0169 1.5625 12.5 1.5625H10.3125V2.1875H12.1875C12.5322 2.1875 12.8125 2.46781 12.8125 2.8125ZM3.4375 12.1875H5.3125V14.0625H3.4375V12.1875Z" fill="#594DA0"/>
<path d="M1.5625 15.3125V2.8125C1.5625 2.46782 1.84281 2.1875 2.1875 2.1875H4.0625V1.5625H1.875C1.35812 1.5625 0.9375 1.98313 0.9375 2.5V15.625C0.9375 16.1419 1.35812 16.5625 1.875 16.5625H10.3125V15.9375H2.1875C1.84281 15.9375 1.5625 15.6572 1.5625 15.3125ZM9.50281 8.75L14.685 3.56782L15.3369 4.21969L10.1547 9.40219L9.50281 8.75ZM15.1272 3.12657L15.6228 2.63094L17.3678 4.37594L16.8725 4.87157L15.1272 3.12657ZM18.7009 3.04469C18.8159 2.93034 18.9071 2.79432 18.9691 2.6445C19.0312 2.49468 19.0629 2.33404 19.0625 2.17188C19.0621 1.84463 18.9319 1.5309 18.7005 1.2995C18.4691 1.0681 18.1554 0.937918 17.8281 0.937505C17.666 0.937065 17.5053 0.968795 17.3555 1.03086C17.2057 1.09292 17.0697 1.18408 16.9553 1.29907L16.0669 2.1875L17.8125 3.93313L18.7009 3.04469ZM13.4375 9.19188L12.8125 9.81688V12.1875H13.4375V9.19188ZM16.5625 14.0625V12.8125H13.4375V14.0625H14.0625V13.4375H14.6875V14.0625H15.3125V13.4375H15.9375V14.0625H16.5625ZM8.45125 11.27C8.44215 11.2943 8.43749 11.32 8.4375 11.3459C8.4375 11.4916 8.59719 11.5984 8.72969 11.5491L10.6859 10.8153L9.18469 9.31407L8.45125 11.27ZM10.5962 9.84375L15.7784 4.66157L16.4303 5.31344L11.2481 10.4959L10.5962 9.84375Z" fill="#594DA0"/>
<path d="M3.52906 5.53344L3.97094 5.09156L4.375 5.49563L5.18313 4.6875H3.4375V6.5625H5.3125V5.44187L4.375 6.37937L3.52906 5.53344Z" fill="#594DA0"/>
<path d="M12.1875 12.1875V10.4419L11.4231 11.2063L8.94969 12.1341C8.79838 12.1904 8.63408 12.2021 8.47633 12.1677C8.31858 12.1333 8.17404 12.0543 8.05989 11.9402C7.94574 11.826 7.86681 11.6814 7.83248 11.5237C7.79815 11.3659 7.80987 11.2016 7.86625 11.0503L8.79375 8.57719L12.1875 5.18313V2.8125H10.255C10.1908 2.99476 10.0717 3.15267 9.91413 3.26458C9.75657 3.37648 9.56825 3.43688 9.375 3.4375H5C4.80675 3.43688 4.61843 3.37648 4.46087 3.26458C4.30331 3.15267 4.18424 2.99476 4.12 2.8125H2.1875V15.3125H10.3125V13.125C10.3125 12.6081 10.7331 12.1875 11.25 12.1875H12.1875ZM7.1875 4.0625H9.6875V4.6875H7.1875V4.0625ZM7.1875 5.3125H9.6875V5.9375H7.1875V5.3125ZM7.1875 6.5625H9.6875V7.1875H7.1875V6.5625ZM5.9375 14.6875H2.8125V11.5625H5.9375V14.6875ZM5.9375 10.9375H2.8125V7.8125H5.9375V10.9375ZM5.9375 4.81687V7.1875H2.8125V4.0625H5.80813L6.34156 3.52906L6.78344 3.97094L5.9375 4.81687ZM9.6875 14.6875H7.1875V14.0625H9.6875V14.6875ZM9.6875 13.4375H7.1875V12.8125H9.6875V13.4375Z" fill="#594DA0"/>
<path d="M18.75 12.8125H17.1875V14.6875H12.8125V12.8125H11.25C11.1671 12.8125 11.0876 12.8454 11.029 12.904C10.9704 12.9626 10.9375 13.0421 10.9375 13.125V18.75C10.9375 18.8329 10.9704 18.9124 11.029 18.971C11.0876 19.0296 11.1671 19.0625 11.25 19.0625H18.75C18.8329 19.0625 18.9124 19.0296 18.971 18.971C19.0296 18.9124 19.0625 18.8329 19.0625 18.75V13.125C19.0625 13.0421 19.0296 12.9626 18.971 12.904C18.9124 12.8454 18.8329 12.8125 18.75 12.8125ZM15.9375 18.4375H15.3125V17.8125H15.9375V18.4375ZM17.1875 18.4375H16.5625V17.8125H17.1875V18.4375ZM18.4375 18.4375H17.8125V17.8125H18.4375V18.4375ZM18.4375 17.1875H15.3125V16.5625H18.4375V17.1875Z" fill="#594DA0"/>
</svg>
