<svg width="18" height="18" viewBox="0 0 18 18" fill="none" xmlns="http://www.w3.org/2000/svg">
<path d="M17.109 9.93344C16.3767 9.74553 15.667 9.47869 14.9923 9.1376C14.784 9.03344 14.5923 8.93344 14.4173 8.8376C14.0715 8.64594 13.7965 8.4751 13.6173 8.35843C13.6071 8.35124 13.5959 8.34563 13.584 8.34177C13.4519 8.26478 13.3012 8.22561 13.1483 8.22855C12.9955 8.23149 12.8463 8.27642 12.7173 8.35843C11.6422 9.06147 10.4642 9.59284 9.22565 9.93344C9.04331 9.97774 8.88106 10.0818 8.76476 10.2291C8.64847 10.3763 8.58482 10.5583 8.58398 10.7459V11.4584C8.58355 12.4874 8.83741 13.5006 9.32299 14.4078C9.80858 15.315 10.5108 16.0881 11.3673 16.6584L11.7548 16.9168L12.7048 17.5501C12.7801 17.5997 12.8632 17.6363 12.9507 17.6584H12.9548C13.0231 17.682 13.0951 17.6933 13.1673 17.6918C13.332 17.6904 13.4926 17.6411 13.6298 17.5501L14.9673 16.6584C15.8238 16.0881 16.5261 15.315 17.0116 14.4078C17.4972 13.5006 17.7511 12.4874 17.7507 11.4584V10.7459C17.7498 10.5583 17.6862 10.3763 17.5699 10.2291C17.4536 10.0818 17.2913 9.97774 17.109 9.93344ZM14.7132 12.2126L13.0465 13.8793C12.9675 13.9567 12.8613 14.0001 12.7507 14.0001C12.64 14.0001 12.5338 13.9567 12.4548 13.8793L11.6215 13.0459C11.543 12.9675 11.4989 12.8611 11.4989 12.7501C11.4989 12.6391 11.543 12.5327 11.6215 12.4543C11.6999 12.3758 11.8064 12.3317 11.9173 12.3317C12.0283 12.3317 12.1347 12.3758 12.2132 12.4543L12.7507 12.9959L14.1215 11.6209C14.1603 11.5821 14.2065 11.5513 14.2572 11.5302C14.308 11.5092 14.3624 11.4984 14.4173 11.4984C14.4723 11.4984 14.5267 11.5092 14.5774 11.5302C14.6282 11.5513 14.6743 11.5821 14.7132 11.6209C14.752 11.6598 14.7828 11.7059 14.8038 11.7567C14.8249 11.8074 14.8357 11.8618 14.8357 11.9168C14.8357 11.9717 14.8249 12.0261 14.8038 12.0769C14.7828 12.1276 14.752 12.1738 14.7132 12.2126Z" fill="#594DA0"/>
<path d="M13.825 4.51672L10.2625 0.875054C10.1346 0.745661 9.99035 0.633594 9.83333 0.541721V3.58339C9.83432 3.9146 9.96634 4.23197 10.2005 4.46618C10.4347 4.70039 10.7521 4.8324 11.0833 4.83339H14.0792C14.004 4.72051 13.9189 4.61453 13.825 4.51672ZM14.3917 5.66672H11.0833C10.5308 5.66672 10.0009 5.44723 9.61019 5.05653C9.21949 4.66583 9 4.13592 9 3.58339V0.266721C8.92559 0.254958 8.85033 0.249384 8.775 0.250054H2.33333C1.7808 0.250054 1.2509 0.469547 0.860194 0.860248C0.469493 1.25095 0.25 1.78085 0.25 2.33339V15.6667C0.25 16.2193 0.469493 16.7492 0.860194 17.1399C1.2509 17.5306 1.7808 17.7501 2.33333 17.7501H11.5042L10.9042 17.3501C9.93333 16.7043 9.13729 15.8284 8.58697 14.8004C8.03664 13.7725 7.74912 12.6244 7.75 11.4584V10.7459C7.75016 10.4882 7.81007 10.2341 7.92502 10.0034C8.03997 9.77281 8.20684 9.57198 8.4125 9.41672H3.16667C3.05616 9.41672 2.95018 9.37282 2.87204 9.29468C2.7939 9.21654 2.75 9.11056 2.75 9.00005C2.75 8.88955 2.7939 8.78357 2.87204 8.70543C2.95018 8.62729 3.05616 8.58339 3.16667 8.58339H10.5583C11.1483 8.31733 11.7179 8.00816 12.2625 7.65839C12.5068 7.50318 12.787 7.41359 13.076 7.39826C13.3651 7.38293 13.6532 7.44239 13.9125 7.57089L13.9417 7.58339L14.0667 7.65839C14.1542 7.71672 14.2708 7.78755 14.4167 7.87505V5.97505C14.4168 5.87177 14.4084 5.76864 14.3917 5.66672ZM7.75 14.0001C7.75 14.1106 7.7061 14.2165 7.62796 14.2947C7.54982 14.3728 7.44384 14.4167 7.33333 14.4167H3.16667C3.05616 14.4167 2.95018 14.3728 2.87204 14.2947C2.7939 14.2165 2.75 14.1106 2.75 14.0001C2.75 13.8895 2.7939 13.7836 2.87204 13.7054C2.95018 13.6273 3.05616 13.5834 3.16667 13.5834H7.33333C7.44384 13.5834 7.54982 13.6273 7.62796 13.7054C7.7061 13.7836 7.75 13.8895 7.75 14.0001ZM3.16667 11.0834H6.5C6.61051 11.0834 6.71649 11.1273 6.79463 11.2054C6.87277 11.2836 6.91667 11.3895 6.91667 11.5001C6.91667 11.6106 6.87277 11.7165 6.79463 11.7947C6.71649 11.8728 6.61051 11.9167 6.5 11.9167H3.16667C3.05616 11.9167 2.95018 11.8728 2.87204 11.7947C2.7939 11.7165 2.75 11.6106 2.75 11.5001C2.75 11.3895 2.7939 11.2836 2.87204 11.2054C2.95018 11.1273 3.05616 11.0834 3.16667 11.0834ZM3.16667 3.58339H6.5C6.61051 3.58339 6.71649 3.62729 6.79463 3.70543C6.87277 3.78357 6.91667 3.88955 6.91667 4.00005C6.91667 4.11056 6.87277 4.21654 6.79463 4.29468C6.71649 4.37282 6.61051 4.41672 6.5 4.41672H3.16667C3.05616 4.41672 2.95018 4.37282 2.87204 4.29468C2.7939 4.21654 2.75 4.11056 2.75 4.00005C2.75 3.88955 2.7939 3.78357 2.87204 3.70543C2.95018 3.62729 3.05616 3.58339 3.16667 3.58339ZM9 6.91672H3.16667C3.05616 6.91672 2.95018 6.87282 2.87204 6.79468C2.7939 6.71654 2.75 6.61056 2.75 6.50005C2.75 6.38955 2.7939 6.28357 2.87204 6.20543C2.95018 6.12729 3.05616 6.08339 3.16667 6.08339H9C9.11051 6.08339 9.21649 6.12729 9.29463 6.20543C9.37277 6.28357 9.41667 6.38955 9.41667 6.50005C9.41667 6.61056 9.37277 6.71654 9.29463 6.79468C9.21649 6.87282 9.11051 6.91672 9 6.91672Z" fill="#594DA0"/>
</svg>
