<svg width="18" height="18" viewBox="0 0 18 18" fill="none" xmlns="http://www.w3.org/2000/svg">
<path d="M17.109 9.93331C16.3767 9.74541 15.667 9.47857 14.9923 9.13748C14.784 9.03331 14.5923 8.93331 14.4173 8.83748C14.0715 8.64581 13.7965 8.47498 13.6173 8.35831C13.6071 8.35112 13.5959 8.34551 13.584 8.34165C13.4519 8.26466 13.3012 8.22549 13.1483 8.22843C12.9955 8.23137 12.8463 8.2763 12.7173 8.35831C11.6422 9.06135 10.4642 9.59272 9.22565 9.93331C9.04331 9.97762 8.88106 10.0817 8.76476 10.229C8.64847 10.3762 8.58482 10.5582 8.58398 10.7458V11.4583C8.58355 12.4873 8.83741 13.5004 9.32299 14.4077C9.80858 15.3149 10.5108 16.088 11.3673 16.6583L11.7548 16.9166L12.7048 17.55C12.7801 17.5996 12.8632 17.6362 12.9507 17.6583H12.9548C13.0231 17.6819 13.0951 17.6931 13.1673 17.6916C13.332 17.6902 13.4926 17.641 13.6298 17.55L14.9673 16.6583C15.8238 16.088 16.5261 15.3149 17.0116 14.4077C17.4972 13.5004 17.7511 12.4873 17.7507 11.4583V10.7458C17.7498 10.5582 17.6862 10.3762 17.5699 10.229C17.4536 10.0817 17.2913 9.97762 17.109 9.93331ZM14.7132 12.2125L13.0465 13.8791C12.9675 13.9566 12.8613 14 12.7507 14C12.64 14 12.5338 13.9566 12.4548 13.8791L11.6215 13.0458C11.543 12.9674 11.4989 12.8609 11.4989 12.75C11.4989 12.639 11.543 12.5326 11.6215 12.4541C11.6999 12.3757 11.8064 12.3316 11.9173 12.3316C12.0283 12.3316 12.1347 12.3757 12.2132 12.4541L12.7507 12.9958L14.1215 11.6208C14.1603 11.582 14.2065 11.5511 14.2572 11.5301C14.308 11.5091 14.3624 11.4983 14.4173 11.4983C14.4723 11.4983 14.5267 11.5091 14.5774 11.5301C14.6282 11.5511 14.6743 11.582 14.7132 11.6208C14.752 11.6597 14.7828 11.7058 14.8038 11.7565C14.8249 11.8073 14.8357 11.8617 14.8357 11.9166C14.8357 11.9716 14.8249 12.026 14.8038 12.0768C14.7828 12.1275 14.752 12.1736 14.7132 12.2125Z" fill="white"/>
<path d="M13.825 4.51666L10.2625 0.874993C10.1346 0.7456 9.99035 0.633533 9.83333 0.54166V3.58333C9.83432 3.91454 9.96634 4.23191 10.2005 4.46612C10.4347 4.70032 10.7521 4.83234 11.0833 4.83333H14.0792C14.004 4.72045 13.9189 4.61447 13.825 4.51666ZM14.3917 5.66666H11.0833C10.5308 5.66666 10.0009 5.44717 9.61019 5.05647C9.21949 4.66576 9 4.13586 9 3.58333V0.26666C8.92559 0.254897 8.85033 0.249322 8.775 0.249993H2.33333C1.7808 0.249993 1.2509 0.469486 0.860194 0.860187C0.469493 1.25089 0.25 1.78079 0.25 2.33333V15.6667C0.25 16.2192 0.469493 16.7491 0.860194 17.1398C1.2509 17.5305 1.7808 17.75 2.33333 17.75H11.5042L10.9042 17.35C9.93333 16.7042 9.13729 15.8283 8.58697 14.8004C8.03664 13.7724 7.74912 12.6243 7.75 11.4583V10.7458C7.75016 10.4881 7.81007 10.234 7.92502 10.0034C8.03997 9.77275 8.20684 9.57192 8.4125 9.41666H3.16667C3.05616 9.41666 2.95018 9.37276 2.87204 9.29462C2.7939 9.21648 2.75 9.1105 2.75 8.99999C2.75 8.88949 2.7939 8.78351 2.87204 8.70537C2.95018 8.62722 3.05616 8.58333 3.16667 8.58333H10.5583C11.1483 8.31727 11.7179 8.0081 12.2625 7.65833C12.5068 7.50312 12.787 7.41353 13.076 7.3982C13.3651 7.38287 13.6532 7.44233 13.9125 7.57083L13.9417 7.58333L14.0667 7.65833C14.1542 7.71666 14.2708 7.78749 14.4167 7.87499V5.97499C14.4168 5.8717 14.4084 5.76858 14.3917 5.66666ZM7.75 14C7.75 14.1105 7.7061 14.2165 7.62796 14.2946C7.54982 14.3728 7.44384 14.4167 7.33333 14.4167H3.16667C3.05616 14.4167 2.95018 14.3728 2.87204 14.2946C2.7939 14.2165 2.75 14.1105 2.75 14C2.75 13.8895 2.7939 13.7835 2.87204 13.7054C2.95018 13.6272 3.05616 13.5833 3.16667 13.5833H7.33333C7.44384 13.5833 7.54982 13.6272 7.62796 13.7054C7.7061 13.7835 7.75 13.8895 7.75 14ZM3.16667 11.0833H6.5C6.61051 11.0833 6.71649 11.1272 6.79463 11.2054C6.87277 11.2835 6.91667 11.3895 6.91667 11.5C6.91667 11.6105 6.87277 11.7165 6.79463 11.7946C6.71649 11.8728 6.61051 11.9167 6.5 11.9167H3.16667C3.05616 11.9167 2.95018 11.8728 2.87204 11.7946C2.7939 11.7165 2.75 11.6105 2.75 11.5C2.75 11.3895 2.7939 11.2835 2.87204 11.2054C2.95018 11.1272 3.05616 11.0833 3.16667 11.0833ZM3.16667 3.58333H6.5C6.61051 3.58333 6.71649 3.62723 6.79463 3.70537C6.87277 3.78351 6.91667 3.88949 6.91667 3.99999C6.91667 4.1105 6.87277 4.21648 6.79463 4.29462C6.71649 4.37276 6.61051 4.41666 6.5 4.41666H3.16667C3.05616 4.41666 2.95018 4.37276 2.87204 4.29462C2.7939 4.21648 2.75 4.1105 2.75 3.99999C2.75 3.88949 2.7939 3.78351 2.87204 3.70537C2.95018 3.62723 3.05616 3.58333 3.16667 3.58333ZM9 6.91666H3.16667C3.05616 6.91666 2.95018 6.87276 2.87204 6.79462C2.7939 6.71648 2.75 6.6105 2.75 6.49999C2.75 6.38949 2.7939 6.28351 2.87204 6.20537C2.95018 6.12722 3.05616 6.08333 3.16667 6.08333H9C9.11051 6.08333 9.21649 6.12722 9.29463 6.20537C9.37277 6.28351 9.41667 6.38949 9.41667 6.49999C9.41667 6.6105 9.37277 6.71648 9.29463 6.79462C9.21649 6.87276 9.11051 6.91666 9 6.91666Z" fill="white"/>
</svg>
