<svg width="18" height="18" viewBox="0 0 18 18" fill="none" xmlns="http://www.w3.org/2000/svg">
<path d="M9.93335 17.7584C9.63954 17.8892 9.32166 17.9573 9.00002 17.9584H2.33335C2.03235 17.9586 1.73425 17.8995 1.45611 17.7844C1.17798 17.6693 0.925257 17.5005 0.712412 17.2876C0.499568 17.0748 0.330773 16.8221 0.215684 16.5439C0.100595 16.2658 0.0414685 15.9677 0.0416876 15.6667V13.1667C0.0425703 12.1172 0.459891 11.1109 1.20203 10.3687C1.94417 9.62658 2.95048 9.20926 4.00002 9.20837H7.33335C7.86866 9.20952 8.39839 9.31716 8.89169 9.52504C8.38242 10.1183 8.00312 10.8117 7.77824 11.5606C7.55335 12.3094 7.48787 13.0971 7.58601 13.8728C7.68415 14.6485 7.94373 15.395 8.34803 16.0643C8.75233 16.7335 9.29238 17.3106 9.93335 17.7584Z" fill="white"/>
<path d="M5.66669 8.79169C8.08293 8.79169 10.0417 6.83293 10.0417 4.41669C10.0417 2.00044 8.08293 0.041687 5.66669 0.041687C3.25044 0.041687 1.29169 2.00044 1.29169 4.41669C1.29169 6.83293 3.25044 8.79169 5.66669 8.79169Z" fill="white"/>
<path d="M13.1667 8.375C12.219 8.375 11.2925 8.65603 10.5046 9.18254C9.71658 9.70906 9.10242 10.4574 8.73975 11.333C8.37708 12.2085 8.28219 13.172 8.46707 14.1015C8.65196 15.031 9.10832 15.8848 9.77845 16.5549C10.4486 17.225 11.3024 17.6814 12.2319 17.8663C13.1614 18.0511 14.1248 17.9563 15.0004 17.5936C15.8759 17.2309 16.6243 16.6168 17.1508 15.8288C17.6773 15.0408 17.9583 14.1144 17.9583 13.1667C17.9568 11.8963 17.4515 10.6784 16.5532 9.78015C15.6549 8.88187 14.437 8.37654 13.1667 8.375ZM13.7917 15.25C13.7917 15.4158 13.7258 15.5747 13.6086 15.6919C13.4914 15.8092 13.3324 15.875 13.1667 15.875C13.0009 15.875 12.8419 15.8092 12.7247 15.6919C12.6075 15.5747 12.5417 15.4158 12.5417 15.25V13.1667C12.5417 13.0009 12.6075 12.8419 12.7247 12.7247C12.8419 12.6075 13.0009 12.5417 13.1667 12.5417C13.3324 12.5417 13.4914 12.6075 13.6086 12.7247C13.7258 12.8419 13.7917 13.0009 13.7917 13.1667V15.25ZM13.1667 11.9167C13.0019 11.9167 12.8407 11.8678 12.7037 11.7762C12.5667 11.6847 12.4598 11.5545 12.3968 11.4022C12.3337 11.25 12.3172 11.0824 12.3493 10.9208C12.3815 10.7591 12.4609 10.6106 12.5774 10.4941C12.694 10.3775 12.8424 10.2982 13.0041 10.266C13.1657 10.2339 13.3333 10.2504 13.4856 10.3134C13.6378 10.3765 13.768 10.4833 13.8596 10.6204C13.9511 10.7574 14 10.9185 14 11.0833C14 11.3043 13.9122 11.5163 13.7559 11.6726C13.5996 11.8289 13.3877 11.9167 13.1667 11.9167Z" fill="white"/>
</svg>
