<svg width="18" height="18" viewBox="0 0 18 18" fill="none" xmlns="http://www.w3.org/2000/svg">
<path d="M9.93268 17.7585C9.63887 17.8893 9.32098 17.9575 8.99935 17.9585H2.33268C2.03168 17.9587 1.73358 17.8996 1.45544 17.7845C1.1773 17.6694 0.924586 17.5006 0.711741 17.2878C0.498897 17.0749 0.330102 16.8222 0.215013 16.5441C0.0999232 16.2659 0.0407971 15.9678 0.0410162 15.6668V13.1668C0.0418989 12.1173 0.45922 11.111 1.20136 10.3688C1.9435 9.6267 2.94981 9.20938 3.99935 9.2085H7.33268C7.86799 9.20964 8.39772 9.31728 8.89102 9.52516C8.38175 10.1185 8.00245 10.8119 7.77757 11.5607C7.55268 12.3096 7.48719 13.0972 7.58533 13.8729C7.68347 14.6486 7.94306 15.3951 8.34736 16.0644C8.75166 16.7336 9.29171 17.3107 9.93268 17.7585Z" fill="#594DA0"/>
<path d="M5.66602 8.79175C8.08226 8.79175 10.041 6.83299 10.041 4.41675C10.041 2.0005 8.08226 0.041748 5.66602 0.041748C3.24977 0.041748 1.29102 2.0005 1.29102 4.41675C1.29102 6.83299 3.24977 8.79175 5.66602 8.79175Z" fill="#594DA0"/>
<path d="M13.1667 8.375C12.219 8.375 11.2925 8.65603 10.5046 9.18254C9.71658 9.70906 9.10242 10.4574 8.73975 11.333C8.37708 12.2085 8.28219 13.172 8.46707 14.1015C8.65196 15.031 9.10832 15.8848 9.77845 16.5549C10.4486 17.225 11.3024 17.6814 12.2319 17.8663C13.1614 18.0511 14.1248 17.9563 15.0004 17.5936C15.8759 17.2309 16.6243 16.6168 17.1508 15.8288C17.6773 15.0408 17.9583 14.1144 17.9583 13.1667C17.9568 11.8963 17.4515 10.6784 16.5532 9.78015C15.6549 8.88187 14.437 8.37654 13.1667 8.375ZM13.7917 15.25C13.7917 15.4158 13.7258 15.5747 13.6086 15.6919C13.4914 15.8092 13.3324 15.875 13.1667 15.875C13.0009 15.875 12.8419 15.8092 12.7247 15.6919C12.6075 15.5747 12.5417 15.4158 12.5417 15.25V13.1667C12.5417 13.0009 12.6075 12.8419 12.7247 12.7247C12.8419 12.6075 13.0009 12.5417 13.1667 12.5417C13.3324 12.5417 13.4914 12.6075 13.6086 12.7247C13.7258 12.8419 13.7917 13.0009 13.7917 13.1667V15.25ZM13.1667 11.9167C13.0019 11.9167 12.8407 11.8678 12.7037 11.7762C12.5667 11.6847 12.4598 11.5545 12.3968 11.4022C12.3337 11.25 12.3172 11.0824 12.3493 10.9208C12.3815 10.7591 12.4609 10.6106 12.5774 10.4941C12.694 10.3775 12.8424 10.2982 13.0041 10.266C13.1657 10.2339 13.3333 10.2504 13.4856 10.3134C13.6378 10.3765 13.768 10.4833 13.8596 10.6204C13.9511 10.7574 14 10.9185 14 11.0833C14 11.3043 13.9122 11.5163 13.7559 11.6726C13.5996 11.8289 13.3877 11.9167 13.1667 11.9167Z" fill="#594DA0"/>
</svg>
