<svg width="24" height="24" viewBox="0 0 24 24" fill="none" xmlns="http://www.w3.org/2000/svg">
<path d="M21 11.9998C21.0031 14.0151 20.3297 15.9732 19.0877 17.5603C17.8457 19.1474 16.1069 20.2717 14.15 20.7531C12.193 21.2346 10.1311 21.0452 8.29449 20.2155C6.45791 19.3857 4.95297 17.9636 4.02075 16.1768C3.08853 14.3901 2.78298 12.3421 3.15305 10.3611C3.52312 8.38001 4.54739 6.58049 6.06177 5.25077C7.57616 3.92106 9.49303 3.1381 11.5053 3.02732C13.5176 2.91654 15.5088 3.48436 17.16 4.6398L17.05 4.3198C16.9651 4.06122 16.9865 3.77951 17.1093 3.53665C17.2321 3.29379 17.4464 3.10967 17.705 3.0248C17.9636 2.93993 18.2453 2.96126 18.4882 3.0841C18.731 3.20694 18.9151 3.42122 19 3.6798L20 6.6798C20.0496 6.83019 20.0628 6.9902 20.0384 7.14667C20.0141 7.30314 19.9529 7.45159 19.86 7.5798C19.7632 7.71613 19.6338 7.826 19.4835 7.89937C19.3333 7.97274 19.167 8.00727 19 7.9998H16C15.7348 7.9998 15.4804 7.89445 15.2929 7.70691C15.1054 7.51937 15 7.26502 15 6.9998C15.0036 6.78814 15.0743 6.58308 15.2019 6.41416C15.3295 6.24524 15.5074 6.12116 15.71 6.0598C14.3945 5.23764 12.8432 4.87572 11.2998 5.0309C9.75629 5.18608 8.30808 5.84956 7.18261 6.91713C6.05714 7.98471 5.31817 9.39589 5.08176 10.929C4.84536 12.4622 5.12492 14.0304 5.87653 15.3874C6.62814 16.7444 7.80922 17.8133 9.23426 18.4262C10.6593 19.0391 12.2476 19.1613 13.7496 18.7736C15.2516 18.3859 16.5823 17.5102 17.5326 16.2842C18.483 15.0581 18.9991 13.5511 19 11.9998C19 11.7346 19.1054 11.4802 19.2929 11.2927C19.4804 11.1052 19.7348 10.9998 20 10.9998C20.2652 10.9998 20.5196 11.1052 20.7071 11.2927C20.8946 11.4802 21 11.7346 21 11.9998Z" fill="#594DA0"/>
</svg>
