<svg width="20" height="20" viewBox="0 0 20 20" fill="none" xmlns="http://www.w3.org/2000/svg">
<g clip-path="url(#clip0_75_2577)">
<path d="M17.5 11.1161C17.5 11.905 16.8604 12.5446 16.0714 12.5446C15.2825 12.5446 14.6429 11.905 14.6429 11.1161C14.6429 10.3271 15.2825 9.6875 16.0714 9.6875C16.8604 9.6875 17.5 10.3271 17.5 11.1161ZM5.35714 11.1161C5.35714 11.905 4.7175 12.5446 3.92857 12.5446C3.13964 12.5446 2.5 11.905 2.5 11.1161C2.5 10.3271 3.13964 9.6875 3.92857 9.6875C4.7175 9.6875 5.35714 10.3271 5.35714 11.1161ZM11.4286 9.6875C11.4286 10.4764 10.7889 11.1161 10 11.1161C9.21107 11.1161 8.57143 10.4764 8.57143 9.6875C8.57143 8.89857 9.21107 8.25893 10 8.25893C10.7889 8.25893 11.4286 8.89857 11.4286 9.6875ZM5.72424 19.3304C5.48691 19.0236 5.35783 18.6468 5.35714 18.2589V14.6875C5.35875 14.3261 5.42131 13.9676 5.54219 13.6271C5.4808 13.6229 5.41991 13.6161 5.35714 13.6161H2.5C1.99852 13.6146 1.50846 13.7658 1.09496 14.0496C0.75797 14.2788 0.482076 14.5869 0.291251 14.947C0.100426 15.3072 0.000445796 15.7085 0 16.1161L0 17.5446C0.00063076 17.8859 0.0988547 18.2198 0.283082 18.507C0.467309 18.7943 0.729852 19.0228 1.03973 19.1657C1.16362 19.2243 1.2942 19.2676 1.42857 19.2946V15.4018H2.14286V19.3304H5.72424ZM6.08241 19.6875C6.07857 19.6847 6.07545 19.681 6.07143 19.6783V19.6875H6.08241ZM13.6354 13.5135C13.4439 13.156 13.1693 12.8498 12.8346 12.6207C12.8014 12.5961 12.7666 12.5737 12.7304 12.5539C12.3384 12.3143 11.8879 12.1875 11.4286 12.1875H8.57143C7.19063 12.1875 6.07143 13.3067 6.07143 14.6875V18.2589C6.07143 18.8506 6.55116 19.3304 7.14286 19.3304H7.5V14.3304H8.21429V19.3304H11.7857V14.3304H12.5V19.3304H12.8571C13.4488 19.3304 13.9286 18.8506 13.9286 18.2589V14.6875C13.9287 14.278 13.828 13.8749 13.6354 13.5135ZM18.9061 14.0503C18.4923 13.7662 18.0019 13.6147 17.5 13.6161H14.6429C14.5804 13.6161 14.5196 13.6229 14.4582 13.6271C14.5788 13.9677 14.6413 14.3262 14.6429 14.6875V18.2589C14.6422 18.6468 14.5131 19.0236 14.2758 19.3304H17.8571V15.4018H18.5714V19.2946C18.7038 19.2681 18.8323 19.2254 18.9542 19.1675C19.2655 19.0254 19.5295 18.797 19.7149 18.5093C19.9003 18.2217 19.9992 17.8869 20 17.5446V16.1161C19.9996 15.7087 19.8997 15.3076 19.709 14.9476C19.5184 14.5876 19.2428 14.2796 18.9061 14.0503Z" fill="#594DA0"/>
<path d="M9.99994 4.6875C9.2813 4.6861 8.57388 4.86579 7.94303 5.20998C7.31217 5.55417 6.77821 6.05176 6.39044 6.65681C6.00268 7.26186 5.77361 7.95486 5.7244 8.67182C5.67518 9.38877 5.80741 10.1066 6.10886 10.7589H8.14708C7.62391 9.85839 7.82395 8.71232 8.62105 8.04219C9.4182 7.37219 10.5817 7.37219 11.3788 8.04219C12.1759 8.71232 12.376 9.85839 11.8528 10.7589H13.8927C14.1943 10.1064 14.3266 9.38846 14.2773 8.67134C14.228 7.95422 13.9988 7.26109 13.6108 6.65598C13.2228 6.05087 12.6886 5.5533 12.0575 5.20925C11.4264 4.86519 10.7187 4.68575 9.99994 4.6875Z" fill="#594DA0"/>
<path d="M18.5715 7.54464H16.643L16.5736 7.27643C16.4158 6.66278 16.1705 6.07504 15.8452 5.53134L15.7022 5.29245L17.0714 3.92071C17.1045 3.88783 17.1307 3.84874 17.1486 3.80569C17.1665 3.76264 17.1757 3.71648 17.1757 3.66986C17.1757 3.62325 17.1665 3.57709 17.1486 3.53404C17.1307 3.49099 17.1045 3.4519 17.0714 3.41902L15.5548 1.90187C15.4875 1.83757 15.3979 1.80169 15.3048 1.80169C15.2116 1.80169 15.1221 1.83757 15.0547 1.90187L13.683 3.27357L13.4441 3.13071C12.8997 2.80521 12.3112 2.55974 11.6969 2.40183L11.4287 2.33205V0.401784C11.4287 0.307064 11.391 0.216223 11.3241 0.149246C11.2571 0.0822689 11.1663 0.0446415 11.0715 0.0446415H8.92868C8.83396 0.0446415 8.74311 0.0822689 8.67614 0.149246C8.60916 0.216223 8.57153 0.307064 8.57153 0.401784V2.33036L8.30332 2.39973C7.68964 2.55756 7.10183 2.80276 6.55792 3.12781L6.31899 3.2708L4.9476 1.90187C4.88016 1.83709 4.79027 1.80091 4.69676 1.80091C4.60324 1.80091 4.51335 1.83709 4.44591 1.90187L2.92877 3.41848C2.89569 3.45141 2.86944 3.49054 2.85152 3.53363C2.83359 3.57672 2.82434 3.62293 2.8243 3.6696C2.8243 3.76397 2.86193 3.85428 2.92877 3.92071L4.30046 5.29245L4.1576 5.53134C3.83222 6.07504 3.58684 6.66277 3.42903 7.27643L3.35894 7.54464H1.42868C1.33396 7.54464 1.24312 7.58227 1.17614 7.64925C1.10916 7.71622 1.07153 7.80706 1.07153 7.90178V10.0446C1.07153 10.1394 1.10916 10.2302 1.17614 10.2972C1.24312 10.3642 1.33396 10.4018 1.42868 10.4018H1.91189C2.01662 10.1038 2.18611 9.8327 2.40816 9.60805C2.63022 9.3834 2.89932 9.21077 3.19609 9.10259C3.49283 8.99433 3.80989 8.95323 4.12443 8.98224C4.43897 9.01125 4.74316 9.10965 5.0151 9.27036C5.00935 9.17147 5.0001 9.07348 5.0001 8.97321C5.0001 6.21183 7.23872 3.97321 10.0001 3.97321C12.7615 3.97321 15.0001 6.21183 15.0001 8.97321C15.0001 9.07348 14.9909 9.17147 14.9851 9.27036C15.257 9.10965 15.5612 9.01125 15.8758 8.98224C16.1903 8.95323 16.5074 8.99433 16.8041 9.10259C17.1009 9.21077 17.37 9.3834 17.592 9.60805C17.8141 9.8327 17.9836 10.1038 18.0883 10.4018H18.5715C18.6663 10.4018 18.7571 10.3642 18.8241 10.2972C18.891 10.2302 18.9287 10.1394 18.9287 10.0446V7.90178C18.9287 7.80706 18.891 7.71622 18.8241 7.64925C18.7571 7.58227 18.6663 7.54464 18.5715 7.54464Z" fill="#594DA0"/>
</g>
<defs>
<clipPath id="clip0_75_2577">
<rect width="20" height="20" fill="white"/>
</clipPath>
</defs>
</svg>
