<svg width="18" height="17" viewBox="0 0 18 17" fill="none" xmlns="http://www.w3.org/2000/svg">
<path d="M16.7125 10.1626C16.994 9.97555 17.2323 9.73041 17.4112 9.44366C17.5902 9.15691 17.7057 8.83518 17.75 8.50009C17.7057 8.165 17.5902 7.84327 17.4112 7.55652C17.2323 7.26977 16.994 7.02464 16.7125 6.83759C16.4878 6.65257 16.2937 6.4332 16.1375 6.18759C16.1046 5.87651 16.1344 5.562 16.225 5.26259C16.3344 4.95091 16.3775 4.61983 16.3517 4.29052C16.3259 3.96122 16.2316 3.64092 16.075 3.35009C15.8436 3.11187 15.5652 2.92439 15.2575 2.79957C14.9498 2.67476 14.6194 2.61534 14.2875 2.62509C13.9874 2.6117 13.6917 2.54833 13.4125 2.43759C13.2158 2.20936 13.0632 1.94657 12.9625 1.66259C12.869 1.33956 12.7082 1.03999 12.4906 0.783607C12.273 0.52722 12.0035 0.319831 11.7 0.175092C11.3793 0.117752 11.0501 0.128167 10.7336 0.205668C10.4172 0.283168 10.1204 0.426039 9.8625 0.625092C9.60102 0.803005 9.30845 0.930211 9 1.00009C8.69155 0.930211 8.39898 0.803005 8.1375 0.625092C7.8799 0.425418 7.58318 0.282164 7.26662 0.204637C6.95005 0.12711 6.62071 0.117044 6.3 0.175092C5.99646 0.319831 5.72702 0.52722 5.50941 0.783607C5.29181 1.03999 5.13097 1.33956 5.0375 1.66259C4.93679 1.94657 4.7842 2.20936 4.5875 2.43759C4.30829 2.54833 4.01257 2.6117 3.7125 2.62509C3.38056 2.61534 3.05022 2.67476 2.74249 2.79957C2.43476 2.92439 2.15636 3.11187 1.925 3.35009C1.76838 3.64092 1.67414 3.96122 1.64831 4.29052C1.62248 4.61983 1.66563 4.95091 1.775 5.26259C1.8656 5.562 1.89535 5.87651 1.8625 6.18759C1.70628 6.4332 1.51221 6.65257 1.2875 6.83759C1.00596 7.02464 0.767716 7.26977 0.588766 7.55652C0.409816 7.84327 0.294308 8.165 0.25 8.50009C0.294308 8.83518 0.409816 9.15691 0.588766 9.44366C0.767716 9.73041 1.00596 9.97555 1.2875 10.1626C1.51221 10.3476 1.70628 10.567 1.8625 10.8126C1.89535 11.1237 1.8656 11.4382 1.775 11.7376C1.66563 12.0493 1.62248 12.3804 1.64831 12.7097C1.67414 13.039 1.76838 13.3593 1.925 13.6501C2.15636 13.8883 2.43476 14.0758 2.74249 14.2006C3.05022 14.3254 3.38056 14.3848 3.7125 14.3751C4.01257 14.3885 4.30829 14.4519 4.5875 14.5626C4.7842 14.7908 4.93679 15.0536 5.0375 15.3376C5.13097 15.6606 5.29181 15.9602 5.50941 16.2166C5.72702 16.473 5.99646 16.6804 6.3 16.8251C6.62073 16.8824 6.9499 16.872 7.26636 16.7945C7.58282 16.717 7.87956 16.5741 8.1375 16.3751C8.39898 16.1972 8.69155 16.07 9 16.0001C9.30845 16.07 9.60102 16.1972 9.8625 16.3751C10.2891 16.6585 10.7781 16.8344 11.2875 16.8876C11.4276 16.8914 11.5673 16.8702 11.7 16.8251C12.0035 16.6804 12.273 16.473 12.4906 16.2166C12.7082 15.9602 12.869 15.6606 12.9625 15.3376C13.0632 15.0536 13.2158 14.7908 13.4125 14.5626C13.6917 14.4519 13.9874 14.3885 14.2875 14.3751C14.6194 14.3848 14.9498 14.3254 15.2575 14.2006C15.5652 14.0758 15.8436 13.8883 16.075 13.6501C16.2316 13.3593 16.3259 13.039 16.3517 12.7097C16.3775 12.3804 16.3344 12.0493 16.225 11.7376C16.1344 11.4382 16.1046 11.1237 16.1375 10.8126C16.2937 10.567 16.4878 10.3476 16.7125 10.1626ZM11.9375 7.27509L8.6125 10.6126C8.49211 10.7251 8.3335 10.7876 8.16875 10.7876C8.00399 10.7876 7.84539 10.7251 7.725 10.6126L6.0625 8.93759C5.9484 8.82116 5.88485 8.66441 5.88568 8.50139C5.8865 8.33837 5.95162 8.18226 6.0669 8.06699C6.18217 7.95172 6.33828 7.88659 6.50129 7.88577C6.66431 7.88495 6.82107 7.94849 6.9375 8.06259L8.1625 9.28759L11.0625 6.38759C11.1795 6.27337 11.3365 6.20943 11.5 6.20943C11.6635 6.20943 11.8205 6.27337 11.9375 6.38759C11.9968 6.44526 12.044 6.51424 12.0762 6.59047C12.1084 6.66669 12.125 6.74859 12.125 6.83134C12.125 6.91409 12.1084 6.996 12.0762 7.07222C12.044 7.14844 11.9968 7.21743 11.9375 7.27509Z" fill="#594DA0"/>
</svg>
