<svg width="16" height="16" viewBox="0 0 16 16" fill="none" xmlns="http://www.w3.org/2000/svg">
<path d="M3.3334 0C2.2292 0 1.3334 0.8958 1.3334 2C1.3334 3.1042 2.2292 4 3.3334 4C4.4382 4 5.3334 3.1042 5.3334 2C5.3334 0.8958 4.4382 0 3.3334 0ZM0 5.3334V12H2V16H4.6666V12H6.6666V5.3334H0ZM10 8.6666H12.1224C12.3984 9.4414 13.1308 10 14 10C15.1048 10 16 9.1042 16 8C16 6.8958 15.1048 6 14 6C13.1308 6 12.3984 6.5586 12.1224 7.3334H10V2.6666H12.1224C12.3984 3.4414 13.1308 4 14 4C15.1048 4 16 3.1042 16 2C16 0.8958 15.1048 0 14 0C13.1308 0 12.3984 0.5586 12.1224 1.3334H8.6666V14.6668H12.1224C12.3984 15.4414 13.1308 16 14 16C15.1048 16 16 15.1042 16 14C16 12.8958 15.1048 12 14 12C13.1308 12 12.3984 12.5586 12.1224 13.3334H10V8.6666Z" fill="white"/>
</svg>
