<svg width="20" height="20" viewBox="0 0 20 20" fill="none" xmlns="http://www.w3.org/2000/svg">
<path d="M5.66565 14.6875C5.99666 14.4335 6.2398 14.0822 6.36091 13.6829C6.48203 13.2837 6.47504 12.8565 6.34092 12.4614C6.20681 12.0663 5.9523 11.7232 5.61316 11.4801C5.27401 11.2371 4.86726 11.1064 4.45002 11.1064C4.03279 11.1064 3.62604 11.2371 3.28689 11.4801C2.94774 11.7232 2.69324 12.0663 2.55912 12.4614C2.42501 12.8565 2.41802 13.2837 2.53913 13.6829C2.66025 14.0822 2.90339 14.4335 3.2344 14.6875C2.67588 14.8866 2.17529 15.2207 1.77725 15.6602C1.37921 16.0997 1.0961 16.6308 0.953148 17.2063C0.936569 17.2605 0.935081 17.3183 0.948845 17.3733C0.962608 17.4284 0.991104 17.4787 1.03127 17.5188C1.46192 18.0018 1.98982 18.3883 2.58036 18.653C3.17089 18.9176 3.81071 19.0545 4.45784 19.0545C5.10497 19.0545 5.74478 18.9176 6.33532 18.653C6.92585 18.3883 7.45375 18.0018 7.8844 17.5188C7.9177 17.4809 7.94134 17.4355 7.95331 17.3866C7.96528 17.3376 7.96523 17.2864 7.95315 17.2375C7.81474 16.6554 7.53295 16.1172 7.13343 15.6718C6.7339 15.2265 6.22933 14.8881 5.66565 14.6875ZM3.07815 13.125C3.07815 12.8539 3.15846 12.5889 3.30892 12.3635C3.45939 12.138 3.67328 11.9622 3.9236 11.8582C4.17391 11.7541 4.44943 11.7266 4.71537 11.779C4.98132 11.8315 5.22577 11.9615 5.41788 12.1528C5.60998 12.344 5.74113 12.5878 5.79477 12.8535C5.84841 13.1193 5.82213 13.3949 5.71926 13.6457C5.61638 13.8965 5.44152 14.1111 5.21674 14.2626C4.99196 14.4141 4.72734 14.4956 4.45627 14.4969C4.27571 14.4973 4.09683 14.4621 3.92985 14.3934C3.76287 14.3247 3.61106 14.2238 3.48309 14.0964C3.35511 13.969 3.25349 13.8176 3.18401 13.651C3.11453 13.4843 3.07856 13.3056 3.07815 13.125ZM19.0625 17.2375C18.9232 16.6544 18.64 16.1155 18.2388 15.67C17.8376 15.2246 17.3311 14.8868 16.7656 14.6875C17.0967 14.4335 17.3398 14.0822 17.4609 13.6829C17.582 13.2837 17.575 12.8565 17.4409 12.4614C17.3068 12.0663 17.0523 11.7232 16.7132 11.4801C16.374 11.2371 15.9673 11.1064 15.55 11.1064C15.1328 11.1064 14.726 11.2371 14.3869 11.4801C14.0477 11.7232 13.7932 12.0663 13.6591 12.4614C13.525 12.8565 13.518 13.2837 13.6391 13.6829C13.7602 14.0822 14.0034 14.4335 14.3344 14.6875C13.7759 14.8866 13.2753 15.2207 12.8772 15.6602C12.4792 16.0997 12.1961 16.6308 12.0531 17.2063C12.0366 17.2605 12.0351 17.3183 12.0488 17.3733C12.0626 17.4284 12.0911 17.4787 12.1313 17.5188C12.5619 18.0018 13.0898 18.3883 13.6804 18.653C14.2709 18.9176 14.9107 19.0545 15.5578 19.0545C16.205 19.0545 16.8448 18.9176 17.4353 18.653C18.0259 18.3883 18.5538 18.0018 18.9844 17.5188C19.0193 17.4818 19.0447 17.4368 19.0583 17.3878C19.0719 17.3388 19.0734 17.2872 19.0625 17.2375ZM14.1781 13.125C14.1782 12.8539 14.2585 12.5889 14.4089 12.3635C14.5594 12.138 14.7733 11.9622 15.0236 11.8582C15.2739 11.7541 15.5494 11.7266 15.8154 11.779C16.0813 11.8315 16.3258 11.9615 16.5179 12.1528C16.71 12.344 16.8411 12.5878 16.8948 12.8535C16.9484 13.1193 16.9221 13.3949 16.8193 13.6457C16.7164 13.8965 16.5415 14.1111 16.3167 14.2626C16.092 14.4141 15.8273 14.4956 15.5563 14.4969C15.3757 14.4973 15.1968 14.4621 15.0298 14.3934C14.8629 14.3247 14.7111 14.2238 14.5831 14.0964C14.4551 13.969 14.3535 13.8176 14.284 13.651C14.2145 13.4843 14.1786 13.3056 14.1781 13.125ZM10 8.8875C10.6496 8.88804 11.2919 8.75071 11.8845 8.48459C12.477 8.21847 13.0064 7.82963 13.4375 7.34375C13.4708 7.30589 13.4945 7.26054 13.5064 7.21157C13.5184 7.16259 13.5184 7.11145 13.5063 7.0625C13.3664 6.48146 13.084 5.9444 12.6846 5.49976C12.2853 5.05513 11.7815 4.71691 11.2188 4.51563C11.5488 4.26175 11.7911 3.91093 11.9116 3.51237C12.0321 3.11382 12.0248 2.68753 11.8907 2.29333C11.7566 1.89914 11.5025 1.55681 11.164 1.31438C10.8255 1.07195 10.4195 0.941593 10.0031 0.941593C9.58677 0.941593 9.18085 1.07195 8.84232 1.31438C8.5038 1.55681 8.24967 1.89914 8.11559 2.29333C7.98152 2.68753 7.97422 3.11382 8.09473 3.51237C8.21523 3.91093 8.4575 4.26175 8.78752 4.51563C8.22909 4.71391 7.72847 5.04744 7.33039 5.48642C6.93231 5.92539 6.64917 6.45614 6.50627 7.03125C6.49008 7.0858 6.48909 7.14374 6.50341 7.19881C6.51773 7.25388 6.54681 7.304 6.58752 7.34375C7.01523 7.82726 7.54041 8.21478 8.12856 8.48084C8.7167 8.74691 9.3545 8.8855 10 8.8875ZM8.62815 2.95C8.62505 2.67803 8.70287 2.41127 8.85172 2.18362C9.00056 1.95597 9.21372 1.7777 9.46411 1.67147C9.7145 1.56523 9.99082 1.53583 10.258 1.58698C10.5251 1.63814 10.771 1.76755 10.9644 1.95877C11.1579 2.15 11.2901 2.3944 11.3443 2.66094C11.3985 2.92747 11.3723 3.20411 11.2689 3.4557C11.1655 3.70729 10.9897 3.92247 10.7638 4.07392C10.5379 4.22536 10.272 4.30623 10 4.30625C9.63618 4.30625 9.28724 4.16171 9.02996 3.90444C8.77269 3.64716 8.62815 3.29822 8.62815 2.93438V2.95ZM12.7688 13.4375C12.8268 13.437 12.8836 13.4204 12.9327 13.3895C12.9818 13.3586 13.0214 13.3146 13.0469 13.2625C13.0687 13.2199 13.0805 13.1729 13.0813 13.125C13.0814 13.0664 13.065 13.009 13.0341 12.9593C13.0032 12.9096 12.9589 12.8695 12.9063 12.8438L10.3125 11.5438V9.66875C10.3125 9.58587 10.2796 9.50639 10.221 9.44778C10.1624 9.38918 10.0829 9.35625 10 9.35625C9.91714 9.35625 9.83766 9.38918 9.77905 9.44778C9.72045 9.50639 9.68752 9.58587 9.68752 9.66875V11.5438L7.09377 12.8313C7.05574 12.8487 7.02161 12.8736 6.9934 12.9046C6.96519 12.9355 6.94347 12.9717 6.92954 13.0112C6.91561 13.0506 6.90974 13.0925 6.91229 13.1343C6.91484 13.1761 6.92576 13.2169 6.94439 13.2544C6.96302 13.2918 6.98899 13.3252 7.02075 13.3524C7.05252 13.3797 7.08943 13.4003 7.1293 13.413C7.16918 13.4257 7.2112 13.4302 7.25287 13.4264C7.29454 13.4226 7.33502 13.4104 7.3719 13.3906L10 12.0875L12.6281 13.3906C12.6709 13.4167 12.719 13.4327 12.7688 13.4375Z" fill="white"/>
</svg>
