<svg width="20" height="20" viewBox="0 0 20 20" fill="none" xmlns="http://www.w3.org/2000/svg">
<g clip-path="url(#clip0_75_3059)">
<path d="M5.66559 14.6875C5.9966 14.4335 6.23974 14.0822 6.36085 13.6829C6.48197 13.2837 6.47498 12.8565 6.34086 12.4614C6.20675 12.0663 5.95224 11.7232 5.6131 11.4801C5.27395 11.2371 4.8672 11.1064 4.44996 11.1064C4.03273 11.1064 3.62598 11.2371 3.28683 11.4801C2.94768 11.7232 2.69318 12.0663 2.55906 12.4614C2.42495 12.8565 2.41796 13.2837 2.53907 13.6829C2.66019 14.0822 2.90332 14.4335 3.23434 14.6875C2.67582 14.8866 2.17522 15.2207 1.77719 15.6602C1.37915 16.0997 1.09604 16.6308 0.953087 17.2063C0.936508 17.2605 0.93502 17.3183 0.948784 17.3733C0.962547 17.4284 0.991043 17.4787 1.03121 17.5188C1.46186 18.0018 1.98976 18.3883 2.58029 18.653C3.17083 18.9176 3.81065 19.0545 4.45777 19.0545C5.1049 19.0545 5.74472 18.9176 6.33526 18.653C6.92579 18.3883 7.45369 18.0018 7.88434 17.5188C7.91763 17.4809 7.94128 17.4355 7.95325 17.3866C7.96522 17.3376 7.96517 17.2864 7.95309 17.2375C7.81468 16.6554 7.53289 16.1172 7.13337 15.6718C6.73384 15.2265 6.22927 14.8881 5.66559 14.6875ZM3.07809 13.125C3.07809 12.8539 3.15839 12.5889 3.30886 12.3635C3.45933 12.138 3.67322 11.9622 3.92354 11.8582C4.17385 11.7541 4.44937 11.7266 4.71531 11.779C4.98126 11.8315 5.22571 11.9615 5.41782 12.1528C5.60992 12.344 5.74107 12.5878 5.79471 12.8535C5.84835 13.1193 5.82207 13.3949 5.71919 13.6457C5.61632 13.8965 5.44145 14.1111 5.21667 14.2626C4.99189 14.4141 4.72727 14.4956 4.45621 14.4969C4.27564 14.4973 4.09676 14.4621 3.92978 14.3934C3.7628 14.3247 3.611 14.2238 3.48302 14.0964C3.35505 13.969 3.25343 13.8176 3.18395 13.651C3.11447 13.4843 3.0785 13.3056 3.07809 13.125ZM19.0625 17.2375C18.9232 16.6544 18.64 16.1155 18.2387 15.67C17.8375 15.2246 17.331 14.8868 16.7656 14.6875C17.0966 14.4335 17.3397 14.0822 17.4609 13.6829C17.582 13.2837 17.575 12.8565 17.4409 12.4614C17.3067 12.0663 17.0522 11.7232 16.7131 11.4801C16.3739 11.2371 15.9672 11.1064 15.55 11.1064C15.1327 11.1064 14.726 11.2371 14.3868 11.4801C14.0477 11.7232 13.7932 12.0663 13.6591 12.4614C13.5249 12.8565 13.518 13.2837 13.6391 13.6829C13.7602 14.0822 14.0033 14.4335 14.3343 14.6875C13.7758 14.8866 13.2752 15.2207 12.8772 15.6602C12.4792 16.0997 12.196 16.6308 12.0531 17.2063C12.0365 17.2605 12.035 17.3183 12.0488 17.3733C12.0625 17.4284 12.091 17.4787 12.1312 17.5188C12.5619 18.0018 13.0898 18.3883 13.6803 18.653C14.2708 18.9176 14.9106 19.0545 15.5578 19.0545C16.2049 19.0545 16.8447 18.9176 17.4353 18.653C18.0258 18.3883 18.5537 18.0018 18.9843 17.5188C19.0193 17.4818 19.0446 17.4368 19.0583 17.3878C19.0719 17.3388 19.0733 17.2872 19.0625 17.2375ZM14.1781 13.125C14.1781 12.8539 14.2584 12.5889 14.4089 12.3635C14.5593 12.138 14.7732 11.9622 15.0235 11.8582C15.2738 11.7541 15.5494 11.7266 15.8153 11.779C16.0813 11.8315 16.3257 11.9615 16.5178 12.1528C16.7099 12.344 16.8411 12.5878 16.8947 12.8535C16.9483 13.1193 16.9221 13.3949 16.8192 13.6457C16.7163 13.8965 16.5415 14.1111 16.3167 14.2626C16.0919 14.4141 15.8273 14.4956 15.5562 14.4969C15.3756 14.4973 15.1968 14.4621 15.0298 14.3934C14.8628 14.3247 14.711 14.2238 14.583 14.0964C14.4551 13.969 14.3534 13.8176 14.2839 13.651C14.2145 13.4843 14.1785 13.3056 14.1781 13.125ZM9.99996 8.8875C10.6495 8.88804 11.2918 8.75071 11.8844 8.48459C12.477 8.21847 13.0063 7.82963 13.4375 7.34375C13.4708 7.30589 13.4944 7.26054 13.5064 7.21157C13.5183 7.16259 13.5183 7.11145 13.5062 7.0625C13.3663 6.48146 13.0839 5.9444 12.6846 5.49976C12.2852 5.05513 11.7814 4.71691 11.2187 4.51563C11.5487 4.26175 11.791 3.91093 11.9115 3.51237C12.032 3.11382 12.0247 2.68753 11.8906 2.29333C11.7566 1.89914 11.5024 1.55681 11.1639 1.31438C10.8254 1.07195 10.4195 0.941593 10.0031 0.941593C9.58671 0.941593 9.18078 1.07195 8.84226 1.31438C8.50374 1.55681 8.24961 1.89914 8.11553 2.29333C7.98145 2.68753 7.97416 3.11382 8.09466 3.51237C8.21517 3.91093 8.45744 4.26175 8.78746 4.51563C8.22903 4.71391 7.7284 5.04744 7.33033 5.48642C6.93225 5.92539 6.64911 6.45614 6.50621 7.03125C6.49002 7.0858 6.48903 7.14374 6.50335 7.19881C6.51767 7.25388 6.54675 7.304 6.58746 7.34375C7.01517 7.82726 7.54035 8.21478 8.1285 8.48084C8.71664 8.74691 9.35444 8.8855 9.99996 8.8875ZM8.62809 2.95C8.62499 2.67803 8.70281 2.41127 8.85166 2.18362C9.0005 1.95597 9.21366 1.7777 9.46405 1.67147C9.71444 1.56523 9.99076 1.53583 10.2579 1.58698C10.525 1.63814 10.7709 1.76755 10.9644 1.95877C11.1578 2.15 11.29 2.3944 11.3442 2.66094C11.3984 2.92747 11.3722 3.20411 11.2688 3.4557C11.1655 3.70729 10.9897 3.92247 10.7637 4.07392C10.5378 4.22536 10.272 4.30623 9.99996 4.30625C9.63612 4.30625 9.28718 4.16171 9.0299 3.90444C8.77262 3.64716 8.62809 3.29822 8.62809 2.93438V2.95ZM12.7687 13.4375C12.8267 13.437 12.8835 13.4204 12.9326 13.3895C12.9818 13.3586 13.0213 13.3146 13.0468 13.2625C13.0687 13.2199 13.0804 13.1729 13.0812 13.125C13.0813 13.0664 13.065 13.009 13.034 12.9593C13.0031 12.9096 12.9588 12.8695 12.9062 12.8438L10.3125 11.5438V9.66875C10.3125 9.58587 10.2795 9.50639 10.2209 9.44778C10.1623 9.38918 10.0828 9.35625 9.99996 9.35625C9.91708 9.35625 9.8376 9.38918 9.77899 9.44778C9.72039 9.50639 9.68746 9.58587 9.68746 9.66875V11.5438L7.09371 12.8313C7.05568 12.8487 7.02155 12.8736 6.99334 12.9046C6.96513 12.9355 6.94341 12.9717 6.92948 13.0112C6.91554 13.0506 6.90968 13.0925 6.91223 13.1343C6.91478 13.1761 6.9257 13.2169 6.94433 13.2544C6.96296 13.2918 6.98893 13.3252 7.02069 13.3524C7.05246 13.3797 7.08937 13.4003 7.12924 13.413C7.16912 13.4257 7.21113 13.4302 7.25281 13.4264C7.29448 13.4226 7.33496 13.4104 7.37184 13.3906L9.99996 12.0875L12.6281 13.3906C12.6708 13.4167 12.7189 13.4327 12.7687 13.4375Z" fill="#594DA0"/>
</g>
<defs>
<clipPath id="clip0_75_3059">
<rect width="20" height="20" fill="white"/>
</clipPath>
</defs>
</svg>
