<svg width="20" height="20" viewBox="0 0 20 20" fill="none" xmlns="http://www.w3.org/2000/svg">
<path d="M10.9438 16.0187C10.9438 14.6633 11.4715 13.3887 12.4301 12.4301C13.3887 11.4715 14.6629 10.9438 16.0187 10.9438C17.1316 10.9438 18.1898 11.3 19.0637 11.9578C19.1121 11.25 19.1422 10.4582 19.1434 9.57187C19.141 7.34258 18.9539 5.71016 18.7543 4.51055C18.4051 2.53398 16.6098 0.738672 14.6332 0.389453C13.4336 0.189453 11.8012 0.00234375 9.57148 0C7.34219 0.00234375 5.70937 0.189453 4.50977 0.389062C2.53359 0.738281 0.738281 2.53359 0.389062 4.51016C0.189453 5.70977 0.00273437 7.34219 0 9.57148C0.00273437 11.8008 0.189453 13.4336 0.389062 14.6332C0.738281 16.6098 2.53359 18.4051 4.51016 18.7543C5.70977 18.9539 7.34219 19.1406 9.57187 19.1434C10.4582 19.1422 11.25 19.1121 11.9578 19.0637C11.3 18.1898 10.9438 17.132 10.9438 16.0187ZM4.84219 4.62578H14.3012C14.9129 4.62578 15.409 5.12187 15.409 5.73359C15.409 6.34531 14.9129 6.84141 14.3012 6.84141H4.84219C4.23047 6.84141 3.73438 6.34531 3.73438 5.73359C3.73438 5.12187 4.23047 4.62578 4.84219 4.62578ZM4.84219 11.4676C4.23047 11.4676 3.73438 10.9715 3.73438 10.3598C3.73438 9.74805 4.23047 9.25195 4.84219 9.25195H10.3949C11.0066 9.25195 11.5027 9.74805 11.5027 10.3598C11.5027 10.9715 11.0066 11.4676 10.3949 11.4676H4.84219Z" fill="#594DA0"/>
</svg>
