<svg width="18" height="16" viewBox="0 0 18 16" fill="none" xmlns="http://www.w3.org/2000/svg">
<path d="M17.3334 1.33333V2.16667H3.16669C2.94567 2.16667 2.73371 2.25446 2.57743 2.41074C2.42115 2.56702 2.33335 2.77899 2.33335 3C2.33335 3.22101 2.42115 3.43298 2.57743 3.58926C2.73371 3.74554 2.94567 3.83333 3.16669 3.83333H16.5C16.721 3.83333 16.933 3.92113 17.0893 4.07741C17.2456 4.23369 17.3334 4.44565 17.3334 4.66667V13.8333C17.3334 14.2754 17.1578 14.6993 16.8452 15.0118C16.5326 15.3244 16.1087 15.5 15.6667 15.5H9.83335V10.0117L10.9109 11.0892C11.068 11.241 11.2785 11.325 11.497 11.3231C11.7155 11.3212 11.9245 11.2335 12.079 11.079C12.2335 10.9245 12.3212 10.7155 12.3231 10.497C12.325 10.2785 12.241 10.068 12.0892 9.91083L9.58919 7.41083C9.51178 7.33323 9.41982 7.27166 9.31858 7.22965C9.21733 7.18763 9.1088 7.16601 8.99919 7.16601C8.88958 7.16601 8.78104 7.18763 8.6798 7.22965C8.57856 7.27166 8.4866 7.33323 8.40919 7.41083L5.90919 9.91083C5.75739 10.068 5.67339 10.2785 5.67529 10.497C5.67719 10.7155 5.76483 10.9245 5.91934 11.079C6.07385 11.2335 6.28286 11.3212 6.50135 11.3231C6.71985 11.325 6.93035 11.241 7.08752 11.0892L8.16669 10.0117V15.5H2.33335C1.89133 15.5 1.4674 15.3244 1.15484 15.0118C0.842282 14.6993 0.666687 14.2754 0.666687 13.8333V2.16667C0.666687 1.72464 0.842282 1.30072 1.15484 0.988155C1.4674 0.675595 1.89133 0.5 2.33335 0.5H16.5C16.721 0.5 16.933 0.587797 17.0893 0.744078C17.2456 0.900358 17.3334 1.11232 17.3334 1.33333Z" fill="white"/>
</svg>
