<svg width="18" height="16" viewBox="0 0 18 16" fill="none" xmlns="http://www.w3.org/2000/svg">
<path d="M17.3327 1.33333V2.16667H3.16602C2.945 2.16667 2.73304 2.25446 2.57676 2.41074C2.42048 2.56702 2.33268 2.77899 2.33268 3C2.33268 3.22101 2.42048 3.43298 2.57676 3.58926C2.73304 3.74554 2.945 3.83333 3.16602 3.83333H16.4993C16.7204 3.83333 16.9323 3.92113 17.0886 4.07741C17.2449 4.23369 17.3327 4.44565 17.3327 4.66667V13.8333C17.3327 14.2754 17.1571 14.6993 16.8445 15.0118C16.532 15.3244 16.108 15.5 15.666 15.5H9.83268V10.0117L10.9102 11.0892C11.0674 11.241 11.2779 11.325 11.4964 11.3231C11.7148 11.3212 11.9239 11.2335 12.0784 11.079C12.2329 10.9245 12.3205 10.7155 12.3224 10.497C12.3243 10.2785 12.2403 10.068 12.0885 9.91083L9.58852 7.41083C9.51111 7.33323 9.41915 7.27166 9.31791 7.22965C9.21666 7.18763 9.10813 7.16601 8.99852 7.16601C8.8889 7.16601 8.78037 7.18763 8.67913 7.22965C8.57789 7.27166 8.48593 7.33323 8.40852 7.41083L5.90852 9.91083C5.75672 10.068 5.67272 10.2785 5.67462 10.497C5.67652 10.7155 5.76416 10.9245 5.91867 11.079C6.07317 11.2335 6.28218 11.3212 6.50068 11.3231C6.71918 11.325 6.92968 11.241 7.08685 11.0892L8.16602 10.0117V15.5H2.33268C1.89065 15.5 1.46673 15.3244 1.15417 15.0118C0.84161 14.6993 0.666016 14.2754 0.666016 13.8333V2.16667C0.666016 1.72464 0.84161 1.30072 1.15417 0.988155C1.46673 0.675595 1.89065 0.5 2.33268 0.5H16.4993C16.7204 0.5 16.9323 0.587797 17.0886 0.744078C17.2449 0.900358 17.3327 1.11232 17.3327 1.33333Z" fill="#594DA0"/>
</svg>
