<svg width="16" height="22" viewBox="0 0 16 22" fill="#594DA0" xmlns="http://www.w3.org/2000/svg">
<path d="M10.5034 21.272C10.537 21.3157 10.5803 21.3512 10.6298 21.3756C10.6793 21.4 10.7337 21.4127 10.7889 21.4127C10.8441 21.4127 10.8985 21.4 10.948 21.3756C10.9975 21.3512 11.0408 21.3157 11.0744 21.272L15.2888 15.788C15.3298 15.7347 15.355 15.671 15.3616 15.6041C15.3682 15.5372 15.356 15.4697 15.3262 15.4094C15.2965 15.3491 15.2505 15.2984 15.1934 15.2629C15.1363 15.2274 15.0704 15.2086 15.0032 15.2086H12.7328V8.56398C12.7328 8.4685 12.6949 8.37693 12.6273 8.30942C12.5598 8.24191 12.4683 8.20398 12.3728 8.20398H9.20479C9.10931 8.20398 9.01774 8.24191 8.95023 8.30942C8.88272 8.37693 8.84479 8.4685 8.84479 8.56398V15.2096H6.57439C6.50718 15.2096 6.44132 15.2284 6.38426 15.2639C6.3272 15.2994 6.28122 15.3502 6.25153 15.4105C6.22183 15.4708 6.2096 15.5382 6.21623 15.6051C6.22286 15.672 6.24808 15.7357 6.28903 15.7889L10.5034 21.272Z" fill="#594DA0"/>
<path d="M3.64161 13.9496H6.80961C6.90509 13.9496 6.99666 13.9117 7.06417 13.8441C7.13168 13.7766 7.16961 13.6851 7.16961 13.5896V6.94159H9.44001C9.50722 6.94157 9.57308 6.92274 9.63014 6.88723C9.6872 6.85172 9.73318 6.80095 9.76288 6.74066C9.79257 6.68037 9.8048 6.61297 9.79817 6.54609C9.79154 6.47921 9.76632 6.41552 9.72537 6.36223L5.51097 0.878229C5.47597 0.836587 5.43227 0.803108 5.38296 0.78014C5.33364 0.757171 5.2799 0.74527 5.22549 0.74527C5.17109 0.74527 5.11735 0.757171 5.06803 0.78014C5.01872 0.803108 4.97502 0.836587 4.94001 0.878229L0.725613 6.36223C0.684649 6.41553 0.65943 6.47925 0.652811 6.54615C0.646192 6.61305 0.658439 6.68047 0.688164 6.74076C0.717889 6.80106 0.763904 6.85183 0.820999 6.88733C0.878093 6.92282 0.943986 6.94162 1.01121 6.94159H3.28161V13.5896C3.28161 13.6851 3.31954 13.7766 3.38705 13.8441C3.45457 13.9117 3.54614 13.9496 3.64161 13.9496Z" fill="#594DA0"/>
</svg>
