<svg width="18" height="18" viewBox="0 0 18 18" fill="none" xmlns="http://www.w3.org/2000/svg">
<path d="M15.25 0.875H2.75C2.25318 0.876484 1.77712 1.0745 1.42581 1.42581C1.0745 1.77712 0.876484 2.25318 0.875 2.75V6.5C0.876484 6.99682 1.0745 7.47288 1.42581 7.82419C1.77712 8.1755 2.25318 8.37352 2.75 8.375H3.375V5.25C3.20924 5.25 3.05027 5.18415 2.93306 5.06694C2.81585 4.94973 2.75 4.79076 2.75 4.625C2.75 4.45924 2.81585 4.30027 2.93306 4.18306C3.05027 4.06585 3.20924 4 3.375 4H14.625C14.7908 4 14.9497 4.06585 15.0669 4.18306C15.1842 4.30027 15.25 4.45924 15.25 4.625C15.25 4.79076 15.1842 4.94973 15.0669 5.06694C14.9497 5.18415 14.7908 5.25 14.625 5.25V8.375H15.25C15.7468 8.37352 16.2229 8.1755 16.5742 7.82419C16.9255 7.47288 17.1235 6.99682 17.125 6.5V2.75C17.1235 2.25318 16.9255 1.77712 16.5742 1.42581C16.2229 1.0745 15.7468 0.876484 15.25 0.875Z" fill="white"/>
<path d="M4.625 15.25C4.62648 15.7468 4.8245 16.2229 5.17581 16.5742C5.52712 16.9255 6.00318 17.1235 6.5 17.125H11.5C11.9968 17.1235 12.4729 16.9255 12.8242 16.5742C13.1755 16.2229 13.3735 15.7468 13.375 15.25V5.25H4.625V15.25ZM6.68313 10.4331C6.80033 10.316 6.95927 10.2501 7.125 10.2501C7.29073 10.2501 7.44967 10.316 7.56687 10.4331L8.375 11.2413V8.375C8.375 8.20924 8.44085 8.05027 8.55806 7.93306C8.67527 7.81585 8.83424 7.75 9 7.75C9.16576 7.75 9.32473 7.81585 9.44194 7.93306C9.55915 8.05027 9.625 8.20924 9.625 8.375V11.2413L10.4331 10.4331C10.551 10.3193 10.7089 10.2563 10.8728 10.2577C11.0366 10.2591 11.1934 10.3249 11.3093 10.4407C11.4251 10.5566 11.4909 10.7134 11.4923 10.8772C11.4937 11.0411 11.4307 11.199 11.3169 11.3169L9.44188 13.1919C9.32467 13.309 9.16573 13.3749 9 13.3749C8.83427 13.3749 8.67533 13.309 8.55813 13.1919L6.68313 11.3169C6.56596 11.1997 6.50013 11.0407 6.50013 10.875C6.50013 10.7093 6.56596 10.5503 6.68313 10.4331Z" fill="white"/>
</svg>
